<?xml version="1.0" standalone="no"?>
<!DOCTYPE svg PUBLIC "-//W3C//DTD SVG 20010904//EN"
 "http://www.w3.org/TR/2001/REC-SVG-20010904/DTD/svg10.dtd">
<svg version="1.0" xmlns="http://www.w3.org/2000/svg"
 width="736.000000pt" height="981.000000pt" viewBox="0 0 736.000000 981.000000"
 preserveAspectRatio="xMidYMid meet">
<metadata>
Created by potrace 1.16, written by Peter Selinger 2001-2019
</metadata>
<g transform="translate(0.000000,981.000000) scale(0.100000,-0.100000)"
fill="#000000" stroke="none">
<path d="M6063 8493 c-27 -75 -59 -128 -112 -188 -34 -39 -69 -87 -78 -107
-16 -35 -20 -38 -58 -38 -26 0 -58 -9 -86 -25 -107 -61 -125 -67 -162 -52 -18
8 -49 29 -69 46 -20 17 -45 31 -57 31 -26 0 -36 -35 -21 -75 13 -35 95 -151
114 -162 8 -4 39 -31 69 -60 l55 -52 -14 -57 c-17 -73 -60 -119 -135 -143 -46
-15 -54 -22 -57 -45 -3 -22 2 -29 34 -42 30 -13 50 -14 103 -6 36 5 67 9 68 8
9 -8 -22 -78 -37 -86 -30 -16 -44 -48 -29 -67 13 -15 72 -14 127 2 18 6 22 4
22 -14 0 -12 5 -31 11 -42 8 -16 7 -29 -5 -54 -21 -43 -20 -60 4 -130 23 -66
69 -146 110 -190 21 -22 40 -69 74 -185 26 -85 50 -158 54 -162 13 -13 97 -25
120 -17 13 5 22 17 22 30 0 20 -41 184 -55 222 -5 12 7 7 45 -18 28 -19 70
-40 93 -47 94 -29 354 1 464 53 60 29 122 87 146 137 5 12 13 22 16 22 3 0 22
-41 41 -91 19 -50 39 -94 45 -99 5 -4 39 -16 74 -26 62 -17 64 -17 78 2 8 11
11 29 7 47 -9 41 -58 159 -94 225 l-29 55 19 25 c65 81 64 263 -1 337 -39 44
-37 61 9 69 78 12 197 104 177 136 -3 5 -29 8 -58 8 -28 -1 -68 6 -87 15 l-35
15 40 1 c50 1 122 37 149 74 29 39 11 52 -73 52 -55 0 -74 4 -104 25 -32 21
-40 36 -57 95 -28 97 -49 135 -89 158 -32 20 -33 22 -28 68 7 61 -32 149 -66
149 -20 0 -22 6 -24 71 -2 77 -21 119 -53 119 -28 0 -50 -28 -50 -64 0 -49
-48 -110 -104 -131 -42 -16 -50 -16 -117 -1 -39 9 -113 16 -164 16 l-92 0 -6
66 c-4 37 -13 77 -22 90 -18 28 -53 32 -62 7z m447 -307 c0 -3 -28 -20 -62
-38 -34 -18 -89 -58 -122 -88 l-59 -55 21 42 c25 47 54 71 143 113 62 29 79
35 79 26z m-617 -145 c4 -17 26 -51 50 -76 24 -25 41 -47 38 -49 -3 -2 -19 -6
-35 -10 -17 -4 -52 -26 -78 -48 -27 -22 -52 -38 -55 -34 -11 11 59 75 94 87
18 6 33 14 33 19 0 4 -16 20 -35 34 -30 23 -35 33 -35 67 0 46 15 52 23 10z
m471 -73 c-4 -7 -15 -22 -24 -33 -19 -22 -34 -85 -21 -85 5 0 24 12 41 26 36
31 47 26 32 -13 -16 -43 -22 -103 -10 -103 5 0 21 9 35 20 14 11 31 20 38 20
19 0 -16 -67 -37 -73 -10 -3 -18 -10 -18 -16 0 -25 209 2 218 28 4 11 -7 13
-52 9 -45 -4 -54 -2 -45 9 13 15 73 33 114 33 24 0 35 -8 57 -43 46 -74 97
-212 120 -326 12 -61 25 -111 30 -111 4 0 8 7 8 16 0 8 14 29 30 46 37 36 33
46 -9 25 -35 -17 -35 -18 -21 17 13 35 44 33 81 -3 27 -28 29 -35 29 -108 0
-91 -21 -146 -58 -151 -18 -3 -26 4 -38 34 -19 44 -25 38 -44 -46 -41 -178
-147 -271 -343 -301 -93 -15 -248 -4 -304 21 -57 25 -137 101 -174 167 -40 70
-84 200 -105 310 -20 105 -23 320 -6 380 20 67 154 203 172 174 5 -10 17 -8
48 8 61 31 142 62 187 71 62 12 77 12 69 -2z m56 8 c0 -3 -4 -8 -10 -11 -5 -3
-10 -1 -10 4 0 6 5 11 10 11 6 0 10 -2 10 -4z m40 -10 c0 -3 -4 -8 -10 -11 -5
-3 -10 -1 -10 4 0 6 5 11 10 11 6 0 10 -2 10 -4z m40 -21 c0 -8 -4 -15 -10
-15 -5 0 -10 7 -10 15 0 8 5 15 10 15 6 0 10 -7 10 -15z m-105 -20 c-32 -26
-45 -31 -45 -16 0 10 47 38 65 40 6 0 -3 -11 -20 -24z m388 9 c25 -8 52 -23
59 -31 12 -15 10 -15 -17 -1 -26 14 -54 21 -160 42 -11 2 1 4 26 5 25 0 66 -6
92 -15z m-331 -16 c-7 -7 -12 -8 -12 -2 0 14 12 26 19 19 2 -3 -1 -11 -7 -17z
m79 -11 c-8 -8 -11 -7 -11 4 0 9 3 19 7 23 4 4 9 2 11 -4 3 -7 -1 -17 -7 -23z
m-31 -7 c0 -5 -4 -10 -10 -10 -5 0 -10 5 -10 10 0 6 5 10 10 10 6 0 10 -4 10
-10z m-39 -23 c-13 -13 -26 -3 -16 12 3 6 11 8 17 5 6 -4 6 -10 -1 -17z m123
14 c3 -5 -1 -12 -10 -15 -20 -8 -29 -1 -19 13 8 13 22 14 29 2z m-46 -18 c-2
-9 -8 -18 -15 -20 -7 -3 -9 3 -6 16 6 25 26 28 21 4z m-38 -17 c0 -8 -4 -18
-10 -21 -5 -3 -10 3 -10 14 0 12 5 21 10 21 6 0 10 -6 10 -14z m111 -9 c-13
-13 -26 -3 -16 12 3 6 11 8 17 5 6 -4 6 -10 -1 -17z m-155 -24 c-11 -11 -19 6
-11 24 8 17 8 17 12 0 3 -10 2 -21 -1 -24z m114 17 c0 -5 -5 -10 -11 -10 -5 0
-7 5 -4 10 3 6 8 10 11 10 2 0 4 -4 4 -10z m-147 -14 c3 -8 -1 -20 -9 -26 -12
-10 -14 -8 -14 14 0 28 14 35 23 12z m112 -6 c-3 -5 -10 -10 -16 -10 -5 0 -9
5 -9 10 0 6 7 10 16 10 8 0 12 -4 9 -10z m111 -2 c5 -7 2 -9 -8 -5 -9 3 -21 0
-27 -6 -12 -12 -26 -4 -18 10 8 13 46 13 53 1z m-146 -8 c0 -5 -4 -10 -10 -10
-5 0 -10 5 -10 10 0 6 5 10 10 10 6 0 10 -4 10 -10z m30 -24 c0 -3 -4 -8 -10
-11 -5 -3 -10 -1 -10 4 0 6 5 11 10 11 6 0 10 -2 10 -4z m296 -16 c41 -20 75
-61 37 -45 -10 5 -44 17 -75 29 -32 12 -58 24 -58 28 0 15 54 8 96 -12z m-326
0 c0 -5 -9 -14 -20 -20 -22 -12 -27 -1 -8 18 14 14 28 16 28 2z m-630 -535
c32 -17 42 -42 13 -30 -36 13 -73 17 -73 7 0 -5 7 -12 15 -16 8 -3 15 -16 15
-28 1 -32 33 -99 59 -122 12 -11 31 -20 43 -21 32 -2 34 -23 2 -37 -25 -12
-29 -10 -62 27 -57 65 -103 181 -88 220 7 19 39 19 76 0z m27 -63 c14 -9 56
-122 48 -130 -15 -16 -74 79 -75 121 0 18 8 21 27 9z m1070 -192 c18 -36 37
-78 42 -95 5 -16 12 -38 16 -47 5 -14 2 -18 -13 -18 -35 0 -61 33 -97 120 -42
104 -43 112 -7 108 22 -2 33 -14 59 -68z m-953 -129 c19 -36 56 -168 56 -199
0 -20 -4 -22 -22 -16 -13 3 -24 8 -26 9 -4 4 -62 216 -62 228 0 20 41 4 54
-22z"/>
<path d="M6062 7621 c-78 -26 -134 -62 -119 -77 3 -4 28 2 54 14 26 11 77 28
113 38 66 17 90 30 90 45 0 16 -54 8 -138 -20z"/>
<path d="M6492 7608 c-15 -15 -16 -50 0 -66 7 -7 25 -12 40 -12 53 0 50 81 -3
88 -13 2 -30 -3 -37 -10z"/>
<path d="M6020 7460 c-22 -42 13 -80 61 -65 16 5 20 14 17 43 -3 33 -6 37 -35
40 -24 2 -34 -2 -43 -18z"/>
<path d="M6887 7343 c11 -39 7 -101 -7 -119 -17 -20 -6 -28 19 -14 17 9 21 20
21 66 0 56 -12 94 -31 94 -5 0 -6 -11 -2 -27z"/>
<path d="M6396 7255 c-22 -8 -51 -25 -65 -39 -34 -35 -34 -96 0 -132 26 -28
27 -28 163 0 73 14 116 46 116 85 0 22 -45 84 -68 93 -29 11 -105 8 -146 -7z
m133 -28 c44 -22 35 -34 -22 -29 -51 4 -77 -3 -159 -46 -19 -9 -5 35 15 48 54
36 126 48 166 27z"/>
<path d="M3704 8437 c-40 -47 -56 -54 -154 -62 -110 -8 -204 -31 -256 -61 -38
-22 -61 -54 -78 -111 -4 -12 -28 -31 -60 -47 -50 -25 -71 -44 -149 -136 l-27
-32 -88 5 c-48 3 -97 8 -109 12 -18 6 -25 2 -32 -16 -5 -14 -4 -35 1 -51 12
-33 95 -112 142 -135 20 -9 36 -20 36 -25 0 -4 -16 -23 -35 -43 -32 -31 -41
-35 -89 -35 -96 0 -98 -44 -4 -95 29 -15 54 -29 56 -30 1 -1 -5 -18 -13 -38
-20 -49 -19 -160 2 -204 9 -19 27 -40 40 -46 26 -12 27 -15 12 -77 -13 -57
-35 -250 -31 -272 6 -31 42 -28 80 6 32 30 36 40 40 93 l4 60 87 -86 c130
-130 216 -164 411 -164 147 1 262 48 340 140 29 34 32 35 26 13 -3 -14 -13
-79 -22 -144 -16 -115 -16 -120 2 -133 22 -16 64 -9 81 14 7 9 14 34 17 57 30
255 31 260 72 288 31 20 77 97 97 159 5 14 11 15 46 6 52 -14 70 -1 48 34 -16
26 -50 120 -44 125 1 2 32 -4 67 -12 71 -16 142 -11 162 13 10 12 5 21 -24 49
-44 41 -112 123 -107 128 2 2 26 12 54 22 84 31 205 171 153 175 -7 1 -45 0
-85 -1 -75 -2 -113 10 -113 36 0 23 -46 113 -79 154 l-29 36 30 29 c38 38 111
185 103 207 -12 30 -34 28 -93 -7 -102 -61 -188 -59 -274 6 -30 23 -78 47
-111 56 -46 13 -56 20 -51 32 27 62 36 105 27 120 -18 29 -49 24 -79 -12z
m127 -307 c35 -11 73 -28 84 -36 l20 -17 -20 8 c-11 4 -36 14 -55 21 -19 7
-78 13 -130 14 -88 1 -93 2 -70 15 35 20 97 18 171 -5z m-577 -36 c4 -15 4
-29 1 -32 -8 -8 -25 19 -25 41 0 26 17 20 24 -9z m215 -41 c0 -5 -8 -45 -17
-91 l-17 -82 -67 66 c-37 37 -65 71 -62 76 12 19 69 37 117 38 26 0 47 -3 46
-7z m56 -15 c-12 -53 -55 -283 -61 -330 -6 -41 -4 -50 7 -46 8 2 15 18 17 34
2 16 17 91 33 167 16 76 29 149 29 162 0 21 16 43 25 33 2 -2 -5 -44 -15 -93
-40 -187 -59 -299 -53 -308 12 -19 24 13 42 115 11 58 27 134 36 169 9 34 14
73 10 86 -5 23 -4 24 27 18 18 -4 44 -13 58 -20 14 -7 41 -16 60 -20 44 -9 85
-30 111 -56 24 -24 18 -35 -50 -81 -44 -31 -44 -31 -38 -7 4 13 10 41 13 62
10 60 -11 43 -30 -25 -17 -61 -31 -88 -46 -88 -4 0 2 41 12 91 11 50 17 93 14
96 -12 12 -24 -11 -35 -69 -22 -114 -31 -138 -49 -138 -17 0 -16 7 4 108 13
61 18 111 13 116 -5 5 -11 7 -14 4 -6 -5 -75 -343 -75 -366 0 -7 6 -12 13 -10
6 3 18 32 25 65 10 45 18 62 33 66 10 3 19 4 19 4 0 -1 -7 -27 -15 -57 -8 -30
-15 -56 -15 -57 0 -2 6 -3 14 -3 9 0 19 19 26 49 14 60 45 82 34 25 -9 -50 17
-42 29 8 7 29 16 39 49 54 23 10 58 31 79 46 22 16 41 28 43 28 10 0 44 -108
50 -159 8 -63 -3 -191 -16 -191 -5 0 -7 9 -3 19 5 17 -1 19 -77 23 -50 2 -112
13 -156 27 -40 13 -75 21 -79 17 -12 -12 21 -35 82 -55 53 -18 56 -20 20 -16
-22 2 -55 7 -72 11 -43 8 -45 -13 -3 -29 17 -6 30 -15 30 -20 0 -4 13 -13 29
-18 l29 -10 -20 -52 c-23 -60 -16 -105 21 -123 50 -25 94 19 106 107 6 44 9
48 38 51 17 2 32 9 35 16 3 9 -15 12 -65 13 -37 0 -90 6 -118 12 -46 11 -40
12 79 12 l128 0 -6 -55 c-17 -150 -64 -288 -136 -399 -33 -52 -48 -64 -114
-96 -64 -32 -87 -38 -163 -42 -102 -6 -218 9 -280 37 -84 37 -193 149 -228
234 -34 81 -25 219 27 394 22 75 30 85 47 53 7 -13 31 -21 86 -30 88 -15 100
-26 20 -19 -31 3 -58 2 -60 -2 -8 -13 68 -19 127 -11 60 8 79 17 63 29 -6 4
-10 13 -10 20 0 7 -36 26 -80 41 -86 30 -145 61 -145 75 0 23 75 147 110 181
l39 38 83 -78 c82 -79 109 -86 67 -18 l-23 38 32 -24 c20 -14 31 -29 28 -37
-12 -30 -30 -184 -22 -191 11 -12 25 17 31 67 3 25 10 68 15 95 5 28 17 88 26
135 20 113 23 120 40 120 10 0 13 -7 9 -22z m610 -272 c13 -22 23 -42 21 -43
-2 -2 -36 29 -76 68 l-73 72 52 -29 c34 -18 61 -42 76 -68z m-1017 -85 c15
-10 37 -22 50 -26 13 -4 21 -9 18 -12 -7 -7 -116 26 -116 36 0 8 11 21 18 21
2 0 16 -8 30 -19z m-134 -130 c4 -5 3 -16 0 -25 -5 -14 -9 -14 -35 0 -16 8
-27 19 -24 24 8 13 52 13 59 1z m-63 -42 c-2 -8 -6 -35 -8 -61 -5 -41 -2 -50
21 -73 34 -34 29 -66 -7 -43 -40 27 -55 119 -30 185 7 18 29 10 24 -8z m49
-36 c0 -40 -13 -92 -21 -87 -10 6 -12 88 -2 97 12 12 23 7 23 -10z m849 -22
c18 -11 8 -64 -19 -109 -15 -24 -27 -32 -43 -30 -19 3 -22 9 -21 48 1 77 11
100 42 100 15 0 33 -4 41 -9z m227 -133 c22 -35 -13 -137 -63 -184 -26 -24
-93 -34 -93 -14 0 15 42 124 53 138 17 22 27 13 27 -24 0 -29 -8 -44 -36 -70
-34 -33 -35 -34 -11 -34 43 0 76 35 83 91 4 27 11 52 15 55 5 3 9 10 9 16 0 7
-14 8 -40 4 -41 -6 -50 0 -28 22 15 15 75 16 84 0z m-1113 -299 c-4 -4 -6 18
-3 49 l5 57 3 -49 c2 -27 0 -52 -5 -57z m973 -104 c-11 -80 -24 -145 -28 -145
-4 0 -5 12 -3 28 9 51 35 235 35 249 0 7 4 13 8 13 4 0 -1 -65 -12 -145z"/>
<path d="M3211 7826 c-6 -7 -8 -21 -5 -30 8 -21 61 -49 80 -42 23 9 16 43 -12
65 -31 24 -47 26 -63 7z"/>
<path d="M3793 7724 c-35 -15 2 -54 52 -54 27 0 44 25 29 40 -12 12 -65 21
-81 14z"/>
<path d="M3469 7606 c-9 -20 -10 -29 -1 -38 8 -8 14 -4 23 16 9 20 10 29 1 38
-8 8 -14 4 -23 -16z"/>
<path d="M3207 7498 c30 -40 68 -190 82 -327 6 -58 13 -107 15 -109 11 -10 26
11 27 36 0 27 0 27 10 4 5 -14 14 -20 20 -16 8 5 10 44 6 133 -3 85 -2 108 3
71 5 -30 10 -91 12 -134 2 -52 7 -81 16 -84 6 -2 12 3 12 12 0 31 20 15 21
-16 1 -68 18 6 20 92 l3 85 3 -74 c4 -66 5 -72 18 -55 14 18 14 18 15 1 0 -11
5 -15 11 -11 8 5 10 37 5 107 -3 55 -7 101 -9 102 -1 2 -12 6 -24 9 -17 6 -23
3 -23 -8 0 -24 -18 -19 -22 6 -5 32 -26 33 -31 1 -4 -26 -4 -26 -6 5 -1 29 -4
33 -22 27 -12 -4 -19 -3 -16 1 9 17 -13 56 -28 50 -10 -4 -15 1 -15 15 0 17 4
20 24 15 13 -3 56 -10 97 -16 79 -11 137 -25 156 -38 14 -9 43 -74 43 -97 0
-19 -20 -15 -42 8 -9 11 -21 17 -25 14 -13 -8 -16 -217 -3 -217 5 0 11 21 12
48 1 37 2 40 5 14 7 -52 35 -38 49 23 17 73 16 30 -1 -61 -8 -43 -12 -80 -9
-83 10 -10 43 40 55 82 16 60 6 203 -18 257 -32 71 -44 77 -183 94 -69 9 -151
23 -183 31 -72 19 -93 19 -80 3z m200 -265 c-3 -10 -5 -2 -5 17 0 19 2 27 5
18 2 -10 2 -26 0 -35z"/>
<path d="M3070 7451 c-6 -16 -9 -38 -6 -49 15 -46 76 -32 76 18 0 37 -18 49
-22 15 -4 -37 -23 -26 -21 13 3 40 -11 42 -27 3z"/>
<path d="M3514 7304 c3 -9 6 -58 6 -110 0 -61 4 -93 10 -89 11 7 14 155 4 193
-4 12 -11 22 -16 22 -6 0 -7 -7 -4 -16z"/>
<path d="M3096 7248 c-24 -34 -20 -75 8 -93 34 -22 56 -10 56 32 0 20 -4 32
-10 28 -5 -3 -10 -13 -10 -21 0 -8 -7 -14 -16 -14 -14 0 -16 7 -11 45 7 51 5
54 -17 23z"/>
<path d="M3706 7148 c-20 -29 -20 -54 0 -62 25 -10 42 -7 58 10 18 17 22 64 6
64 -5 0 -10 -9 -10 -19 0 -25 -18 -37 -33 -22 -8 8 -8 14 1 23 7 7 12 16 12
20 0 16 -19 8 -34 -14z"/>
<path d="M504 8406 c-9 -23 31 -89 80 -134 25 -23 50 -42 55 -42 5 0 11 -11
13 -25 3 -15 1 -25 -7 -25 -43 0 -130 -43 -196 -97 -41 -33 -88 -68 -106 -77
-40 -20 -109 -21 -147 -1 -32 17 -46 12 -46 -16 0 -45 84 -122 163 -150 28
-10 36 -17 31 -29 -4 -8 -9 -58 -12 -110 -5 -105 -13 -123 -71 -147 -23 -10
-49 -12 -82 -8 -40 6 -50 4 -55 -10 -17 -42 114 -125 202 -128 l45 -1 -6 -41
c-9 -55 -27 -70 -83 -70 -67 0 -69 -25 -5 -66 44 -28 53 -30 116 -26 38 2 67
0 67 -5 0 -5 13 -29 30 -53 16 -24 30 -46 30 -48 0 -2 -11 -2 -23 0 -18 4 -54
-16 -136 -72 -62 -43 -115 -84 -118 -91 -3 -8 1 -21 8 -30 17 -21 87 -56 104
-52 31 7 245 174 245 191 0 31 19 18 62 -45 130 -192 295 -269 491 -229 120
25 241 108 288 197 31 58 75 183 84 238 5 29 9 36 18 27 12 -12 126 -14 255
-4 l82 6 31 54 c46 80 40 83 -140 83 -104 0 -151 -4 -160 -12 -11 -11 -12 -5
-7 33 4 25 2 67 -4 92 l-10 47 40 37 c28 24 40 43 38 57 -3 18 -9 21 -48 18
-51 -3 -57 0 -90 47 -17 25 -20 36 -11 39 45 15 121 120 121 167 0 24 -28 30
-50 10 -10 -9 -36 -19 -58 -22 l-39 -5 -42 85 c-26 56 -53 95 -74 111 -20 15
-39 42 -47 65 -7 22 -26 56 -42 75 -24 29 -40 37 -89 47 -39 8 -63 18 -70 30
-5 10 -30 32 -55 49 -55 39 -124 48 -227 30 -86 -14 -208 -1 -272 30 -49 24
-64 25 -71 6z m308 -135 c50 -21 128 -101 128 -131 0 -31 -17 -24 -23 10 -6
27 -56 72 -143 127 -29 18 -11 15 38 -6z m232 -86 c38 -50 31 -54 -14 -10 -22
21 -40 43 -40 47 0 15 30 -5 54 -37z m201 -112 l-8 -28 -7 32 c-4 18 -5 45 -2
60 l6 28 9 -32 c5 -17 6 -44 2 -60z m-371 43 c-4 -11 10 -14 75 -13 45 0 83
-2 86 -5 4 -3 -3 -31 -13 -62 -19 -56 -16 -70 8 -41 10 12 16 13 26 4 16 -13
18 -87 4 -109 -7 -11 -10 -2 -10 33 0 50 -15 64 -26 23 -5 -22 13 -236 20
-244 2 -1 11 0 20 4 14 5 17 19 16 68 -3 114 11 209 33 233 26 29 41 19 34
-23 -4 -24 -2 -32 5 -28 24 15 58 12 58 -5 0 -22 -63 -153 -100 -208 -41 -60
-62 -103 -52 -103 13 0 80 98 146 212 56 99 63 114 47 104 -5 -3 -11 7 -13 23
-4 26 -2 28 14 17 11 -6 50 -58 87 -116 58 -88 74 -123 102 -220 33 -111 34
-121 33 -275 -3 -323 -64 -463 -232 -530 -207 -83 -388 -34 -511 138 -41 59
-151 273 -151 296 0 10 -59 46 -65 39 -2 -2 -1 -15 2 -30 6 -32 19 -37 26 -10
3 12 8 8 20 -19 9 -19 18 -48 22 -65 l6 -29 -25 30 c-14 16 -28 27 -31 24 -8
-9 35 -59 50 -59 8 0 19 -10 26 -21 7 -14 7 -19 0 -15 -5 4 -19 1 -30 -6 -26
-16 -42 -2 -76 65 -29 58 -34 150 -11 182 13 18 15 18 41 1 15 -10 28 -16 30
-14 1 2 -3 37 -11 78 -17 96 -17 149 0 287 13 102 18 120 58 188 23 41 51 77
60 81 10 3 37 21 60 41 47 39 127 93 140 93 4 0 5 -6 2 -14z m465 -128 c1 -20
-3 -40 -9 -43 -6 -4 -10 17 -9 57 0 68 17 56 18 -14z m-772 -19 c-30 -16 -75
-31 -99 -34 l-43 -5 30 14 c17 9 39 15 50 16 11 0 38 11 60 24 22 13 44 22 49
19 5 -4 -16 -19 -47 -34z m-48 -328 c-6 -18 -31 -47 -57 -66 -54 -42 -81 -47
-31 -6 19 16 48 48 63 70 33 47 41 48 25 2z m1032 -143 c15 -36 16 -120 2
-155 -6 -16 -12 -20 -23 -13 -13 8 -13 13 3 39 23 38 22 68 -3 81 -24 13 -26
30 -5 30 8 0 15 5 15 11 0 6 -6 9 -14 6 -15 -6 -30 16 -19 27 14 14 31 4 44
-26z m-21 -83 c0 -8 -4 -17 -10 -20 -6 -4 -10 5 -10 20 0 15 4 24 10 20 6 -3
10 -12 10 -20z m-1070 -58 c0 -7 -13 -21 -30 -30 -37 -23 -39 -14 -2 18 32 29
32 29 32 12z m1320 -26 c0 -6 -4 -13 -10 -16 -5 -3 -10 -17 -10 -31 0 -24 -1
-24 -86 -24 l-86 0 38 40 c36 38 41 40 96 40 32 0 58 -4 58 -9z m71 -33 c-22
-36 -64 -49 -74 -25 -10 27 21 57 60 57 l35 0 -21 -32z m-321 2 c0 -5 -4 -10
-10 -10 -5 0 -10 5 -10 10 0 6 5 10 10 10 6 0 10 -4 10 -10z m-1002 -269 c11
-6 -31 -42 -95 -84 -8 -5 -25 1 -43 14 l-30 22 48 33 c46 33 79 37 120 15z
m-134 -97 c3 -7 -2 -18 -10 -25 -12 -10 -22 -9 -52 5 l-37 18 23 19 c19 15 28
16 47 7 13 -6 26 -17 29 -24z"/>
<path d="M750 7994 c0 -3 5 -15 11 -27 10 -21 10 -21 -5 -3 -33 42 -27 3 15
-86 46 -99 83 -159 131 -214 31 -35 65 -47 54 -19 -3 8 -1 15 4 15 6 0 10 -4
10 -10 0 -12 30 -13 49 -1 12 8 12 29 2 137 -6 71 -15 140 -18 154 -6 25 -6
25 -13 -5 l-8 -30 -1 28 c0 15 -6 27 -12 27 -6 0 -9 -7 -5 -15 3 -8 8 -56 10
-107 l6 -93 -15 105 c-16 108 -39 166 -30 75 2 -28 2 -41 -1 -30 -10 35 -24
41 -25 10 0 -24 -4 -18 -16 25 -19 64 -20 67 -33 54 -10 -10 30 -164 48 -187
12 -15 41 -127 33 -127 -3 0 -43 74 -89 165 -46 91 -88 165 -93 165 -5 0 -9
-3 -9 -6z m197 -186 c-2 -13 -4 -3 -4 22 0 25 2 35 4 23 2 -13 2 -33 0 -45z
m50 30 c-3 -7 -5 -2 -5 12 0 14 2 19 5 13 2 -7 2 -19 0 -25z m10 -125 c-2 -16
-4 -5 -4 22 0 28 2 40 4 28 2 -13 2 -35 0 -50z m-50 25 c-3 -7 -5 -2 -5 12 0
14 2 19 5 13 2 -7 2 -19 0 -25z m30 -55 c-3 -10 -5 -4 -5 12 0 17 2 24 5 18 2
-7 2 -21 0 -30z"/>
<path d="M621 7808 c-2 -48 -6 -68 -13 -68 -11 0 3 -32 26 -60 14 -16 15 -20
4 -11 -25 19 -23 -2 2 -24 11 -10 18 -21 15 -23 -11 -11 39 -52 63 -52 22 0
23 2 11 17 -13 15 -11 16 19 10 22 -4 32 -3 33 6 0 6 4 3 8 -8 6 -15 4 -22 -9
-27 -85 -33 72 -688 165 -688 7 0 33 18 57 40 71 62 152 87 225 67 31 -8 46
-8 54 0 7 7 3 57 -15 169 -13 87 -32 210 -40 273 -9 63 -20 119 -24 123 -5 5
-36 0 -73 -13 -93 -32 -218 -32 -276 1 -24 13 -43 28 -43 33 0 9 9 7 63 -10
35 -11 16 15 -25 33 -54 24 -155 125 -188 187 -28 52 -37 58 -39 25z m64 -178
c10 -11 16 -20 13 -20 -3 0 -13 9 -23 20 -10 11 -16 20 -13 20 3 0 13 -9 23
-20z m145 -156 c0 -42 -1 -44 -20 -34 -15 8 -20 21 -20 56 0 42 1 44 20 34 15
-8 20 -21 20 -56z m361 8 c6 -28 -4 -52 -22 -52 -10 0 -21 68 -14 81 12 18 29
4 36 -29z m-304 14 c1 -1 5 -21 9 -45 7 -42 6 -43 -17 -36 -29 9 -25 2 -33 53
-6 42 -6 43 16 37 13 -4 24 -8 25 -9z m251 -28 c6 -23 10 -43 9 -44 -1 -1 -11
-4 -23 -8 -18 -5 -22 0 -31 38 -10 46 -9 48 28 55 4 0 11 -18 17 -41z m-64
-25 c1 -32 -2 -38 -21 -41 -18 -3 -23 1 -23 20 0 13 -3 33 -6 45 -4 15 -1 22
13 25 26 6 35 -6 37 -49z m-124 25 c0 -13 3 -33 6 -45 5 -18 2 -23 -14 -23
-14 0 -21 9 -26 31 -10 50 -7 59 14 59 14 0 20 -7 20 -22z m56 -5 c3 -16 8
-36 11 -45 3 -13 -1 -18 -16 -18 -14 0 -22 8 -27 28 -3 15 -8 35 -11 45 -3 12
1 17 16 17 14 0 22 -8 27 -27z m-186 -55 c0 -6 -6 -5 -15 2 -8 7 -15 14 -15
16 0 2 7 1 15 -2 8 -4 15 -11 15 -16z m366 -4 c-11 -7 -22 -11 -25 -8 -3 3 3
12 13 20 11 7 22 11 25 8 3 -3 -3 -12 -13 -20z m-76 -14 c0 -5 -5 -10 -11 -10
-5 0 -7 5 -4 10 3 6 8 10 11 10 2 0 4 -4 4 -10z m-80 -21 c6 -11 9 -30 7 -42
-4 -19 -4 -18 -6 5 -1 30 -21 49 -21 21 0 -15 -2 -16 -10 -3 -5 8 -10 21 -10
28 0 20 28 14 40 -9z m50 17 c0 -3 -4 -8 -10 -11 -5 -3 -10 -1 -10 4 0 6 5 11
10 11 6 0 10 -2 10 -4z m-273 -48 c-3 -8 -6 -5 -6 6 -1 11 2 17 5 13 3 -3 4
-12 1 -19z m210 -30 c-3 -8 -6 -5 -6 6 -1 11 2 17 5 13 3 -3 4 -12 1 -19z
m-189 -63 l1 -20 -9 20 c-5 11 -8 34 -8 50 l0 30 8 -30 c4 -16 8 -39 8 -50z
m199 23 c-3 -8 -6 -5 -6 6 -1 11 2 17 5 13 3 -3 4 -12 1 -19z m50 -30 c-3 -8
-6 -5 -6 6 -1 11 2 17 5 13 3 -3 4 -12 1 -19z m-40 -25 c-3 -10 -5 -4 -5 12 0
17 2 24 5 18 2 -7 2 -21 0 -30z m-200 -25 c-3 -7 -5 -2 -5 12 0 14 2 19 5 13
2 -7 2 -19 0 -25z m362 -27 c1 41 28 45 36 6 4 -18 8 -39 11 -48 3 -12 -11
-18 -73 -27 -92 -15 -195 -45 -241 -72 -18 -11 -35 -20 -37 -20 -4 0 -25 60
-25 71 0 5 12 3 26 -3 22 -10 28 -10 38 3 6 9 17 14 24 12 6 -3 12 0 12 7 0 6
4 9 9 6 13 -8 23 23 16 48 -6 21 -6 21 10 1 16 -19 16 -18 11 20 -6 40 -6 40
9 -7 19 -59 29 -62 22 -5 -3 23 -3 34 0 24 3 -13 11 -17 24 -14 10 3 19 1 19
-5 0 -5 5 -6 10 -3 6 3 10 -1 10 -9 0 -24 17 -19 24 7 l7 22 9 -22 c14 -34 23
-28 16 10 -9 48 7 56 21 10 10 -32 12 -34 12 -12z m-262 7 c-3 -8 -6 -5 -6 6
-1 11 2 17 5 13 3 -3 4 -12 1 -19z m274 -121 c5 -20 4 -27 -7 -27 -15 0 -35
39 -27 53 9 15 27 1 34 -26z m42 1 c2 -18 3 -35 1 -37 -7 -8 -21 13 -28 42 -5
20 -3 27 8 27 8 0 16 -14 19 -32z m-93 13 c0 -5 3 -16 6 -25 4 -12 0 -16 -15
-16 -16 0 -21 6 -21 25 0 16 6 25 15 25 8 0 15 -4 15 -9z m-47 -23 c6 -20 -6
-37 -25 -38 -5 0 -8 14 -8 30 0 36 25 41 33 8z m-49 -15 c7 -26 -8 -46 -29
-40 -16 5 -18 49 -3 58 21 13 25 11 32 -18z m-60 -9 c9 -24 7 -54 -4 -54 -5 0
-10 6 -10 13 0 6 -3 22 -6 35 -7 25 11 31 20 6z m-31 -44 c6 -24 5 -35 -5 -41
-9 -6 -16 2 -24 29 -6 20 -9 41 -6 45 8 16 26 0 35 -33z m-45 -17 c15 -49 6
-56 -13 -10 -17 42 -18 47 -7 47 5 0 14 -17 20 -37z"/>
<path d="M1299 7766 c-35 -46 -61 -69 -112 -96 -70 -37 -86 -55 -39 -44 26 6
26 6 7 -9 -11 -9 -18 -17 -15 -18 37 -8 62 -2 108 27 82 53 139 110 136 136
-1 13 -3 30 -4 38 0 9 -17 -2 -42 -30 l-40 -45 31 47 c46 69 23 65 -30 -6z"/>
<path d="M1020 7585 c0 -14 4 -25 9 -25 12 0 23 29 15 41 -10 18 -24 9 -24
-16z"/>
<path d="M595 7471 c-9 -29 5 -52 29 -49 14 2 22 12 24 28 3 20 1 23 -9 13
-19 -19 -31 -16 -24 7 3 11 2 20 -4 20 -5 0 -12 -8 -16 -19z"/>
<path d="M630 7296 c0 -33 25 -53 45 -36 16 14 21 60 6 60 -5 0 -12 -10 -14
-22 l-4 -23 -8 23 c-10 29 -25 28 -25 -2z"/>
<path d="M1106 6965 c-29 -16 -58 -46 -50 -54 2 -3 10 3 17 13 13 18 32 24 87
26 33 1 34 1 16 15 -25 19 -34 19 -70 0z"/>
<path d="M6285 5771 c-16 -10 -61 -43 -99 -74 -62 -52 -73 -57 -117 -57 -39 0
-55 -5 -79 -27 -27 -25 -103 -168 -140 -263 -7 -19 -40 -63 -72 -97 -67 -71
-69 -83 -33 -188 l24 -70 -38 -70 c-53 -98 -107 -191 -168 -286 -55 -85 -64
-118 -38 -139 16 -13 87 -1 152 26 l32 14 -16 -38 c-8 -20 -35 -76 -59 -125
-36 -71 -42 -91 -34 -107 6 -12 21 -20 35 -20 21 0 25 -5 25 -28 0 -59 38 -67
88 -19 l33 32 22 -27 c12 -14 37 -44 55 -67 46 -57 84 -40 97 47 3 23 10 42
15 42 4 0 21 -20 36 -44 43 -69 77 -68 108 2 l18 39 51 -20 c81 -32 201 -30
296 6 41 15 76 27 79 27 2 0 1 -25 -3 -56 -5 -45 -3 -59 11 -75 26 -28 44 -24
101 26 28 25 53 45 56 45 2 0 16 -18 31 -40 24 -37 98 -100 117 -100 23 0 39
35 39 84 0 46 4 56 31 80 l31 28 57 -61 c79 -85 121 -79 136 21 l7 47 30 -15
c33 -17 64 -11 73 15 3 9 23 28 45 40 55 30 54 63 -5 173 -54 102 -70 170 -85
363 -10 142 -25 227 -48 286 -6 15 -18 69 -27 120 -9 52 -21 122 -27 157 -12
75 -34 96 -107 106 -49 6 -51 8 -98 82 -80 127 -98 144 -149 144 -25 0 -73 -7
-108 -16 l-63 -16 -64 32 c-77 39 -183 80 -207 80 -9 0 -30 -8 -47 -19z m26
-556 c-7 -33 -9 -21 -10 71 -1 61 2 114 7 118 11 12 14 -143 3 -189z m145 76
c-14 -27 -23 -50 -21 -52 2 -2 -10 -20 -26 -39 l-30 -35 19 40 c10 22 32 74
48 115 24 63 29 70 32 47 2 -16 -7 -49 -22 -76z m-324 -163 c27 -54 46 -98 44
-98 -6 0 -89 127 -110 168 -11 20 -14 41 -10 55 7 22 7 22 17 -3 6 -14 33 -69
59 -122z m452 30 c-42 -44 -256 -228 -266 -228 -21 0 0 26 117 144 69 69 133
138 142 153 l18 27 9 -33 c8 -28 6 -35 -20 -63z m-535 -1 c35 -61 109 -155
136 -173 13 -8 26 -22 29 -30 4 -11 -1 -10 -22 5 -83 60 -214 241 -174 241 4
0 18 -19 31 -43z m-16 -72 c65 -88 146 -164 182 -169 8 -1 25 -16 38 -32 27
-37 53 -64 62 -64 3 0 5 19 3 43 -2 35 0 42 14 39 10 -2 79 29 153 68 74 38
138 70 141 70 4 0 4 -29 2 -65 -3 -36 -2 -65 2 -65 8 0 83 103 116 157 10 15
13 9 24 -42 l12 -59 -60 -150 c-33 -83 -59 -153 -56 -157 2 -5 18 -3 35 3 16
6 32 8 35 6 13 -14 -105 -284 -133 -305 -25 -19 -29 -16 -31 20 -1 17 -12 83
-24 146 -27 145 -42 166 -120 164 -53 -1 -203 -23 -307 -45 l-53 -12 5 -55 c4
-31 9 -93 13 -139 8 -91 14 -99 89 -107 17 -2 73 -10 125 -19 52 -9 122 -16
155 -17 l60 -1 -32 -14 c-60 -26 -168 -38 -226 -25 -76 17 -164 62 -221 112
-79 70 -111 159 -129 353 -5 49 -5 50 13 27 25 -34 29 -17 20 69 -5 41 -9 98
-9 125 l0 50 28 -61 c16 -34 34 -64 40 -68 6 -4 11 -15 11 -26 0 -10 7 -21 16
-24 40 -15 163 7 171 31 3 7 -24 13 -81 18 -96 8 -111 18 -146 97 -11 26 -25
50 -30 53 -17 11 -11 47 16 92 14 25 27 43 29 41 2 -2 23 -30 48 -63z m597 27
c0 -30 0 -30 -115 -92 -44 -24 -73 -36 -65 -27 28 29 165 146 173 147 4 0 7
-12 7 -28z m360 -236 c-40 -66 -47 -55 -16 28 30 82 31 83 34 45 2 -27 -4 -51
-18 -73z m-505 -239 c8 -12 19 -52 24 -89 5 -36 14 -75 20 -85 5 -11 13 -43
17 -71 6 -44 4 -53 -11 -58 -27 -11 -288 15 -301 29 -16 16 -28 104 -15 111
17 11 61 -13 61 -33 0 -31 11 -51 27 -51 12 0 14 8 9 39 l-6 38 42 7 c43 7 58
-2 58 -36 0 -28 11 -48 27 -48 11 0 13 7 8 33 -4 17 -8 37 -9 42 0 6 14 9 32
8 43 -2 37 21 -7 25 -18 2 -34 9 -35 15 -31 111 -52 132 -43 42 l6 -55 -44 0
c-42 0 -43 1 -50 37 -11 58 -20 62 -25 13 -4 -40 -8 -45 -33 -48 -28 -3 -30 0
-41 51 -9 41 -26 33 -26 -13 0 -33 -3 -40 -20 -40 -24 0 -40 28 -40 73 0 50 1
50 155 81 11 2 62 4 112 5 86 1 94 -1 108 -22z m-302 -219 c4 -28 5 -53 4 -54
-1 -1 -14 0 -29 3 -26 5 -28 9 -28 54 0 45 2 49 24 49 21 0 24 -6 29 -52z"/>
<path d="M6706 4964 c-48 -65 -116 -118 -166 -131 -14 -4 -59 1 -100 9 -78 16
-96 15 -69 -5 9 -7 16 -16 17 -22 1 -15 84 -37 96 -25 6 6 19 10 31 10 82 0
256 155 243 216 -2 8 -24 -14 -52 -52z"/>
<path d="M6704 4899 c-21 -23 -58 -54 -82 -71 -50 -34 -50 -51 0 -20 39 24
134 119 127 127 -3 2 -23 -14 -45 -36z"/>
<path d="M5940 4893 c1 -14 30 -47 36 -41 6 7 -17 48 -28 48 -5 0 -8 -3 -8 -7z"/>
<path d="M1449 5741 c-31 -24 -126 -64 -206 -86 -72 -20 -112 -11 -140 32 -13
20 -23 23 -77 23 -71 0 -189 -30 -263 -67 l-52 -26 -53 33 c-29 18 -72 48 -96
67 -24 20 -49 32 -57 29 -17 -6 -20 -39 -5 -67 9 -15 7 -19 -6 -19 -13 0 -15
-6 -11 -28 5 -24 2 -30 -25 -40 -29 -10 -30 -13 -23 -49 3 -21 15 -58 26 -82
24 -55 18 -75 -31 -106 -37 -23 -38 -26 -49 -107 -7 -46 -18 -138 -25 -206 -8
-80 -17 -127 -27 -136 -7 -8 -49 -19 -92 -23 -72 -9 -80 -8 -115 14 -20 12
-40 23 -45 23 -4 0 -17 -20 -29 -44 l-21 -44 53 -87 c29 -47 58 -89 66 -92 16
-6 74 -104 74 -125 0 -21 39 -68 56 -68 8 0 45 21 83 46 61 40 73 45 117 42
l49 -3 3 -65 c2 -58 0 -71 -24 -105 -112 -162 -112 -161 -57 -150 100 19 97
19 90 1 -4 -9 1 -35 10 -57 11 -28 14 -56 10 -89 -4 -29 -2 -52 4 -56 5 -3 28
11 51 31 46 42 58 36 58 -26 0 -47 24 -70 40 -38 7 12 30 42 52 66 45 48 68
45 68 -7 0 -61 26 -79 54 -38 l16 22 16 -22 c8 -12 18 -22 22 -22 4 0 25 36
47 81 21 44 42 82 46 84 3 3 22 -19 42 -49 21 -32 49 -59 70 -69 58 -28 67
-24 67 33 0 51 8 61 30 35 15 -18 46 -20 56 -3 4 6 10 25 14 42 l6 31 32 -32
c18 -17 32 -38 32 -46 0 -8 6 -20 14 -26 25 -21 40 15 39 95 -2 67 0 72 15 62
9 -6 31 -29 47 -52 43 -58 60 -54 60 12 0 35 4 52 13 52 7 0 12 14 12 35 0 19
1 35 3 35 1 0 31 -9 65 -20 114 -36 155 -21 113 39 -18 25 -20 33 -10 49 10
15 9 24 -4 43 -23 32 -21 42 7 35 35 -9 41 9 16 51 -12 20 -17 40 -12 45 4 4
48 13 95 19 96 13 103 21 45 54 -19 11 -50 31 -68 45 -29 23 -31 29 -22 47 10
18 8 23 -11 36 -24 16 -97 83 -97 90 0 2 12 2 28 0 34 -5 102 23 102 42 0 8
-22 26 -49 39 -51 26 -118 95 -155 158 -11 21 -27 38 -33 38 -16 0 -17 -34 -1
-63 24 -47 100 -137 129 -154 l31 -18 -53 -5 c-29 -3 -54 -10 -56 -17 -2 -6
24 -41 58 -77 52 -56 59 -68 49 -81 -11 -13 -7 -22 24 -54 37 -38 37 -38 14
-45 -13 -3 -42 -6 -65 -6 -39 0 -43 -2 -43 -24 0 -13 7 -29 15 -36 19 -16 19
-31 0 -24 -25 10 -28 -22 -7 -69 15 -33 17 -48 9 -56 -8 -8 -8 -19 0 -41 15
-39 5 -39 -74 5 -35 19 -68 35 -73 35 -6 0 -10 -14 -10 -31 0 -19 -4 -28 -11
-23 -26 16 -32 -38 -12 -111 4 -14 -10 -5 -45 28 -75 69 -86 65 -77 -27 l7
-74 -58 54 c-60 56 -77 62 -82 28 -11 -72 -17 -76 -63 -43 -16 11 -33 17 -39
14 -5 -3 -10 -28 -10 -56 0 -27 -4 -49 -9 -49 -5 0 -19 17 -32 38 -29 48 -70
93 -80 86 -4 -2 -25 -39 -46 -82 -28 -59 -38 -72 -41 -54 -4 25 -28 29 -52 7
-14 -13 -16 -12 -17 6 -2 23 -30 59 -45 59 -6 0 -28 -16 -51 -35 l-40 -35 -19
30 c-10 17 -20 30 -23 30 -2 0 -19 -9 -37 -20 -18 -11 -36 -20 -40 -20 -5 0
-8 20 -8 44 0 26 -6 48 -14 56 -8 6 -16 30 -18 53 -3 44 -9 48 -58 32 l-25 -8
27 34 c14 19 34 33 43 33 14 -2 16 10 14 82 -1 47 1 87 4 91 11 10 147 -56
214 -104 35 -24 63 -40 63 -34 0 9 -115 92 -212 152 -28 17 -71 31 -122 40
-62 9 -74 14 -60 22 22 12 231 37 250 30 8 -3 14 -1 14 5 0 6 -22 13 -49 17
-48 6 -49 7 -61 53 -16 56 -37 102 -49 102 -5 0 -14 -20 -21 -45 -11 -38 -18
-46 -49 -56 -20 -6 -40 -16 -46 -22 -7 -7 -4 -8 8 -3 82 28 93 4 20 -42 -27
-17 -84 -55 -128 -86 l-80 -55 -13 25 c-8 14 -11 28 -8 32 3 3 6 0 6 -6 0 -7
7 -12 15 -12 14 0 20 23 17 75 0 13 5 8 16 -15 15 -33 16 -34 20 -11 2 14 -2
43 -9 64 -13 39 -12 40 16 63 34 27 27 32 -11 8 -13 -9 -27 -14 -31 -11 -3 3
15 16 41 29 25 12 46 26 46 30 0 5 -22 -3 -49 -17 -42 -21 -50 -22 -55 -9 -11
28 -7 32 67 60 78 29 83 32 76 39 -3 2 -40 -9 -83 -25 -43 -17 -82 -28 -87
-24 -18 11 -8 23 25 29 18 4 45 19 60 33 35 34 76 98 76 118 0 14 52 241 66
289 4 14 3 17 -4 10 -12 -11 -72 -246 -72 -282 0 -12 -3 -24 -8 -27 -7 -4 -1
100 13 244 7 64 7 65 82 140 42 41 66 61 54 43 -11 -17 -21 -35 -21 -40 0 -10
48 46 58 68 8 18 119 121 170 157 46 34 139 68 222 83 l71 12 22 -25 c12 -15
42 -36 66 -48 l44 -22 61 25 c117 48 200 77 205 71 3 -3 -2 -26 -11 -51 -20
-55 -15 -67 23 -59 l29 6 -25 -38 -26 -37 23 -8 c22 -8 21 -10 -29 -65 -29
-30 -53 -64 -53 -74 0 -26 30 -35 45 -14 10 13 14 14 18 2 3 -7 46 -37 95 -65
76 -43 122 -83 122 -106 0 -3 -11 -5 -24 -5 -31 0 -42 -16 -19 -28 26 -14 102
-21 108 -11 10 15 -33 87 -78 130 -53 52 -140 109 -166 109 -35 0 -31 15 21
80 l51 63 -23 17 -23 17 24 32 c18 25 21 35 12 49 -6 9 -20 16 -32 15 -19 -3
-20 1 -14 25 11 40 10 95 -3 99 -6 2 -22 -5 -35 -16z m-804 -139 c23 -12 8
-35 -59 -88 -75 -60 -75 -60 -91 -20 -19 45 -20 42 15 55 19 6 30 17 30 29 0
11 7 23 16 26 12 5 14 14 9 38 l-8 32 36 -31 c20 -17 43 -36 52 -41z m-469
-788 c29 -30 67 -83 84 -116 l33 -61 -34 25 c-19 13 -54 36 -79 50 -25 14 -60
45 -79 68 -29 36 -32 45 -22 66 16 37 40 29 97 -32z m94 26 c-33 -11 -60 -12
-60 -2 0 4 19 8 43 9 34 1 37 0 17 -7z m335 -148 c5 -25 2 -33 -15 -42 -40
-22 -49 5 -29 87 l12 45 12 -29 c7 -17 16 -44 20 -61z m-346 -95 c0 -27 -2
-29 -9 -12 -4 11 -24 36 -44 54 -50 48 -45 58 9 21 38 -26 45 -36 44 -63z"/>
<path d="M3595 5750 c-135 -24 -254 -77 -348 -156 -26 -21 -57 -35 -100 -44
-128 -27 -127 -25 -126 -245 l1 -180 -80 -242 c-103 -309 -115 -366 -110 -496
6 -145 47 -231 97 -200 9 5 21 25 27 43 l11 33 23 -41 c27 -49 72 -75 120 -70
27 2 36 8 38 25 3 21 4 21 32 5 24 -14 33 -15 47 -5 10 7 32 19 48 26 17 8 38
24 48 35 18 19 21 20 59 6 51 -18 124 -17 208 1 36 8 68 14 71 15 4 0 9 -18
12 -40 6 -47 47 -129 71 -145 24 -15 50 6 54 44 l3 32 28 -38 c47 -64 88 -103
109 -103 32 0 45 25 39 75 -4 25 -3 45 1 45 14 0 101 -75 142 -122 44 -50 77
-61 100 -33 7 9 10 27 7 45 -6 27 -3 32 32 50 21 10 57 40 79 65 l40 45 7 -77
c7 -83 16 -103 46 -103 57 0 104 181 79 305 -14 67 -14 65 -4 157 10 103 -37
304 -95 398 -14 24 -21 51 -21 89 0 54 -51 345 -72 411 -19 60 -79 142 -167
231 -66 65 -104 94 -164 124 -77 38 -79 39 -210 41 -73 2 -154 -1 -182 -6z
m-57 -307 c-1 -95 -3 -116 -9 -83 -13 79 -9 210 7 210 2 0 3 -57 2 -127z
m-275 -202 c43 -62 141 -146 158 -136 5 4 -2 23 -14 43 -29 46 -60 123 -52
130 3 3 5 0 5 -6 0 -21 74 -95 134 -134 45 -29 55 -39 42 -44 -10 -4 -15 -12
-12 -19 3 -8 -2 -16 -9 -19 -8 -3 -12 -12 -9 -19 4 -11 17 -13 48 -10 51 6
200 -12 274 -33 41 -12 52 -19 48 -32 -3 -9 -10 -36 -15 -58 -10 -37 -15 -42
-49 -48 -20 -3 -78 -6 -128 -6 l-92 0 -5 -27 c-3 -16 -2 -32 2 -36 4 -4 46 -7
92 -5 79 3 84 4 81 24 -2 18 3 22 35 26 21 3 39 4 41 3 4 -3 -51 -210 -88
-335 -16 -52 -31 -109 -35 -126 -6 -29 -12 -34 -78 -55 -106 -35 -234 -34
-302 2 -81 43 -149 104 -179 159 -29 54 -55 171 -56 254 l0 49 43 -6 c52 -7
127 2 127 16 0 6 -22 7 -57 3 -32 -3 -71 -2 -88 3 -25 8 -18 9 42 10 75 1 114
20 46 22 -34 1 -32 2 16 9 51 8 81 23 69 36 -3 3 -23 1 -45 -5 -21 -6 -64 -11
-95 -11 l-58 0 0 43 c0 23 3 59 7 80 l6 38 51 -6 c28 -4 74 -14 102 -22 30 -9
60 -13 70 -8 15 6 4 15 -56 42 -41 19 -96 37 -122 40 -27 3 -48 10 -48 15 0
12 144 -15 205 -38 8 -3 15 -2 15 4 0 14 -48 29 -145 45 l-80 13 -3 68 -3 68
36 -37 c40 -43 43 -50 16 -35 -26 13 -31 13 -31 -4 0 -15 82 -50 162 -68 37
-9 51 -8 63 2 23 19 18 27 -19 34 -18 4 -40 14 -49 24 -25 28 -85 173 -62 150
3 -3 25 -33 48 -67z m704 7 c-3 -29 -13 -73 -21 -98 l-16 -45 5 45 c15 129 19
150 28 150 6 0 8 -20 4 -52z m-163 -11 c6 -34 5 -38 -11 -35 -10 2 -18 9 -17
16 1 6 2 26 3 44 1 41 16 26 25 -25z m-230 -26 c32 -30 32 -35 1 -49 -21 -10
-26 -9 -35 8 -5 10 -10 38 -9 62 0 32 2 38 9 23 4 -11 20 -31 34 -44z m263
-86 c20 -14 50 -81 40 -91 -7 -8 -100 30 -104 43 -4 12 22 7 70 -12 9 -4 17
-3 17 3 0 6 -19 17 -42 24 -48 16 -65 48 -26 48 13 0 33 -7 45 -15z m-182 -5
c4 -6 -12 -10 -42 -10 -35 0 -44 3 -33 10 20 13 67 13 75 0z m20 -30 c4 -6
-17 -10 -57 -9 -54 1 -58 3 -28 9 53 11 78 11 85 0z m514 -198 c0 -13 -3 -20
-9 -17 -5 3 -9 27 -9 53 1 42 2 44 9 17 4 -16 8 -40 9 -53z m65 -43 c39 -31
56 -71 56 -136 -1 -109 -37 -156 -139 -178 -30 -6 -33 -5 -27 11 7 16 35 183
36 207 0 21 19 2 33 -33 14 -37 14 -41 -5 -65 -37 -47 -6 -36 35 12 18 21 18
22 -4 52 -32 43 -13 53 22 12 16 -19 31 -32 35 -29 8 9 -10 39 -45 72 -24 23
-34 27 -43 18 -20 -20 -28 -14 -28 21 0 57 29 71 74 36z m-1129 -19 c3 -5 -1
-10 -10 -10 -9 0 -13 5 -10 10 3 6 8 10 10 10 2 0 7 -4 10 -10z m538 -7 c-7
-2 -19 -2 -25 0 -7 3 -2 5 12 5 14 0 19 -2 13 -5z m-3 -23 c11 -7 5 -8 -20 -4
-43 8 -51 14 -19 14 13 0 31 -5 39 -10z m75 0 c-3 -5 -18 -10 -33 -9 l-27 1
25 8 c35 11 42 11 35 0z"/>
<path d="M3400 4992 c0 -18 28 -45 38 -38 18 11 15 36 -3 30 -8 -4 -15 -1 -15
5 0 6 -4 11 -10 11 -5 0 -10 -4 -10 -8z"/>
<path d="M3131 4966 c-15 -18 -6 -52 16 -60 23 -9 44 13 41 43 -4 30 -38 40
-57 17z"/>
<path d="M3562 4968 c-35 -35 14 -102 57 -79 45 25 33 91 -17 91 -16 0 -33 -5
-40 -12z"/>
<path d="M3360 4839 c0 -24 23 -21 28 4 2 10 -3 17 -12 17 -10 0 -16 -9 -16
-21z"/>
<path d="M3710 4688 c-1 -23 -1 -23 -16 -3 -15 19 -15 19 -12 -10 2 -22 8 -30
23 -30 15 0 21 8 23 33 2 18 -1 32 -7 32 -6 0 -11 -10 -11 -22z"/>
<path d="M3382 4656 c-23 -8 -54 -22 -68 -31 -23 -15 -25 -21 -19 -57 18 -105
53 -134 151 -126 74 6 86 20 92 110 4 64 2 75 -16 91 -27 25 -87 30 -140 13z
m122 -32 c16 -16 21 -61 10 -101 -6 -21 -12 -23 -63 -22 -95 2 -115 10 -127
49 -15 44 -6 56 55 74 62 19 106 19 125 0z"/>
<path d="M3680 4524 c0 -11 -6 -14 -20 -9 -14 5 -20 2 -20 -10 0 -24 31 -31
46 -10 16 22 18 45 4 45 -5 0 -10 -7 -10 -16z"/>
<path d="M781 5553 c-121 -85 -261 -212 -261 -236 0 -6 21 11 48 38 52 56 173
154 281 230 39 27 71 51 71 52 0 11 -32 -8 -139 -84z"/>
<path d="M868 5544 c-54 -36 -98 -70 -98 -76 0 -6 7 -5 19 3 17 12 148 103
175 121 6 4 8 9 6 11 -3 3 -49 -24 -102 -59z"/>
<path d="M980 5542 c-87 -50 -152 -93 -147 -98 6 -6 194 103 203 117 8 14 -8
9 -56 -19z"/>
<path d="M1198 5546 c-103 -11 -120 -28 -20 -20 l67 5 -30 -17 c-26 -15 -27
-18 -11 -24 16 -5 15 -7 -9 -18 -36 -16 -23 -32 28 -33 l42 0 -32 -16 c-28
-14 -44 -33 -29 -33 15 0 96 41 96 48 0 5 -19 13 -42 16 -38 6 -41 8 -23 18
29 16 31 18 16 27 -9 6 -4 14 19 28 18 11 28 22 24 24 -5 3 -48 0 -96 -5z"/>
<path d="M1325 5528 c-33 -12 -54 -23 -48 -25 17 -6 113 26 113 38 0 5 -1 9
-2 8 -2 0 -30 -10 -63 -21z"/>
<path d="M689 5413 c-66 -55 -129 -116 -129 -126 0 -4 30 19 68 51 37 33 81
72 97 86 17 14 25 26 19 26 -6 0 -30 -17 -55 -37z"/>
<path d="M1295 5390 c-4 -6 10 -10 34 -10 22 0 43 5 46 10 4 6 -10 10 -34 10
-22 0 -43 -4 -46 -10z"/>
<path d="M695 5320 c-21 -22 -35 -40 -29 -40 5 0 28 18 49 40 21 22 35 40 29
40 -5 0 -28 -18 -49 -40z"/>
<path d="M421 5232 c-7 -24 -10 -49 -8 -55 2 -7 10 7 16 31 7 24 10 49 8 55
-2 7 -10 -7 -16 -31z"/>
<path d="M467 5141 c-26 -97 -49 -236 -27 -166 21 69 61 247 58 257 -2 6 -16
-35 -31 -91z"/>
<path d="M1495 5200 c3 -5 16 -10 28 -10 18 0 19 2 7 10 -20 13 -43 13 -35 0z"/>
<path d="M743 5180 c-12 -5 -71 -16 -130 -25 -59 -9 -114 -22 -122 -30 -18
-18 -8 -51 28 -93 38 -44 107 -54 175 -24 41 18 50 29 76 84 44 93 38 114 -27
88z m27 -24 c0 -21 -23 -56 -36 -56 -13 0 -14 3 -4 15 18 21 -13 21 -34 -1
-20 -20 -12 -34 20 -34 14 0 22 -4 19 -10 -10 -16 -51 -12 -67 8 -9 9 -19 27
-22 40 -7 20 -4 22 31 23 21 0 47 4 58 9 23 10 35 12 35 6z m-150 -35 c0 -5 3
-18 6 -28 5 -16 4 -16 -10 1 -18 23 -20 36 -6 36 6 0 10 -4 10 -9z m-35 -11
c3 -5 1 -10 -4 -10 -6 0 -11 5 -11 10 0 6 2 10 4 10 3 0 8 -4 11 -10z m-45
-10 c0 -5 -2 -10 -4 -10 -3 0 -8 5 -11 10 -3 6 -1 10 4 10 6 0 11 -4 11 -10z
m155 -60 c3 -5 2 -10 -4 -10 -5 0 -13 5 -16 10 -3 6 -2 10 4 10 5 0 13 -4 16
-10z m-100 -10 c3 -5 2 -10 -4 -10 -5 0 -13 5 -16 10 -3 6 -2 10 4 10 5 0 13
-4 16 -10z m55 0 c13 -8 13 -10 -2 -10 -9 0 -20 5 -23 10 -8 13 5 13 25 0z"/>
<path d="M1054 5115 c-17 -42 -17 -47 -2 -80 12 -27 45 -34 66 -13 15 15 16
72 2 63 -5 -3 -10 -14 -10 -25 0 -23 -29 -35 -37 -14 -3 8 -3 35 0 59 2 25 3
45 0 45 -2 0 -11 -16 -19 -35z"/>
<path d="M1520 5071 c0 -9 44 -31 62 -31 16 0 -1 13 -34 28 -16 6 -28 8 -28 3z"/>
<path d="M466 4965 c-10 -33 -21 -72 -26 -87 -5 -17 -5 -28 0 -28 5 0 12 12
16 28 3 15 12 48 21 75 8 26 13 53 10 60 -2 6 -12 -15 -21 -48z"/>
<path d="M1350 4991 c0 -5 6 -14 13 -18 6 -5 28 -25 47 -46 l35 -38 -39 16
c-21 9 -40 15 -41 13 -2 -2 9 -17 25 -35 27 -29 53 -36 29 -6 -9 10 -3 10 24
-2 20 -8 39 -15 43 -15 7 0 -116 133 -128 138 -4 2 -8 -1 -8 -7z"/>
<path d="M1550 4935 c0 -5 55 -35 65 -35 18 0 0 20 -26 29 -36 12 -39 13 -39
6z"/>
<path d="M796 4833 c8 -30 -13 -73 -36 -73 -17 0 -20 7 -20 40 0 22 -4 40 -10
40 -5 0 -10 -20 -10 -45 0 -48 23 -72 59 -60 37 11 56 102 24 112 -7 3 -10 -3
-7 -14z"/>
<path d="M1381 4795 c19 -32 39 -53 39 -41 0 12 -43 76 -51 76 -4 0 1 -16 12
-35z"/>
<path d="M1066 4757 c-7 -30 -5 -42 9 -57 21 -24 48 -26 65 -6 14 17 10 58 -6
63 -7 2 -10 -6 -6 -22 4 -24 2 -26 -19 -23 -20 2 -25 10 -30 43 l-5 40 -8 -38z"/>
<path d="M1339 4743 c20 -34 41 -57 47 -51 7 8 -36 68 -48 68 -5 0 -4 -8 1
-17z"/>
<path d="M630 4728 c0 -5 18 -8 40 -8 22 0 40 2 40 4 0 2 -18 6 -40 8 -22 2
-40 0 -40 -4z"/>
<path d="M1574 4723 c8 -26 25 -106 26 -117 0 -5 -14 12 -31 37 -28 42 -58 74
-48 51 10 -23 95 -144 101 -144 4 0 3 12 -2 28 -4 15 -11 47 -15 72 l-6 44 26
-24 c35 -33 31 -16 -7 30 -35 42 -53 51 -44 23z"/>
<path d="M1352 4582 c2 -4 16 -42 32 -85 16 -42 32 -75 36 -72 10 6 -51 165
-63 165 -5 0 -7 -4 -5 -8z"/>
<path d="M1150 4575 c1 -14 38 -61 43 -55 3 3 -6 19 -19 35 -13 17 -24 26 -24
20z"/>
<path d="M1069 4498 c31 -46 51 -67 51 -51 0 4 -18 28 -41 53 l-40 45 30 -47z"/>
<path d="M1335 4475 c10 -81 29 -100 22 -21 -3 32 -11 64 -17 70 -9 8 -10 -4
-5 -49z"/>
<path d="M653 4403 c3 -43 6 -80 7 -83 0 -3 11 20 22 50 l22 55 15 -65 c16
-71 18 -76 27 -68 9 10 -30 168 -40 165 -5 -2 -15 -19 -22 -38 l-12 -34 -1 48
c-1 26 -6 47 -12 47 -7 0 -9 -26 -6 -77z"/>
<path d="M969 4439 c-1 -24 -4 -54 -8 -67 -5 -21 -8 -17 -26 27 -11 28 -23 51
-27 51 -4 0 2 -24 13 -52 12 -29 26 -68 31 -86 5 -19 11 -32 12 -30 2 1 6 34
10 72 4 39 8 71 9 73 2 1 14 -15 26 -38 36 -63 36 -39 0 27 -40 76 -39 75 -40
23z"/>
<path d="M1296 4438 c7 -47 24 -76 24 -41 0 36 -12 83 -21 83 -5 0 -6 -19 -3
-42z"/>
<path d="M760 4356 c0 -36 5 -68 11 -71 7 -5 10 15 8 64 -4 89 -19 94 -19 7z"/>
<path d="M1229 4405 c-8 -8 1 -54 12 -61 5 -3 9 3 8 13 -1 25 -13 55 -20 48z"/>
<path d="M1161 4343 c0 -10 4 -27 9 -38 7 -16 9 -13 9 18 1 20 -3 37 -9 37 -5
0 -10 -8 -9 -17z"/>
<path d="M801 4275 l1 -50 10 38 c7 28 7 42 -1 50 -8 8 -11 -2 -10 -38z"/>
<path d="M686 4269 c-3 -19 -8 -51 -11 -71 -3 -22 -2 -38 4 -38 5 0 13 29 16
65 8 68 0 103 -9 44z"/>
<path d="M6280 3217 c-25 -6 -64 -10 -87 -9 -208 6 -265 5 -320 -7 l-61 -13
-62 -122 c-34 -66 -67 -127 -73 -134 -5 -7 -33 -24 -61 -37 -108 -52 -319
-193 -336 -225 -13 -25 10 -74 43 -91 41 -23 88 -64 107 -96 l19 -32 -35 -88
c-18 -48 -34 -93 -34 -100 0 -14 31 -33 54 -33 8 0 27 -5 43 -11 l27 -10 -50
-28 c-81 -44 -121 -79 -163 -142 -77 -115 -93 -253 -44 -376 49 -125 129 -224
211 -264 100 -48 283 -18 410 67 l65 44 36 -33 c73 -65 318 -143 436 -138 206
8 378 149 495 405 20 45 40 89 43 99 6 17 8 17 32 1 13 -9 41 -16 60 -16 59 0
96 46 136 167 13 39 30 79 39 90 32 39 31 45 -18 133 -90 161 -88 137 -21 270
33 64 59 125 59 137 0 27 -76 100 -163 157 -59 39 -77 60 -143 159 -133 201
-209 260 -359 278 -109 13 -224 12 -285 -2z m345 -72 c66 -27 124 -76 179
-148 110 -147 167 -260 186 -372 16 -91 20 -105 29 -105 18 0 21 82 6 147 -8
36 -14 67 -12 69 4 4 135 -99 140 -111 3 -6 -10 -42 -28 -80 -36 -77 -42 -75
-47 22 -4 57 -12 83 -22 72 -2 -2 0 -49 5 -104 8 -86 7 -105 -7 -138 -20 -43
-31 -38 -36 13 -2 19 -7 33 -13 30 -8 -4 -11 -46 -15 -178 0 -7 -4 -11 -8 -8
-5 3 -7 50 -4 104 2 66 0 102 -7 106 -11 7 -12 5 -15 -119 -1 -54 -5 -70 -16
-70 -13 0 -14 26 -11 176 4 195 0 220 -29 212 -24 -6 -27 -17 -35 -125 l-7
-87 -57 27 c-31 15 -57 27 -58 27 0 0 14 77 33 170 37 186 38 195 25 195 -11
0 -23 -52 -51 -217 -13 -73 -26 -133 -30 -133 -21 0 -80 32 -80 44 0 7 18 116
40 241 23 126 39 234 36 242 -13 33 -25 2 -56 -144 -18 -87 -34 -160 -37 -163
-3 -3 -2 57 2 133 5 98 4 137 -4 137 -6 0 -11 -3 -11 -7 0 -5 -3 -68 -7 -140
-4 -97 -3 -133 6 -133 6 0 11 -9 11 -21 0 -15 -4 -19 -16 -15 -9 3 -25 6 -37
6 -13 0 -17 3 -11 8 16 10 31 342 15 342 -7 0 -11 -22 -11 -57 -1 -67 -11
-216 -15 -221 -2 -2 -7 42 -10 98 -4 56 -11 98 -15 93 -8 -9 -74 -235 -86
-293 -8 -43 -21 -60 -45 -60 -10 0 -16 5 -14 13 14 37 61 348 54 353 -5 3 -11
-1 -13 -8 -4 -15 -54 -299 -60 -338 -2 -21 -9 -25 -44 -28 -31 -2 -41 0 -38
10 3 7 7 60 11 118 3 58 10 137 15 175 12 89 12 111 1 100 -9 -11 -93 -253
-111 -324 -6 -23 -13 -41 -15 -39 -2 2 11 78 29 168 19 91 31 169 27 173 -11
11 -25 -45 -58 -213 -27 -144 -43 -165 -25 -34 6 38 6 73 2 77 -8 9 -63 -125
-82 -200 -8 -32 -15 -43 -25 -39 -8 3 -21 6 -29 6 -25 0 -20 25 47 235 32 99
33 105 20 105 -9 0 -71 -190 -91 -277 -9 -41 -16 -53 -31 -53 -10 0 -19 4 -19
8 0 20 61 285 83 360 23 79 22 122 -2 64 -12 -28 -85 -320 -96 -384 -4 -23
-13 -38 -21 -38 -19 0 -19 3 27 156 22 74 38 138 35 141 -3 4 -8 4 -9 2 -18
-22 -222 -371 -256 -437 -19 -37 -24 -41 -41 -32 -18 10 -16 14 26 86 25 42
78 129 119 193 41 63 71 118 68 121 -9 9 -48 -48 -144 -207 -51 -85 -96 -156
-101 -159 -5 -3 -20 1 -33 10 l-24 16 51 92 c28 51 60 106 71 121 19 27 18 45
-2 33 -5 -3 -37 -56 -71 -116 -33 -61 -63 -110 -65 -110 -14 0 0 34 43 110 57
99 145 263 217 405 61 118 55 115 250 117 131 0 235 -15 310 -46 21 -9 37 -11
40 -5 5 8 -39 31 -95 51 -8 3 8 9 35 12 28 4 55 9 60 12 21 8 178 -7 210 -21z
m-1047 -464 c-42 -87 -81 -162 -86 -165 -5 -3 -15 1 -22 9 -10 12 -7 23 15 57
16 24 41 56 57 73 15 16 28 34 28 38 0 20 -28 -4 -73 -64 -50 -65 -67 -80 -67
-59 0 6 25 38 57 71 31 32 51 59 45 59 -6 0 -36 -26 -66 -57 -30 -31 -59 -53
-63 -49 -4 4 25 39 65 76 39 38 72 71 72 74 0 17 -24 0 -89 -63 -65 -64 -72
-68 -87 -53 -15 15 -15 18 8 36 85 70 249 176 273 176 6 0 -24 -72 -67 -159z
m928 51 c-13 -12 -16 8 -9 49 l8 44 3 -44 c2 -23 1 -46 -2 -49z m-265 -68 c-5
-49 -7 -92 -4 -96 2 -5 22 -8 44 -8 37 0 40 -2 33 -22 -14 -45 -22 -89 -19
-106 2 -9 4 -23 4 -29 1 -18 19 -16 49 6 15 10 59 35 97 54 86 44 135 80 152
110 13 22 13 22 7 -4 -7 -33 4 -42 140 -109 l111 -55 5 -79 5 -80 35 -9 c41
-10 50 -21 50 -63 0 -59 11 -94 31 -94 10 0 20 9 24 20 18 56 104 103 119 64
20 -52 -4 -165 -51 -236 -35 -52 -64 -51 -99 2 -15 22 -31 39 -37 37 -5 -1
-26 -48 -46 -103 -38 -102 -62 -148 -114 -219 -36 -48 -129 -138 -177 -171
-40 -27 -174 -64 -233 -64 l-39 0 31 29 c32 30 40 71 21 101 -11 19 5 30 45
30 32 0 119 37 165 70 30 22 71 87 90 145 23 70 -14 136 -104 183 -44 23 -63
27 -141 27 -70 0 -99 -4 -130 -20 -92 -45 -178 -174 -177 -262 2 -58 35 -120
76 -140 28 -13 35 -22 39 -56 3 -22 15 -53 27 -69 l21 -29 -28 7 c-103 25
-215 78 -258 124 l-30 31 23 37 c101 163 101 246 1 373 -28 36 -117 100 -210
152 -45 26 -46 27 -53 88 -6 65 -8 169 -3 169 2 0 24 -7 48 -15 53 -18 265
-44 281 -34 17 11 1 70 -37 133 l-35 58 44 -6 c44 -7 44 -7 57 31 l13 38 6
-35 c4 -31 9 -35 36 -38 31 -3 32 -2 52 65 12 37 27 89 33 115 7 26 14 46 16
44 2 -1 -1 -43 -6 -92z m243 11 c-4 -8 -8 -15 -10 -15 -2 0 -4 7 -4 15 0 8 4
15 10 15 5 0 7 -7 4 -15z m-611 -15 c-3 -11 -9 -20 -15 -20 -5 0 -4 9 2 20 6
11 12 20 14 20 2 0 2 -9 -1 -20z m602 -46 c-23 -23 -28 -13 -8 16 10 14 18 19
21 12 2 -7 -4 -19 -13 -28z m137 30 c3 -3 3 -14 0 -26 -4 -17 -11 -19 -44 -15
-47 6 -50 9 -42 31 4 11 18 16 43 16 21 0 40 -3 43 -6z m295 -186 c-2 -35 -3
-7 -3 62 0 69 1 97 3 63 2 -35 2 -91 0 -125z m-433 91 c-9 -10 -13 -19 -7 -19
5 0 18 9 28 20 10 11 28 20 39 20 20 -1 20 -2 -4 -21 -27 -23 -173 -99 -189
-99 -10 0 15 98 27 112 4 4 20 10 36 14 l30 7 -22 -28 c-36 -46 -14 -43 31 5
33 35 43 40 45 26 2 -10 -4 -26 -14 -37z m-624 -29 c0 -7 -62 -21 -68 -15 -2
2 6 22 18 46 l22 43 14 -33 c8 -18 14 -37 14 -41z m105 2 l19 -26 -32 22 c-35
25 -39 32 -19 32 6 0 21 -13 32 -28z m-19 -24 c12 -10 27 -18 34 -16 17 4 66
-81 54 -92 -14 -12 -157 7 -169 23 -5 8 -26 22 -45 32 -31 16 -33 19 -15 25
19 8 27 4 90 -36 15 -10 25 -12 25 -5 0 6 -11 18 -25 27 -32 21 -24 32 10 14
33 -18 42 -7 16 19 -42 42 -21 50 25 9z m-263 -126 c8 -10 17 -48 20 -93 l5
-77 -31 8 c-37 9 -67 20 -67 26 0 2 7 24 16 50 9 28 12 49 6 53 -5 3 -11 13
-14 21 -3 9 -15 -5 -32 -39 -30 -63 -29 -61 -16 -61 6 0 18 15 26 33 l15 32
-7 -30 c-3 -16 -7 -36 -7 -43 0 -8 -7 -10 -16 -6 -9 3 -28 10 -42 16 l-27 9
23 62 c13 34 26 70 30 80 4 9 3 17 -3 17 -10 0 -45 -75 -57 -122 -7 -27 -35
-40 -35 -17 0 7 14 49 31 94 l31 82 68 -39 c38 -22 75 -47 83 -56z m122 58
c34 -23 31 -25 -14 -9 -17 6 -31 15 -31 20 0 14 12 11 45 -11z m1107 -72 c-7
-7 -12 -8 -12 -2 0 14 12 26 19 19 2 -3 -1 -11 -7 -17z m191 -83 c30 -61 32
-69 16 -60 -16 11 -55 -3 -88 -31 -28 -23 -31 -24 -31 -7 0 10 10 23 23 28 18
8 21 17 19 44 -3 32 14 81 28 81 3 0 18 -25 33 -55z m-1339 -158 c116 -53 223
-148 262 -230 38 -82 31 -119 -47 -243 -69 -109 -146 -162 -287 -199 -75 -19
-95 -19 -162 1 -71 21 -154 103 -201 199 -32 65 -34 77 -34 165 1 83 4 101 27
145 40 77 126 154 203 183 50 19 176 8 239 -21z m752 -169 c2 -3 -22 -15 -54
-28 -31 -13 -103 -45 -159 -71 -57 -26 -103 -44 -103 -39 0 5 24 34 53 64 40
40 67 58 103 69 43 13 148 16 160 5z m74 -28 c13 -9 13 -11 0 -20 -19 -13 -30
-13 -30 0 0 6 -7 10 -16 10 -8 0 -12 5 -9 10 8 13 36 13 55 0z m60 -84 c0 -28
-21 -93 -42 -131 -23 -44 -101 -83 -188 -95 -41 -6 -76 -13 -79 -15 -2 -3 1
-27 8 -53 13 -54 7 -82 -19 -82 -27 0 -37 19 -45 81 -7 54 -8 57 -44 68 -38
11 -56 34 -64 83 -3 21 1 27 19 31 15 3 21 0 17 -10 -6 -16 2 -17 30 -2 21 12
21 11 5 -8 -10 -11 -18 -22 -18 -25 0 -11 49 -1 65 12 15 12 15 14 -1 23 -13
7 -13 11 -4 17 8 5 20 2 29 -7 13 -14 13 -17 -7 -33 -26 -22 -27 -26 -6 -34
22 -8 70 19 77 44 3 11 21 27 41 35 20 9 36 21 36 29 0 7 19 20 41 29 36 14
40 19 29 32 -10 13 -4 19 41 40 50 23 55 24 67 8 6 -9 12 -26 12 -37z"/>
<path d="M6732 2948 c-6 -29 -24 -123 -41 -209 -33 -166 -36 -189 -23 -189 6
0 66 287 85 413 8 51 -11 38 -21 -15z"/>
<path d="M6355 2933 c-4 -32 -15 -105 -26 -163 -21 -114 -24 -160 -10 -160 4
0 11 19 14 43 4 23 13 85 21 139 24 153 28 198 17 198 -5 0 -12 -26 -16 -57z"/>
<path d="M5815 2864 c-101 -188 -148 -287 -134 -282 7 2 40 58 73 124 34 65
74 142 90 171 15 28 26 57 24 64 -2 7 -26 -27 -53 -77z"/>
<path d="M6090 2853 c-35 -127 -49 -186 -50 -213 0 -41 15 -9 34 70 10 41 26
104 37 139 21 71 23 81 10 81 -5 0 -19 -35 -31 -77z"/>
<path d="M6846 2809 c-2 -8 -7 -39 -11 -69 -3 -30 -15 -89 -26 -132 -21 -83
-25 -128 -10 -112 15 15 70 308 61 318 -6 6 -11 4 -14 -5z"/>
<path d="M6210 2479 c0 -45 18 -129 31 -143 11 -12 12 60 3 127 -9 60 -34 72
-34 16z"/>
<path d="M6140 2486 c0 -22 50 -145 62 -152 18 -11 16 2 -10 80 -25 73 -52
111 -52 72z"/>
<path d="M6086 2471 c-12 -18 66 -191 85 -191 7 0 8 7 4 18 -4 9 -20 53 -35
97 -27 77 -41 97 -54 76z"/>
<path d="M6555 2451 c-192 -69 -222 -85 -196 -100 32 -20 90 -19 186 3 89 21
100 25 98 44 -2 15 4 22 20 24 27 4 24 24 -3 21 -13 -2 -17 2 -14 12 8 21 -28
19 -91 -4z"/>
<path d="M5770 2285 c0 -11 11 -15 37 -15 32 0 34 -2 20 -12 -15 -12 -15 -15
2 -37 18 -23 19 -24 102 -12 46 7 91 14 100 17 18 5 42 51 34 65 -4 5 -71 9
-151 9 -121 0 -144 -2 -144 -15z"/>
<path d="M7047 2082 c-37 -37 -54 -79 -22 -52 12 10 15 10 15 -1 0 -22 -13
-36 -35 -40 -27 -6 -20 -25 8 -21 29 5 47 29 47 66 0 16 7 37 16 47 33 37 7
38 -29 1z"/>
<path d="M5552 2353 c-7 -12 -16 -33 -22 -47 -15 -41 8 -31 25 11 17 41 15 70
-3 36z"/>
<path d="M5648 2293 c-5 -36 -3 -51 6 -42 10 10 17 79 8 79 -5 0 -12 -17 -14
-37z"/>
<path d="M3494 3118 c-31 -29 -62 -64 -71 -79 -15 -25 -22 -27 -96 -31 l-80
-3 -58 -64 c-57 -61 -60 -63 -96 -56 -21 4 -72 20 -113 36 -41 16 -83 29 -93
29 -31 0 -39 -47 -35 -214 l3 -159 -34 -12 c-54 -18 -59 -35 -25 -91 17 -27
36 -64 43 -82 13 -31 12 -35 -14 -62 -15 -16 -52 -42 -81 -57 -32 -17 -54 -35
-54 -45 0 -9 22 -34 48 -56 65 -54 80 -100 50 -153 -18 -32 -20 -49 -16 -114
6 -90 23 -120 88 -151 38 -19 49 -31 75 -88 49 -106 222 -292 319 -343 49 -26
185 -22 261 7 62 24 236 120 268 148 19 17 19 17 37 -17 11 -21 16 -23 63 -17
29 4 87 9 130 13 71 5 78 7 83 30 4 13 1 36 -5 49 -13 30 -14 64 -2 64 18 0
95 87 113 128 20 45 45 66 91 78 16 3 35 17 44 30 9 14 25 24 39 24 29 0 59
41 51 70 -6 24 23 55 71 75 27 12 32 19 32 48 0 29 -8 42 -47 77 -82 73 -123
135 -123 186 0 56 -26 230 -46 309 -20 81 -49 119 -136 177 -84 56 -268 151
-329 169 -23 7 -62 32 -88 54 -69 63 -182 145 -198 145 -8 0 -39 -23 -69 -52z
m172 -87 c43 -33 114 -94 157 -136 75 -75 102 -85 51 -18 -14 18 -22 33 -19
33 10 0 148 -71 210 -108 112 -67 165 -113 176 -157 19 -68 37 -167 43 -230
l6 -60 -73 145 c-40 80 -79 161 -87 180 -21 56 -25 9 -4 -53 68 -204 144 -342
262 -476 62 -70 80 -96 70 -102 -21 -14 -25 -11 -42 31 -9 22 -20 40 -26 40
-6 0 -4 -16 6 -37 9 -21 18 -43 20 -49 5 -10 -33 -51 -39 -43 -2 2 -18 41 -36
87 -18 45 -38 82 -43 82 -6 0 -7 -7 -4 -16 4 -9 12 -37 18 -63 6 -25 22 -72
34 -103 22 -57 22 -57 2 -64 -26 -8 -29 -3 -67 115 -32 101 -60 155 -61 117 0
-10 13 -62 29 -115 37 -121 42 -164 19 -169 -14 -3 -18 7 -24 48 -4 28 -11 53
-15 56 -12 7 -11 -49 1 -82 9 -22 8 -31 -4 -43 -22 -21 -27 -11 -24 45 6 130
-3 368 -18 454 -20 120 -39 145 -30 40 14 -169 26 -407 21 -430 -5 -23 -9 -25
-50 -22 -25 2 -45 7 -45 11 0 3 9 21 21 40 21 34 19 54 -4 32 -6 -6 -41 -64
-77 -128 -59 -105 -90 -144 -90 -114 0 6 32 74 70 151 74 148 75 150 61 150
-5 0 -39 -63 -77 -140 -37 -77 -69 -140 -71 -140 -2 0 -12 5 -22 12 -18 11
-16 18 41 132 75 150 140 298 133 305 -9 8 -20 -11 -50 -84 -16 -38 -57 -128
-92 -199 -62 -124 -65 -127 -83 -111 -17 16 -18 21 -6 49 8 17 61 135 119 261
114 251 123 275 108 275 -5 0 -13 -10 -17 -22 -4 -12 -29 -69 -55 -126 -27
-57 -49 -106 -49 -108 0 -12 -134 -294 -139 -294 -3 0 -13 4 -21 10 -21 13 -7
48 111 275 55 104 99 194 99 199 0 18 -20 -9 -70 -95 -29 -48 -50 -76 -50 -64
0 11 9 72 21 135 49 280 59 344 49 354 -5 5 -11 -2 -15 -20 -13 -57 -14 -58
-40 -23 -13 19 -30 44 -36 57 -11 20 -29 30 -29 16 0 -9 62 -98 77 -110 11 -9
11 -21 2 -64 l-11 -52 -50 48 c-68 67 -148 177 -148 203 0 12 7 36 16 52 14
29 11 57 -4 32 -4 -6 -50 -84 -102 -172 -52 -88 -97 -161 -100 -161 -3 0 -11
4 -18 9 -11 6 -5 25 26 88 22 44 55 103 72 132 17 30 29 58 27 64 -7 23 -157
-257 -157 -293 0 -15 -7 -20 -24 -20 -14 0 -27 4 -30 9 -12 18 124 279 191
369 14 18 22 36 18 40 -4 4 -13 -2 -21 -13 -38 -50 -148 -241 -179 -310 -33
-71 -47 -87 -59 -66 -3 4 15 57 39 117 25 60 45 115 45 122 0 37 -48 -13 -119
-122 -28 -43 -51 -82 -51 -87 0 -16 -40 -10 -47 7 -6 17 22 82 84 192 24 41
40 79 37 84 -8 12 20 52 75 108 25 25 68 72 94 103 27 31 56 57 66 57 10 0 54
-27 97 -59z m-313 -103 c-11 -13 -44 -61 -73 -108 -29 -47 -78 -112 -108 -145
-30 -33 -72 -87 -94 -120 -22 -33 -44 -59 -49 -57 -5 1 -38 -16 -73 -38 -72
-45 -72 -45 -80 -25 -4 11 14 25 67 51 81 41 82 42 75 50 -3 3 -38 -11 -77
-31 -73 -36 -91 -38 -91 -7 0 11 17 24 45 35 58 24 210 147 181 147 -2 0 -39
-17 -80 -38 -42 -22 -78 -37 -81 -34 -3 3 -5 16 -5 28 0 24 27 36 113 50 39 7
62 24 30 24 -10 -1 -45 -7 -77 -15 -60 -14 -86 -11 -68 7 5 5 40 12 78 16 39
4 67 11 66 17 -2 6 -7 9 -10 9 -4 -1 -38 -5 -75 -9 -68 -7 -69 -7 -65 17 3 22
7 23 91 24 48 1 91 4 93 7 8 8 -101 20 -141 15 -35 -4 -35 -4 -35 34 0 51 16
55 81 22 87 -44 264 -54 277 -16 2 8 -11 12 -45 12 l-48 0 42 42 c31 31 53 43
85 48 73 12 73 12 51 -12z m-63 -166 c0 -5 -7 -17 -15 -28 -14 -18 -14 -17 -4
9 12 27 19 34 19 19z m383 -238 c-12 -109 -20 -143 -35 -159 -19 -20 -19 -20
-14 5 7 30 36 287 36 315 0 19 0 19 14 -1 13 -18 13 -38 -1 -160z m-456 96
c-17 -38 -35 -70 -39 -70 -5 0 8 32 27 70 19 39 37 70 39 70 3 0 -10 -31 -27
-70z m414 -36 c-5 -33 -13 -99 -16 -149 -6 -84 -23 -135 -45 -135 -9 0 -8 14
11 140 5 36 11 83 14 104 4 37 35 110 43 102 2 -2 -1 -30 -7 -62z m91 34 c8
-22 -18 -188 -32 -201 -10 -10 -12 -4 -7 33 3 25 9 75 13 113 6 63 16 83 26
55z m-582 -50 c-19 -41 -19 -44 -1 -58 10 -8 30 -51 45 -95 28 -82 96 -218
121 -244 27 -28 28 -1 1 60 -15 34 -25 64 -22 66 2 2 12 -17 22 -43 10 -26 29
-60 42 -76 l24 -29 -25 -23 c-26 -24 -45 -71 -34 -83 13 -12 35 7 42 35 3 17
13 33 21 36 9 4 14 21 14 51 0 25 7 78 15 118 8 40 16 89 17 109 2 28 8 38 20
38 18 0 18 -1 -3 -130 -20 -126 -28 -215 -21 -222 5 -5 21 76 36 180 26 169
30 188 48 188 16 0 18 -5 14 -31 -3 -16 -11 -66 -17 -109 -7 -53 -16 -84 -27
-93 -14 -10 -15 -14 -3 -22 10 -6 11 -21 6 -60 -5 -34 -3 -51 4 -51 6 0 11 16
11 35 0 31 4 36 46 55 69 30 172 110 259 201 l78 82 -7 -39 c-3 -21 -11 -75
-18 -119 -6 -44 -16 -85 -22 -91 -10 -11 -42 -24 -236 -100 -47 -18 -83 -36
-80 -41 8 -13 48 -3 178 42 69 24 121 40 116 35 -12 -12 -188 -74 -251 -90
-29 -6 -53 -16 -53 -21 0 -13 69 -1 200 36 63 18 116 32 117 31 2 -2 -22 -43
-52 -93 -59 -98 -62 -108 -41 -120 7 -4 33 -25 57 -45 102 -85 172 -138 184
-138 7 0 30 42 53 93 45 102 68 121 118 98 25 -11 26 -14 22 -76 -5 -76 -20
-100 -100 -163 -38 -29 -69 -45 -97 -49 -37 -5 -42 -3 -58 26 -10 17 -23 31
-29 31 -6 0 -24 -20 -39 -44 -47 -75 -186 -168 -314 -211 -127 -42 -205 -32
-307 41 -66 47 -157 142 -205 213 -43 66 -68 142 -87 268 -16 114 -16 114 7
206 13 51 27 97 30 103 3 6 30 -15 61 -50 43 -47 48 -55 22 -37 -45 32 -53 18
-13 -23 42 -43 113 -79 148 -73 27 4 27 4 6 12 -13 4 -20 12 -17 17 4 6 -6 21
-22 34 l-29 23 50 -15 c61 -18 80 -13 40 10 -16 9 -21 14 -10 10 82 -28 82
-11 0 35 -64 36 -103 86 -136 172 l-23 63 28 50 c34 62 87 146 92 146 1 0 -6
-19 -16 -42z m172 -31 c-16 -44 -16 -47 2 -60 16 -11 17 -22 11 -81 -4 -37 -9
-65 -11 -63 -2 2 -11 42 -20 90 -16 85 -16 86 7 126 12 23 24 40 25 38 2 -1
-5 -24 -14 -50z m468 11 c0 -5 -12 -26 -26 -46 l-26 -37 6 49 c3 27 6 56 6 64
0 13 3 12 20 -3 11 -10 20 -22 20 -27z m-225 -149 c-10 -85 -20 -128 -31 -139
-15 -14 -16 -12 -11 15 3 17 11 68 17 115 11 81 28 145 37 137 2 -2 -3 -60
-12 -128z m231 63 l-39 -37 33 42 c18 24 36 41 39 38 3 -3 -12 -22 -33 -43z
m-767 -5 c-15 -32 -97 -83 -111 -69 -14 14 -17 11 52 55 65 43 73 44 59 14z
m344 -34 c-3 -21 -12 -67 -19 -103 l-13 -65 5 70 c6 91 14 135 24 135 5 0 6
-17 3 -37z m42 18 c3 -6 -4 -60 -15 -122 -11 -62 -20 -117 -20 -123 0 -6 -5
-4 -9 4 -10 17 18 250 30 250 4 0 10 -4 14 -9z m-457 -142 c-24 -58 -105 -146
-121 -130 -13 13 8 47 43 68 29 16 39 33 22 33 -5 0 -28 -16 -51 -36 -29 -25
-46 -33 -52 -27 -7 7 2 21 28 42 62 50 147 111 150 107 2 -1 -7 -27 -19 -57z
m91 -14 l32 -60 -42 41 c-32 33 -40 46 -34 63 4 13 8 21 9 19 2 -2 17 -30 35
-63z m238 33 c-3 -8 -6 -5 -6 6 -1 11 2 17 5 13 3 -3 4 -12 1 -19z m-385 -168
c-17 -53 -23 -58 -42 -35 -9 11 -6 21 17 50 15 19 31 35 35 35 3 0 -1 -22 -10
-50z m-12 -163 c1 -23 7 -71 15 -107 20 -92 20 -93 -14 -76 -37 19 -56 67 -56
137 0 42 5 63 19 78 25 28 36 18 36 -32z m1022 -446 c5 -17 13 -29 19 -26 5 4
7 15 4 26 -5 14 -2 19 14 19 11 0 22 -9 26 -20 9 -29 27 -25 19 5 -4 18 -1 27
11 31 20 8 32 -3 40 -37 l6 -26 -83 -6 c-86 -6 -108 1 -108 32 0 20 20 43 34
38 6 -2 14 -18 18 -36z"/>
<path d="M3347 2786 c-53 -80 -130 -226 -123 -233 8 -8 6 -11 55 82 24 44 60
106 82 137 41 61 44 68 30 68 -4 0 -24 -24 -44 -54z"/>
<path d="M3747 2784 c-3 -4 2 -18 12 -33 11 -14 39 -59 65 -98 25 -40 51 -73
57 -73 7 0 6 9 -4 24 -9 13 -39 60 -68 105 -54 86 -53 84 -62 75z"/>
<path d="M4350 2109 c0 -16 42 -89 52 -89 12 0 11 3 -18 54 -26 47 -34 55 -34
35z"/>
<path d="M3360 1988 c-104 -10 -179 -31 -233 -65 l-40 -25 6 -106 c5 -110 31
-210 61 -240 14 -14 14 -1 9 129 -4 87 -10 147 -17 152 -14 9 27 43 74 58 19
7 57 23 85 35 39 19 67 24 130 24 96 0 162 -26 213 -84 34 -39 41 -59 18 -50
-17 6 -22 -12 -37 -135 -7 -53 -16 -100 -22 -106 -6 -6 -7 1 -4 20 19 98 30
216 21 223 -5 5 -35 6 -66 4 -57 -4 -58 -4 -58 -35 0 -17 -5 -79 -12 -137 -6
-58 -8 -115 -5 -125 7 -17 8 -17 21 0 12 17 13 17 21 -6 6 -20 10 -11 21 46
l13 70 -5 -69 c-3 -38 -8 -75 -11 -83 -11 -28 17 -11 56 34 87 98 133 246 101
323 -14 34 -91 107 -130 122 -62 26 -127 34 -210 26z m310 -288 c-10 -23 -10
-22 -5 9 3 18 6 43 7 55 1 12 3 9 5 -9 2 -17 -1 -42 -7 -55z m-533 -2 c-3 -7
-5 -2 -5 12 0 14 2 19 5 13 2 -7 2 -19 0 -25z m430 -20 c-3 -7 -5 -2 -5 12 0
14 2 19 5 13 2 -7 2 -19 0 -25z"/>
<path d="M3175 1784 c-7 -51 4 -234 15 -234 4 0 11 15 15 33 6 28 8 30 15 12
6 -15 9 -5 11 35 l2 55 6 -48 c3 -26 11 -47 16 -45 6 1 12 -11 15 -28 9 -53
25 -30 31 46 l5 75 2 -72 c2 -77 18 -99 25 -35 l4 37 1 -37 c3 -51 18 -48 28
5 l8 42 5 -48 c9 -74 25 -60 33 28 11 121 17 131 15 26 -2 -68 2 -95 11 -98 6
-3 12 -1 12 4 0 4 7 69 14 143 9 82 11 139 5 145 -13 13 -27 -4 -32 -40 -4
-27 -4 -26 -6 8 -1 40 -6 44 -33 23 -14 -10 -18 -30 -20 -92 l-2 -79 -5 85
c-5 74 -8 85 -23 82 -10 -2 -18 2 -18 8 0 21 -20 -1 -21 -23 -1 -17 -2 -18 -6
-4 -8 29 -22 19 -26 -20 l-4 -38 -1 38 c-2 41 -18 49 -32 15 -8 -21 -9 -21 -9
-3 -1 11 -12 25 -25 31 -23 11 -24 9 -31 -32z m32 -116 c-2 -24 -4 -7 -4 37 0
44 2 63 4 43 2 -21 2 -57 0 -80z"/>
<path d="M705 3018 c-11 -7 -64 -13 -122 -14 -61 0 -108 -6 -116 -13 -8 -6
-43 -53 -78 -105 -60 -88 -67 -95 -115 -111 -60 -19 -94 -41 -94 -60 0 -7 11
-27 25 -43 14 -17 25 -33 25 -36 0 -9 -160 -86 -177 -86 -26 0 -26 -49 0 -103
40 -81 50 -108 56 -157 5 -40 9 -45 34 -48 15 -2 27 -5 27 -7 0 -3 -18 -32
-40 -66 -22 -34 -40 -69 -40 -78 0 -10 21 -33 48 -53 89 -69 99 -84 106 -170
6 -92 26 -134 93 -206 33 -35 57 -52 74 -52 18 0 37 -17 77 -69 87 -114 191
-180 332 -210 104 -22 216 -6 332 48 110 50 186 135 239 266 15 37 41 76 70
105 50 49 86 128 96 210 7 63 -13 154 -44 190 l-25 30 35 20 c32 19 67 77 67
111 0 7 13 37 28 68 15 31 26 63 24 71 -2 8 -49 51 -104 95 -139 110 -255 226
-313 313 -26 40 -63 86 -82 102 -29 26 -41 30 -94 30 -33 0 -72 6 -87 14 -38
19 -231 29 -257 14z m230 -68 c6 -4 46 -10 90 -13 94 -7 95 -8 204 -182 81
-129 114 -193 132 -255 9 -30 30 -62 66 -97 54 -56 57 -72 3 -27 -32 27 -53
26 -30 -1 8 -10 9 -15 1 -15 -6 0 -11 5 -11 10 0 6 -4 10 -10 10 -17 0 -11
-46 15 -118 28 -77 29 -86 16 -77 -6 3 -22 44 -36 90 -14 47 -47 131 -74 188
-27 56 -51 116 -55 132 -12 55 -59 175 -67 175 -12 0 -12 2 10 -63 22 -62 55
-216 48 -223 -2 -2 -14 35 -27 83 -13 48 -29 94 -37 101 -7 7 -13 18 -13 23 0
5 -4 9 -9 9 -6 0 -6 -13 -1 -32 12 -46 22 -128 16 -128 -2 0 -10 26 -16 58 -7
31 -20 75 -29 97 -19 42 -110 148 -143 166 -17 9 -19 8 -13 -10 6 -19 2 -21
-44 -21 -28 0 -51 -4 -51 -10 0 -5 24 -10 53 -10 66 0 93 -15 42 -23 -22 -4
-58 1 -93 12 -56 17 -57 18 -54 50 6 61 -22 28 -39 -45 -9 -38 -20 -67 -25
-64 -5 3 -16 -17 -25 -45 -15 -47 -18 -50 -52 -53 -45 -4 -46 3 -12 94 49 131
24 125 -29 -6 -42 -106 -43 -117 -13 -123 16 -3 13 -5 -10 -6 -18 0 -33 1 -33
3 0 3 11 36 25 74 22 62 25 102 6 102 -3 0 -19 -32 -35 -70 -44 -108 -41 -77
5 44 22 59 38 110 35 113 -2 3 -34 -53 -69 -123 -36 -71 -72 -142 -80 -158
-11 -20 -30 -34 -63 -45 -58 -19 -63 -31 -26 -53 l29 -17 -32 -68 c-18 -37
-61 -137 -96 -221 l-63 -153 -34 34 -33 34 35 61 c20 33 52 102 71 153 20 51
41 99 47 106 6 8 8 16 5 19 -3 3 -39 -27 -79 -67 l-73 -74 -5 40 c-4 34 -1 43
20 60 13 11 47 41 75 66 27 26 77 69 110 96 65 54 113 103 101 103 -8 0 -165
-132 -249 -210 -32 -30 -62 -54 -65 -52 -17 6 -2 26 59 74 250 202 299 243
299 250 0 10 -41 -22 -245 -185 -107 -86 -132 -102 -139 -89 -10 18 -5 23 93
83 89 56 70 60 -24 5 -75 -45 -95 -53 -95 -38 1 10 179 97 199 97 10 0 16 8
15 24 -1 19 15 34 83 78 45 30 83 56 83 59 0 11 -23 0 -98 -50 -74 -48 -83
-52 -96 -37 -28 31 -22 43 24 57 l45 13 -35 -29 c-54 -45 -30 -36 69 28 49 31
104 65 122 75 17 10 29 20 26 24 -3 3 -27 -7 -52 -21 -25 -15 -45 -25 -45 -23
0 2 29 25 65 51 36 26 65 49 65 52 0 11 -21 0 -71 -37 -30 -22 -62 -45 -73
-51 -22 -12 -20 -8 38 76 l40 58 185 -7 c134 -5 182 -4 177 4 -4 6 -17 11 -29
11 -12 0 -29 5 -37 11 -11 7 6 9 60 4 41 -4 80 -10 85 -15z m-545 -180 c0 -5
-5 -10 -11 -10 -5 0 -7 5 -4 10 3 6 8 10 11 10 2 0 4 -4 4 -10z m468 4 c18 -4
29 -11 26 -18 -6 -16 37 -36 79 -37 18 -1 43 -5 57 -9 17 -6 0 -8 -55 -9 -89
-1 -155 -16 -155 -34 0 -7 9 -64 21 -127 11 -63 24 -140 29 -170 24 -138 31
-162 46 -149 8 6 14 21 14 33 0 17 2 18 10 6 15 -22 12 12 -5 85 -8 33 -14 71
-14 85 0 14 12 -24 26 -85 14 -60 27 -112 30 -115 2 -2 8 1 12 8 9 15 41 5 41
-13 0 -7 34 -22 78 -34 l77 -22 0 -64 c0 -57 3 -67 29 -94 33 -34 57 -39 76
-16 17 20 15 84 -4 129 -8 20 -11 36 -5 36 5 0 9 5 9 10 0 6 -19 11 -42 11
-40 1 -39 2 16 10 32 5 61 11 63 13 12 12 -12 25 -55 31 -26 4 -90 23 -142 42
-52 19 -107 37 -122 40 -35 7 -44 19 -53 70 l-7 43 44 -20 c66 -29 276 -81
302 -74 19 4 24 0 34 -33 11 -39 35 -172 46 -253 11 -75 8 -251 -4 -310 -17
-80 -72 -189 -120 -236 -69 -68 -210 -124 -311 -124 -167 1 -357 110 -432 248
-49 90 -97 273 -97 368 0 43 1 45 28 41 17 -3 26 -10 23 -18 -16 -63 -13 -85
17 -117 21 -23 35 -30 49 -26 70 26 102 123 56 175 -12 14 -6 23 52 73 36 32
65 62 65 68 0 6 -30 -16 -67 -48 -38 -32 -72 -61 -77 -65 -5 -5 -1 -23 8 -44
22 -45 13 -90 -21 -112 -25 -16 -26 -16 -44 6 -24 29 -24 83 -1 108 9 11 60
56 112 101 137 116 150 135 104 146 -33 9 -40 4 -186 -122 l-116 -100 -4 53
c-3 50 -1 54 22 59 38 7 107 57 192 139 l78 74 6 -36 c9 -59 16 -69 24 -41 5
14 8 18 9 10 2 -31 22 -90 31 -90 5 0 5 14 -1 33 -8 29 -69 329 -69 342 0 3 4
5 9 5 5 0 12 -21 16 -47 17 -117 58 -309 67 -318 7 -7 9 -2 5 15 -3 14 -8 43
-11 65 -3 22 2 11 10 -25 22 -93 25 -100 34 -70 l8 25 1 -27 c1 -16 6 -28 12
-28 6 0 8 11 5 28 -21 109 -28 152 -24 163 3 8 15 -41 28 -109 12 -67 27 -122
32 -122 6 0 7 11 4 26 -8 29 -47 235 -75 389 -10 55 -20 105 -22 110 -2 6 0
29 4 53 8 44 12 46 65 36z m189 -29 c2 -6 -15 -9 -42 -7 -25 2 -45 8 -45 14 0
12 82 6 87 -7z m-297 -71 c-16 -49 -21 -38 -8 16 6 24 13 39 16 32 2 -6 -2
-28 -8 -48z m-176 -33 c-11 -27 -22 -41 -35 -41 -13 0 -16 5 -12 16 4 12 8 13
14 3 5 -9 13 1 25 29 9 24 18 41 21 39 2 -3 -4 -23 -13 -46z m429 32 c-32 -6
-29 -23 5 -24 24 -1 25 -2 5 -7 -24 -8 -20 -22 12 -40 17 -10 18 -11 3 -12
-10 0 -18 -7 -18 -15 0 -8 -2 -15 -5 -15 -17 0 -125 88 -125 101 0 10 35 16
95 16 28 0 40 -2 28 -4z m94 -23 c3 -10 2 -11 -4 -3 -4 6 -22 13 -38 16 -27 4
-27 5 4 3 21 0 36 -7 38 -16z m-302 -62 c4 -29 8 -60 10 -68 1 -8 5 -37 8 -65
4 -29 -2 -13 -12 35 -30 144 -33 162 -23 156 5 -3 13 -29 17 -58z m42 40 c-3
-8 -6 -5 -6 6 -1 11 2 17 5 13 3 -3 4 -12 1 -19z m626 -85 c67 -53 123 -98
124 -98 1 -1 -9 -23 -22 -50 -14 -26 -25 -57 -25 -67 0 -10 -4 -18 -10 -18 -5
0 -7 6 -5 13 3 6 -13 25 -35 41 -62 46 -97 88 -105 125 l-7 34 33 -24 c19 -13
56 -45 83 -71 27 -26 52 -45 55 -43 8 8 -89 103 -135 132 -30 19 -47 41 -62
75 -11 26 -18 48 -16 48 3 0 60 -44 127 -97z m-377 69 c-16 -2 -32 0 -37 5 -5
5 7 7 29 4 34 -5 35 -6 8 -9z m-314 -59 c37 -196 53 -301 44 -292 -4 4 -66
327 -66 344 0 23 14 -10 22 -52z m115 20 c-3 -10 -5 -4 -5 12 0 17 2 24 5 18
2 -7 2 -21 0 -30z m-210 -5 c-3 -7 -5 -2 -5 12 0 14 2 19 5 13 2 -7 2 -19 0
-25z m60 -15 c-3 -10 -5 -2 -5 17 0 19 2 27 5 18 2 -10 2 -26 0 -35z m194 16
c5 -8 11 -35 14 -61 3 -27 10 -48 15 -48 5 0 8 21 5 48 -4 44 -4 45 6 15 14
-40 4 -83 -19 -83 -14 0 -21 16 -33 75 -14 69 -9 93 12 54z m278 -53 c10 -36
15 -69 11 -71 -7 -4 -15 24 -36 125 -11 49 7 12 25 -54z m-80 42 c12 -32 7
-33 -24 -4 -27 25 -27 26 -6 26 13 0 25 -9 30 -22z m-624 2 c-3 -5 -10 -10
-16 -10 -5 0 -9 5 -9 10 0 6 7 10 16 10 8 0 12 -4 9 -10z m123 -20 c-11 -33
-89 -124 -119 -141 -38 -20 -20 18 21 45 22 14 40 31 40 37 0 6 -13 1 -29 -10
-31 -22 -41 -26 -41 -13 0 4 16 16 35 26 35 19 44 39 23 52 -17 10 20 34 53
34 27 0 27 -1 17 -30z m280 -65 c0 -16 -2 -15 -8 5 -4 14 -8 36 -8 50 0 22 1
22 8 -5 4 -16 8 -39 8 -50z m172 65 c26 -16 3 -21 -31 -6 -31 13 -32 14 -9 15
14 0 32 -3 40 -9z m-610 -15 c0 -10 -41 -25 -52 -19 -8 5 -5 10 8 15 22 9 44
11 44 4z m46 -16 c-14 -11 -34 -19 -44 -16 -12 2 -8 8 18 19 49 23 57 22 26
-3z m158 -36 c5 -41 3 -59 -6 -64 -16 -10 -38 26 -36 61 0 20 3 17 11 -12 12
-42 33 -53 23 -12 -16 61 -18 84 -9 84 6 0 13 -26 17 -57z m90 -45 l5 -53 -14
60 c-8 33 -14 69 -14 80 1 33 16 -26 23 -87z m413 80 c-3 -8 -6 -5 -6 6 -1 11
2 17 5 13 3 -3 4 -12 1 -19z m-147 -30 c0 -36 -4 -35 -14 5 -4 16 -2 27 4 27
5 0 10 -14 10 -32z m59 -30 c1 -5 -3 -8 -9 -8 -5 0 -10 12 -9 28 0 24 1 25 9
7 5 -11 9 -23 9 -27z m31 11 c0 -17 -4 -28 -10 -24 -5 3 -10 17 -10 31 0 13 5
24 10 24 6 0 10 -14 10 -31z m34 -1 c6 -28 2 -48 -8 -37 -8 10 -15 69 -7 69 5
0 11 -14 15 -32z m-97 0 c-3 -8 -6 -5 -6 6 -1 11 2 17 5 13 3 -3 4 -12 1 -19z
m-593 -40 c-12 -70 -11 -73 14 -70 35 5 28 -33 -14 -64 -19 -15 -41 -39 -49
-53 l-14 -26 -1 32 c0 33 13 106 32 181 6 25 16 42 25 42 12 0 13 -9 7 -42z
m153 20 c-3 -8 -6 -5 -6 6 -1 11 2 17 5 13 3 -3 4 -12 1 -19z m-6 -23 c5 4 6
-1 3 -9 -9 -24 -24 -19 -23 7 0 12 3 16 6 9 2 -6 9 -10 14 -7z m96 -17 c-3 -7
-5 -2 -5 12 0 14 2 19 5 13 2 -7 2 -19 0 -25z m587 -1 c3 -12 4 -22 3 -24 -2
-1 -25 6 -53 16 -41 16 -45 19 -24 22 58 9 68 7 74 -14z m-910 -57 c-15 -72
-39 -134 -64 -165 -9 -11 -29 -51 -45 -90 -32 -78 -33 -80 -40 -73 -4 4 28 86
125 321 18 43 34 76 35 75 2 -2 -3 -32 -11 -68z m196 48 c0 -19 -2 -20 -10 -8
-13 19 -13 30 0 30 6 0 10 -10 10 -22z m-20 -30 c0 -5 -4 -8 -10 -8 -5 0 -10
10 -10 23 0 18 2 19 10 7 5 -8 10 -18 10 -22z m157 0 c-3 -8 -6 -5 -6 6 -1 11
2 17 5 13 3 -3 4 -12 1 -19z m-187 -8 c0 -11 -4 -20 -10 -20 -5 0 -10 9 -10
20 0 11 5 20 10 20 6 0 10 -9 10 -20z m367 -72 c-3 -7 -5 -2 -5 12 0 14 2 19
5 13 2 -7 2 -19 0 -25z m102 -5 c2 -2 -3 -3 -11 -3 -9 0 -19 7 -22 16 -6 15
-4 15 11 3 10 -7 20 -15 22 -16z m491 -23 c0 -5 -4 -10 -10 -10 -5 0 -10 5
-10 10 0 6 5 10 10 10 6 0 10 -4 10 -10z m-1134 -112 c-8 -70 -11 -79 -30 -72
-8 3 -18 -6 -24 -23 -5 -15 -13 -36 -17 -45 -14 -36 13 -17 28 20 18 41 12 5
-7 -42 l-12 -29 -17 27 c-17 25 -17 28 2 71 11 25 24 45 30 45 5 0 18 25 27
55 10 30 20 55 22 55 2 0 1 -28 -2 -62z m883 1 c40 -66 34 -142 -9 -119 -12 6
-23 30 -30 63 -17 84 4 114 39 56z m225 -12 c17 -12 15 -15 -19 -41 -20 -15
-38 -26 -39 -25 -2 2 -6 21 -10 42 -7 36 -6 37 22 37 15 0 36 -6 46 -13z m42
-98 c8 -74 -10 -158 -47 -208 -36 -50 -49 -52 -49 -5 0 27 7 41 25 56 14 11
25 25 25 31 0 7 9 23 20 37 23 30 25 59 7 103 -8 18 -12 38 -9 45 8 25 21 -3
28 -59z m-1166 -49 c-12 -33 -27 -57 -32 -54 -5 3 -5 11 0 17 5 7 17 34 26 60
10 27 20 46 23 43 3 -3 -4 -32 -17 -66z m1131 46 c14 -29 6 -62 -20 -96 l-20
-25 6 41 c3 23 0 50 -5 61 -8 14 -8 23 0 31 18 18 27 15 39 -12z m-54 -68 c-3
-7 -5 -2 -5 12 0 14 2 19 5 13 2 -7 2 -19 0 -25z m-1052 -28 c3 -5 1 -10 -4
-10 -6 0 -11 5 -11 10 0 6 2 10 4 10 3 0 8 -4 11 -10z m-35 -94 c0 -34 21 -70
62 -107 14 -13 29 -34 33 -46 5 -19 3 -22 -12 -16 -49 17 -110 105 -113 163
-3 48 -2 50 15 44 9 -4 15 -19 15 -38z m49 -12 c7 -26 10 -48 8 -51 -6 -5 -37
73 -37 93 0 29 18 4 29 -42z"/>
<path d="M1010 2921 c0 -5 7 -14 15 -21 9 -7 37 -46 64 -86 27 -40 51 -70 54
-67 7 6 -12 38 -72 120 -43 59 -61 75 -61 54z"/>
<path d="M730 2853 c-30 -67 -70 -173 -70 -186 0 -24 18 12 59 116 44 109 51
160 11 70z"/>
<path d="M746 2811 c-15 -24 -56 -144 -51 -149 7 -7 8 -6 39 76 16 40 26 75
23 78 -3 3 -8 1 -11 -5z"/>
<path d="M1250 2676 c0 -6 90 -188 96 -195 2 -2 6 -2 8 0 7 6 -79 185 -93 193
-6 4 -11 5 -11 2z"/>
<path d="M1265 2595 c41 -122 85 -218 85 -187 0 21 -59 167 -76 188 -15 19
-16 19 -9 -1z"/>
<path d="M220 2425 c-35 -36 -62 -67 -59 -70 3 -2 35 24 72 59 37 36 64 67 59
70 -5 3 -37 -24 -72 -59z"/>
<path d="M251 2259 c-40 -93 -71 -173 -67 -176 3 -3 12 9 20 28 8 19 31 70 51
114 51 110 86 205 77 205 -4 0 -41 -77 -81 -171z"/>
<path d="M254 2197 c-46 -102 -62 -148 -46 -132 8 9 102 211 102 221 0 2 -3 4
-7 4 -5 0 -27 -42 -49 -93z"/>
<path d="M930 2154 c-81 -26 -215 -54 -261 -54 -22 0 -30 -6 -35 -26 -16 -63
28 -279 86 -417 41 -100 52 -108 88 -70 79 85 219 107 306 48 38 -26 40 -25
50 22 16 71 -37 373 -82 476 -25 56 -38 58 -152 21z m130 -44 l21 -41 -55 -25
c-64 -29 -195 -54 -288 -54 -66 0 -66 0 -73 31 -4 17 -5 32 -3 34 1 2 44 10
93 19 50 8 126 28 170 44 107 39 111 39 135 -8z m54 -246 c14 -53 23 -194 12
-194 -2 0 -20 7 -39 15 -20 8 -64 15 -98 15 -51 0 -72 -6 -118 -31 -31 -17
-66 -40 -78 -52 l-22 -20 -12 29 c-23 60 -29 90 -23 119 7 30 7 30 20 -16 11
-38 17 -45 36 -44 20 2 23 7 21 46 -1 24 0 38 3 32 11 -26 23 -12 19 20 l-5
32 12 -33 c15 -43 34 -35 30 13 -3 35 -2 36 13 21 21 -21 35 -20 36 2 1 19 4
11 13 -30 5 -20 13 -28 27 -28 16 0 19 4 14 23 -5 17 -4 18 4 7 18 -26 22 -4
11 69 -7 39 -10 77 -7 84 2 6 8 -10 11 -38 12 -83 17 -105 26 -105 4 0 7 8 6
18 -2 9 2 2 7 -15 18 -57 30 -37 24 40 -4 44 -3 62 3 47 4 -14 8 -39 9 -56 1
-16 8 -39 17 -50 16 -20 16 -15 -1 151 -5 56 0 42 29 -71z"/>
<path d="M1226 1898 c-10 -39 -7 -73 10 -96 19 -27 60 -29 74 -3 13 25 13 91
0 111 -11 16 -13 9 -10 -32 2 -38 -9 -68 -25 -68 -17 0 -25 22 -25 71 0 43
-14 52 -24 17z"/>
<path d="M574 1796 c5 -24 2 -37 -10 -47 -14 -11 -18 -10 -30 6 -8 10 -14 29
-14 42 0 13 -4 23 -9 23 -17 0 -18 -51 -2 -83 34 -69 100 -29 86 53 -4 22 -11
40 -17 40 -6 0 -8 -13 -4 -34z"/>
<path d="M892 1615 c-18 -15 -32 -33 -32 -41 0 -19 6 -18 40 8 22 16 50 23
102 27 84 7 79 17 -13 27 -60 6 -67 5 -97 -21z"/>
<path d="M1381 2583 c5 -14 171 -163 182 -163 17 0 1 17 -73 81 -101 86 -114
96 -109 82z"/>
<path d="M1420 2441 c0 -11 109 -95 115 -89 5 5 -99 98 -109 98 -3 0 -6 -4 -6
-9z"/>
</g>
</svg>
