<?xml version="1.0" standalone="no"?>
<!DOCTYPE svg PUBLIC "-//W3C//DTD SVG 20010904//EN"
 "http://www.w3.org/TR/2001/REC-SVG-20010904/DTD/svg10.dtd">
<svg version="1.0" xmlns="http://www.w3.org/2000/svg"
 width="600.000000pt" height="600.000000pt" viewBox="0 0 600.000000 600.000000"
 preserveAspectRatio="xMidYMid meet">
<metadata>
Created by potrace 1.16, written by Peter Selinger 2001-2019
</metadata>
<g transform="translate(0.000000,600.000000) scale(0.100000,-0.100000)"
fill="#000000" stroke="none">
<path d="M3213 5222 c-28 -16 -67 -32 -86 -36 -83 -15 -305 -186 -367 -281
-41 -62 -89 -167 -90 -192 0 -7 -5 -13 -11 -13 -5 0 -7 -5 -4 -11 4 -5 -4 -27
-18 -47 -29 -42 -97 -201 -122 -282 -9 -30 -21 -63 -26 -72 -5 -10 -5 -18 -1
-18 5 0 18 -9 31 -21 40 -37 152 -98 170 -91 9 3 32 16 51 28 19 12 60 27 90
33 182 35 317 18 475 -59 55 -27 111 -60 123 -73 l23 -25 70 30 c39 16 77 27
86 24 8 -3 24 -1 35 5 27 14 128 24 128 13 0 -5 -11 -26 -25 -47 -20 -29 -22
-37 -10 -37 20 0 19 -17 -2 -29 -15 -9 -16 -12 -3 -20 12 -8 11 -13 -5 -31
-16 -18 -17 -23 -5 -30 8 -6 25 -10 38 -10 27 0 27 -4 0 -43 -34 -48 -71 -77
-91 -73 -15 4 -16 2 -6 -10 6 -8 20 -14 30 -14 35 0 19 -18 -21 -25 -22 -4
-40 -11 -40 -15 0 -17 76 -71 115 -81 22 -5 62 -18 88 -27 l49 -17 -29 -22
c-15 -13 -43 -26 -60 -29 -36 -7 -41 -15 -18 -34 18 -15 20 -31 3 -28 -23 5
-18 -27 8 -56 22 -23 23 -27 8 -23 -82 25 -87 21 -55 -41 11 -21 23 -55 26
-76 l7 -37 -48 3 c-35 2 -48 -1 -46 -9 1 -7 -3 -13 -8 -13 -11 0 -3 -73 10
-100 5 -8 6 -27 3 -42 l-5 -27 -49 24 c-64 33 -72 32 -64 -5 4 -19 3 -30 -4
-30 -6 0 -11 -7 -11 -15 0 -22 -13 -18 -40 10 -12 13 -26 22 -30 20 -4 -2 -5
-29 -2 -60 5 -59 -3 -68 -33 -35 -10 11 -20 18 -23 15 -3 -2 -22 25 -43 61
-55 94 -179 244 -201 244 -21 0 -4 -30 32 -55 22 -15 40 -33 40 -40 0 -7 17
-34 38 -61 44 -56 108 -160 137 -220 12 -25 33 -49 52 -59 43 -24 77 -61 68
-75 -4 -7 -10 -8 -14 -4 -13 18 -71 67 -71 61 0 -4 17 -23 37 -42 30 -28 35
-37 25 -47 -13 -13 -15 -11 -79 71 -7 9 -13 11 -13 5 0 -6 18 -32 40 -56 33
-38 37 -48 26 -57 -11 -10 -19 -5 -39 21 -31 42 -113 187 -137 244 -11 24 -22
44 -25 44 -15 0 107 -237 153 -298 19 -25 23 -38 16 -49 -15 -25 -27 -19 -51
23 -13 21 -23 35 -23 29 0 -5 9 -25 20 -43 11 -18 20 -39 20 -48 0 -36 -28 -1
-78 97 -30 57 -51 94 -47 81 9 -31 61 -141 82 -174 14 -22 14 -29 4 -42 -12
-14 -17 -12 -42 20 -16 20 -29 32 -29 26 0 -6 5 -14 10 -17 6 -3 10 -11 10
-17 0 -7 -5 -6 -15 2 -37 30 -31 -1 11 -62 35 -49 44 -70 37 -82 -8 -14 -17
-4 -51 53 -23 39 -42 76 -42 82 0 7 -12 28 -27 48 -16 20 -31 54 -34 76 l-6
40 -1 -42 c-2 -36 -4 -40 -22 -36 -13 4 -19 11 -16 22 3 9 7 45 10 81 5 68 -2
49 -21 -60 -4 -25 -12 -43 -17 -42 -5 2 -12 -2 -17 -9 -17 -28 -20 2 -5 47 9
26 16 54 16 63 0 30 -18 -5 -50 -99 -17 -52 -41 -110 -52 -127 -11 -18 -15
-33 -9 -33 6 0 25 25 43 56 85 151 232 62 188 -114 -20 -80 -93 -137 -190
-149 -44 -5 -49 -3 -65 21 l-18 27 -26 -24 c-14 -13 -43 -34 -63 -46 -21 -13
-38 -25 -38 -27 0 -12 32 -1 71 26 59 40 66 38 32 -11 -28 -40 -29 -40 -78
-35 -27 2 -87 16 -133 31 l-83 26 24 32 c31 41 43 77 25 77 -7 0 -30 -9 -51
-20 -30 -16 -56 -20 -142 -20 -58 0 -105 2 -105 5 0 4 7 19 14 34 8 15 18 51
22 79 5 43 4 52 -8 52 -9 0 -22 -7 -29 -17 -36 -43 -120 -84 -216 -103 -136
-28 -189 -47 -230 -83 -34 -30 -36 -31 -50 -12 -9 11 -27 44 -40 74 -23 47
-25 63 -20 131 5 83 28 146 73 205 28 37 44 45 44 21 0 -7 8 -20 17 -27 15
-13 16 -12 8 6 -4 11 -10 37 -13 58 -3 32 -1 37 16 37 15 0 19 -5 15 -20 -7
-26 23 -60 53 -60 22 0 53 34 67 73 5 12 17 17 43 17 l37 0 -6 39 c-4 36 -3
40 22 46 24 6 24 8 9 19 -10 7 -15 16 -12 19 12 11 -70 20 -142 14 -45 -3 -74
-2 -74 4 0 20 43 94 47 81 7 -18 57 -42 90 -42 16 0 50 15 78 35 28 19 81 55
119 81 l69 45 36 -35 c35 -34 37 -34 66 -19 30 16 30 16 12 -4 -17 -19 -16
-21 4 -47 12 -15 29 -26 38 -24 9 2 27 -9 40 -25 29 -34 91 -67 127 -67 25 0
26 2 20 39 -6 37 -5 39 24 43 30 4 31 4 25 -26 -4 -17 -15 -48 -25 -69 l-18
-37 27 -28 c15 -15 48 -46 74 -70 51 -46 54 -56 32 -86 -8 -11 -15 -27 -15
-35 0 -16 38 41 84 127 34 65 28 80 -10 23 -14 -23 -31 -41 -35 -41 -13 0 -12
5 20 73 16 34 31 73 35 87 4 14 -7 -4 -24 -39 -16 -35 -30 -67 -30 -71 0 -4
-7 -13 -15 -20 -23 -19 -30 12 -11 49 9 16 16 34 16 38 -1 4 -10 -9 -21 -29
-23 -45 -44 -51 -35 -10 5 22 4 24 -4 9 -16 -24 -33 -10 -26 22 3 14 3 20 0
14 -5 -13 -34 -19 -34 -8 0 3 13 45 29 93 35 108 67 240 59 248 -10 9 -57 -20
-137 -85 -41 -32 -93 -66 -115 -75 l-41 -16 30 28 c17 15 55 49 85 76 30 27
46 43 35 35 -11 -8 -42 -33 -69 -57 -77 -67 -100 -82 -116 -72 -12 7 -7 17 24
49 22 23 37 43 34 46 -3 3 -28 -6 -56 -20 -57 -29 -65 -30 -81 -12 -8 10 -7
17 2 26 9 10 9 11 -4 6 -9 -3 -22 1 -29 10 -10 12 -10 18 1 33 13 15 12 16 -4
3 -9 -8 -19 -12 -20 -10 -1 2 -10 14 -20 26 l-18 21 58 13 c36 8 91 32 146 66
49 29 92 53 95 53 10 1 58 40 49 40 -5 0 -47 -22 -95 -48 -48 -27 -100 -56
-117 -65 -16 -9 -63 -26 -103 -38 -67 -18 -72 -22 -55 -34 17 -13 17 -15 -7
-42 l-25 -28 26 23 c31 27 35 27 42 1 4 -13 0 -22 -11 -26 -9 -4 -30 -17 -45
-30 -27 -21 -30 -22 -53 -7 -13 9 -24 19 -24 22 0 3 17 24 37 47 36 38 36 38
-9 -5 -35 -32 -51 -41 -59 -33 -8 8 1 22 33 50 100 92 112 104 93 95 -11 -6
-29 -20 -40 -32 -46 -51 -116 -102 -131 -96 -14 5 -12 9 7 26 22 18 23 19 4
20 -10 0 -45 -26 -78 -60 -53 -55 -87 -71 -73 -34 3 8 1 14 -5 14 -6 0 -5 9 2
23 11 20 11 21 -5 8 -11 -9 -20 -11 -27 -4 -6 6 5 21 31 42 42 33 52 32 23 -3
-18 -21 -18 -21 5 -2 12 11 22 22 22 26 0 16 122 132 177 167 110 71 267 108
436 102 88 -4 97 -2 97 14 0 12 -4 16 -12 10 -7 -4 -53 -6 -103 -4 -161 5
-322 -35 -432 -109 -65 -44 -74 -48 -97 -37 -14 7 -26 15 -26 20 0 4 -5 7 -12
7 -6 0 0 -13 15 -28 15 -15 27 -31 27 -35 0 -4 -15 -16 -32 -27 -27 -16 -51
-20 -135 -20 -102 0 -103 0 -103 -24 0 -13 9 -53 20 -88 11 -34 23 -85 26
-111 6 -42 4 -51 -17 -74 -34 -37 7 -13 50 30 18 17 17 19 -1 57 -11 22 -21
51 -22 65 0 14 -4 25 -7 25 -4 0 -9 12 -12 28 -3 15 -8 37 -12 50 -7 22 -6 22
79 22 99 0 105 -12 30 -56 -43 -25 -55 -46 -33 -59 6 -4 8 -14 5 -22 -3 -8 -2
-12 3 -9 5 3 14 -1 21 -9 17 -20 -5 -90 -34 -111 -11 -8 -15 -14 -8 -14 19 0
14 -24 -10 -56 -13 -15 -17 -25 -10 -20 8 5 12 -2 12 -23 0 -16 -5 -33 -10
-36 -6 -4 -8 -10 -5 -15 3 -5 1 -28 -5 -50 -10 -36 -14 -40 -44 -40 -25 0 -39
8 -62 37 -16 20 -41 48 -56 62 l-27 26 64 40 c36 22 65 44 65 48 0 5 -15 -1
-32 -13 -18 -11 -52 -31 -75 -43 -24 -11 -43 -26 -43 -32 0 -6 16 -26 35 -45
19 -19 35 -39 35 -46 0 -7 -15 -52 -34 -100 -38 -98 -64 -212 -71 -307 -3 -47
3 -27 25 78 35 169 44 194 47 125 0 -30 8 -61 19 -78 44 -64 69 -209 44 -251
-8 -14 -9 -14 -10 2 0 9 -4 17 -10 17 -5 0 -10 -5 -10 -11 0 -8 -4 -8 -13 0
-11 8 -19 5 -35 -14 -12 -14 -22 -27 -22 -30 0 -11 106 9 113 21 12 21 22 17
35 -11 17 -37 15 -45 -10 -45 -34 0 -82 -33 -107 -73 -19 -31 -28 -36 -74 -42
-28 -4 -59 -11 -67 -17 -15 -9 3 -7 81 8 29 6 30 4 24 -17 -19 -62 -34 -79
-71 -79 -20 0 -63 7 -96 16 -33 8 -62 13 -65 10 -3 -2 14 -36 37 -75 39 -66
103 -131 129 -131 12 0 15 -23 5 -33 -4 -3 -22 6 -41 20 -18 14 -37 23 -40 19
-4 -3 2 -13 13 -20 58 -42 56 -40 43 -69 -7 -15 -16 -27 -21 -27 -4 0 -8 -7
-8 -16 0 -9 -9 -29 -21 -45 l-20 -29 -86 88 c-112 114 -179 219 -166 260 4 10
109 97 186 152 20 14 21 14 14 -5 -8 -22 12 -2 68 70 58 75 95 100 110 75 9
-15 35 7 35 29 -1 13 -3 13 -15 -3 -15 -19 -15 -19 -15 3 0 12 -4 19 -10 16
-6 -3 -10 3 -10 15 0 12 -5 18 -10 15 -6 -3 -10 -13 -10 -21 0 -26 -89 -133
-133 -161 -23 -14 -84 -60 -134 -100 -82 -66 -93 -78 -93 -106 1 -42 29 -104
70 -150 l32 -37 -16 -67 c-9 -38 -19 -77 -21 -89 -7 -32 -83 -78 -130 -79 -49
-1 -141 -51 -184 -100 -17 -19 -38 -61 -47 -92 -15 -53 -45 -92 -70 -93 -5 0
-15 12 -21 28 -9 24 -10 22 -6 -18 6 -65 13 -91 21 -86 4 2 26 -4 47 -14 l40
-18 -32 -1 c-17 -1 -35 5 -40 12 -5 8 -9 2 -13 -18 -5 -28 -8 -29 -47 -27 -23
2 -44 -2 -48 -8 -5 -8 3 -9 29 -5 22 5 42 3 50 -4 10 -9 15 -8 20 4 6 18 45
35 63 28 13 -5 3 -29 -26 -65 -23 -30 3 -20 33 11 17 18 26 36 23 45 -11 27 1
18 28 -21 14 -21 25 -33 25 -27 0 28 -49 81 -97 104 -29 14 -52 30 -53 36 0
15 33 44 51 44 24 0 102 -53 133 -91 26 -31 28 -38 23 -94 -8 -81 -13 -92 -49
-99 -36 -7 -47 -1 -30 16 7 7 12 19 12 28 -1 12 -2 12 -11 -2 -7 -12 -22 -18
-46 -18 -20 0 -44 -7 -53 -15 -25 -23 -116 -37 -160 -25 -60 16 -88 44 -96 96
-4 30 -2 54 6 69 10 19 10 30 0 55 -7 17 -17 33 -22 36 -5 4 -3 -7 6 -24 14
-27 14 -34 0 -69 -25 -63 -6 -116 54 -154 43 -28 52 -30 109 -25 34 3 75 12
90 20 39 20 78 23 96 8 26 -22 370 1 442 28 17 6 68 13 115 14 51 1 108 10
143 21 63 21 71 18 82 -34 5 -24 4 -32 -4 -26 -40 24 -56 -76 -21 -132 47 -78
99 -84 670 -85 8 0 65 3 125 6 384 22 448 23 498 10 82 -22 282 -29 352 -12
38 9 75 11 100 6 97 -18 324 -10 505 19 123 19 141 28 161 83 15 41 20 46 60
54 36 7 114 24 269 60 8 2 47 9 85 15 109 19 154 45 196 116 30 49 46 65 100
93 58 31 71 34 139 32 154 -3 170 -3 185 10 23 19 18 27 -14 22 -53 -8 -137
79 -132 138 0 14 -4 37 -10 52 -6 15 -9 33 -7 40 8 23 38 -50 40 -97 2 -36 8
-51 33 -73 20 -18 24 -20 11 -4 -23 26 -20 27 28 7 48 -20 45 -7 -7 30 -35 26
-43 38 -48 73 -3 25 -17 57 -37 81 -17 21 -38 56 -46 78 -8 21 -22 58 -31 83
-14 36 -17 78 -17 205 0 146 -8 205 -28 205 -4 0 -5 -15 -3 -33 l3 -32 -10 33
c-9 26 -16 32 -40 32 -25 0 -32 7 -60 62 -22 44 -28 63 -19 68 9 6 8 17 -2 46
-7 22 -13 46 -14 54 -1 8 -5 25 -9 37 -5 17 -3 22 15 25 34 5 33 24 -2 38 -17
8 -45 24 -60 38 -27 22 -29 29 -29 95 0 61 -5 80 -30 126 -28 51 -29 56 -14
78 8 13 14 38 12 56 -3 31 -4 32 -45 29 -61 -5 -169 31 -237 78 -70 50 -96 79
-131 149 l-28 53 26 26 26 26 53 -53 c28 -29 66 -59 82 -67 21 -10 26 -11 15
-2 -51 42 -77 67 -102 97 l-28 34 22 23 22 23 47 -34 c26 -19 51 -35 54 -35 4
0 23 -11 44 -24 20 -13 66 -34 102 -47 36 -13 71 -29 79 -37 18 -18 24 -10 12
19 -11 30 -44 199 -67 344 -26 166 -69 272 -140 345 -45 47 -96 140 -109 200
-17 81 -77 165 -133 189 -19 9 -42 39 -78 104 -52 94 -53 100 -95 337 -24 135
-60 230 -108 285 -16 18 -30 38 -32 44 -3 8 -22 8 -68 0 -69 -11 -75 -9 -76
24 0 15 11 28 37 42 l36 20 -64 56 c-127 111 -300 178 -479 185 -107 5 -111 4
-162 -24z m74 -152 c60 -5 112 -15 125 -24 13 -8 43 -22 66 -30 90 -32 164
-110 202 -211 11 -29 11 -29 -10 -10 -26 24 -37 12 -17 -18 23 -36 12 -137
-15 -137 -10 0 -23 10 -28 23 -7 17 -9 18 -9 5 -1 -31 -28 -20 -48 20 -12 22
-43 53 -77 77 -51 35 -64 40 -114 39 -65 -1 -111 -21 -136 -59 -21 -32 -13
-45 12 -22 21 19 95 47 124 47 30 0 107 -58 141 -106 19 -27 34 -40 38 -33 4
8 10 5 18 -7 6 -11 11 -13 11 -6 0 9 12 10 43 6 23 -4 43 -8 45 -9 2 -2 -1
-29 -7 -61 -6 -32 -18 -128 -26 -214 -22 -220 -14 -201 -95 -226 -66 -20 -72
-21 -93 -5 -46 35 -206 109 -258 120 -145 29 -159 30 -243 21 -91 -11 -181
-31 -215 -50 -29 -15 -37 -8 -57 53 -24 71 -26 94 -13 150 9 37 16 48 35 53
13 4 31 1 39 -6 18 -15 40 -79 36 -109 -2 -16 1 -21 9 -16 26 16 -23 144 -55
145 -5 0 -16 4 -24 9 -12 8 -8 17 22 50 32 36 37 38 42 20 4 -10 15 -24 26
-30 19 -10 19 -8 -3 29 -12 22 -27 38 -32 35 -5 -4 -7 11 -4 34 7 47 65 140
93 147 53 15 78 6 123 -41 42 -45 44 -46 38 -20 -4 19 -3 26 4 22 13 -8 13 1
0 25 -15 27 -73 60 -107 60 -17 0 -47 -11 -67 -25 -20 -13 -36 -22 -36 -18 0
21 71 122 123 174 80 79 125 109 190 125 65 15 61 15 184 4z m498 -120 c20
-38 19 -40 -9 -40 -33 0 -50 23 -36 49 15 29 27 26 45 -9z m51 -1 c3 -6 1 -16
-5 -22 -9 -9 -14 -8 -21 3 -5 8 -10 18 -10 23 0 11 28 8 36 -4z m10 -74 c20
-13 67 -35 105 -47 38 -12 69 -25 69 -28 0 -3 -18 -23 -39 -44 -42 -41 -57
-42 -99 -6 -29 24 -93 130 -86 141 7 12 9 12 50 -16z m132 -391 c29 -32 31
-115 4 -159 -20 -32 -82 -79 -119 -90 -20 -6 -23 -3 -23 23 0 35 25 59 65 64
27 3 31 7 39 53 6 28 14 53 19 56 12 8 -20 39 -41 39 -8 0 -26 -10 -39 -22
l-23 -21 0 37 c0 29 5 39 23 46 32 13 69 3 95 -26z m-35 -37 c4 3 7 1 7 -5 0
-13 -10 -15 -34 -6 -9 3 -13 10 -10 16 4 5 11 5 18 -1 7 -6 16 -8 19 -4z m127
-42 c19 -19 32 -35 29 -35 -3 0 -20 16 -39 35 -19 19 -32 35 -29 35 3 0 20
-16 39 -35z m-194 -9 c-14 -22 -14 -27 -1 -39 15 -16 10 -27 -12 -27 -19 0
-17 60 4 82 22 25 29 14 9 -16z m52 -24 c2 -18 -1 -32 -7 -32 -15 0 -33 39
-27 57 10 24 31 9 34 -25z m-222 -107 c-4 -42 -11 -86 -17 -98 -10 -22 -7 29
7 131 10 71 17 47 10 -33z m190 -60 c-4 -14 -15 -40 -26 -58 l-20 -32 0 52 c0
41 4 52 18 56 32 9 34 7 28 -18z m183 -17 c6 -18 7 -28 2 -23 -10 12 -25 55
-18 55 3 0 10 -15 16 -32z m-189 -156 c-17 -44 -37 -86 -46 -93 -13 -10 -14
-4 -9 47 9 86 12 96 42 150 l27 49 9 -36 c7 -30 3 -51 -23 -117z m275 30 c-3
-3 -11 0 -18 7 -9 10 -8 11 6 5 10 -3 15 -9 12 -12z m-144 -109 c13 -16 12
-17 -3 -4 -17 13 -22 21 -14 21 2 0 10 -8 17 -17z m426 -190 c-3 -10 -5 -2 -5
17 0 19 2 27 5 18 2 -10 2 -26 0 -35z m-10 -55 c-3 -8 -6 -5 -6 6 -1 11 2 17
5 13 3 -3 4 -12 1 -19z m-179 -162 c-14 -20 -28 -33 -31 -30 -3 4 6 22 20 41
34 44 42 35 11 -11z m-382 -244 c-17 -16 -18 -16 -5 5 7 12 15 20 18 17 3 -2
-3 -12 -13 -22z m618 -18 c24 -9 19 -34 -6 -34 -18 0 -20 -2 -8 -10 12 -8 12
-10 -3 -16 -9 -3 -24 -1 -32 6 -20 17 0 44 27 36 16 -4 17 -2 7 10 -13 15 -9
17 15 8z m-749 -57 c-6 -38 -4 -44 22 -63 16 -12 62 -32 102 -45 l72 -23 -5
-106 c-3 -59 -1 -112 4 -120 7 -11 10 -4 10 26 0 23 3 76 7 118 l6 77 66 -2
c36 -1 71 -4 77 -6 13 -5 1 -51 -40 -155 -28 -71 -31 -88 -15 -88 6 0 8 8 4
19 -3 11 -2 22 3 25 5 3 26 51 47 106 36 95 39 100 73 109 19 6 39 8 43 6 4
-3 15 -25 24 -49 27 -71 17 -242 -19 -321 -31 -68 -61 -105 -87 -105 -10 0
-39 13 -64 29 -25 16 -91 45 -147 66 -57 20 -110 40 -118 44 -23 12 -12 86 25
163 35 71 36 83 4 46 -18 -23 -18 -23 -12 40 3 36 2 62 -4 62 -11 0 -41 -201
-53 -350 -10 -122 -39 -259 -76 -356 -70 -187 -82 -227 -77 -260 6 -36 -9 -47
-22 -16 -6 15 -8 14 -17 -8 -6 -15 -12 -20 -15 -12 -7 18 -23 15 -23 -5 0 -13
-3 -14 -12 -5 -9 9 -14 7 -24 -6 -13 -16 -14 -15 -20 6 -6 22 -24 31 -24 12 0
-5 -4 -10 -10 -10 -16 0 -12 28 6 38 18 10 36 162 24 196 -4 12 -10 -19 -14
-72 -5 -73 -11 -97 -26 -112 -11 -11 -20 -32 -20 -46 0 -21 4 -25 23 -22 12 2
27 -2 32 -9 8 -10 25 -9 80 4 39 8 73 21 77 27 4 6 5 25 2 42 -4 21 6 59 32
128 l38 98 63 -6 c35 -4 63 -4 63 -1 0 12 -52 95 -59 95 -4 0 -12 -5 -19 -12
-6 -6 -14 -10 -16 -7 -9 9 40 170 55 180 7 5 31 9 52 9 20 0 37 2 37 5 0 2
-10 25 -22 50 -23 46 -35 54 -56 33 -9 -9 -12 -5 -12 21 0 26 3 31 18 27 9 -3
43 -12 76 -21 84 -24 195 -72 240 -103 38 -26 38 -26 53 -7 21 28 72 131 90
179 17 47 19 221 3 275 -5 19 -8 36 -7 38 2 1 25 -27 51 -63 27 -35 65 -79 86
-96 l39 -30 -20 -37 c-28 -52 -25 -88 12 -122 l30 -28 -21 -29 c-18 -24 -20
-33 -11 -51 10 -18 9 -21 -9 -21 -24 0 -27 -25 -3 -34 14 -6 14 -8 -3 -20 -16
-12 -17 -17 -6 -41 12 -26 12 -27 -12 -21 -22 5 -25 2 -28 -24 l-3 -29 -65 41
c-36 22 -77 52 -92 66 -38 35 -43 24 -13 -31 35 -63 76 -208 80 -287 2 -36 6
-72 9 -80 3 -8 4 -24 2 -35 -3 -11 -5 -25 -5 -32 -1 -8 -13 -5 -36 8 -30 18
-34 24 -23 37 11 13 10 14 -9 3 -13 -6 -23 -14 -23 -16 0 -2 20 -16 45 -31 32
-18 44 -31 41 -43 -3 -9 -10 -38 -16 -66 -6 -27 -23 -76 -37 -107 l-25 -57
-60 30 c-32 16 -90 37 -128 45 -39 9 -70 19 -70 23 0 3 23 31 51 61 58 64 105
127 119 164 14 37 -5 32 -20 -5 -15 -35 -23 -27 -34 33 -7 40 -19 53 -37 42
-8 -5 -7 -9 4 -15 8 -5 20 -31 27 -59 12 -49 11 -51 -19 -89 -39 -48 -137
-132 -129 -109 7 17 20 67 32 122 6 24 11 28 34 23 15 -3 35 -9 45 -12 9 -4
17 -3 17 2 0 5 -20 14 -45 21 -39 10 -44 15 -37 30 6 10 4 36 -3 67 l-13 50
-1 -48 c-2 -81 -30 -196 -83 -335 -27 -73 -52 -154 -55 -180 -10 -95 -52 -197
-109 -266 -30 -36 -58 -66 -62 -66 -4 1 -22 21 -40 46 -37 50 -44 49 -76 -8
l-19 -33 29 33 29 32 34 -41 c32 -38 32 -41 15 -54 -14 -10 -15 -14 -5 -15 8
0 33 16 57 35 l43 36 6 -33 c14 -83 23 -204 15 -212 -11 -12 -284 -22 -278
-10 3 5 19 39 36 76 19 40 40 69 52 73 27 9 25 25 -2 25 -34 0 -54 16 -42 32
5 8 1 5 -8 -5 -22 -24 -15 -37 20 -38 22 0 19 -3 -18 -16 -31 -10 -87 -16
-175 -17 -109 -1 -137 2 -173 18 -28 13 -41 24 -38 33 6 15 40 158 51 213 5
23 23 50 51 78 36 34 51 42 82 42 27 0 33 3 22 10 -8 5 -24 7 -34 4 -15 -5
-18 -3 -11 12 20 50 21 50 -53 46 -66 -4 -69 -3 -87 24 -10 16 -29 37 -43 48
-29 23 -17 39 29 34 32 -3 34 -5 31 -38 -5 -50 6 -33 24 36 8 32 19 61 23 64
15 9 61 82 61 96 0 8 -11 14 -26 14 l-27 0 8 158 c4 86 7 174 7 194 0 38 0 38
18 16 l18 -22 58 51 c33 28 74 67 93 86 l33 35 -26 38 c-18 27 -22 40 -14 43
7 2 26 17 43 33 29 28 29 28 37 7 5 -11 11 -45 14 -75 7 -54 7 -54 -39 -100
-26 -26 -45 -50 -42 -54 2 -4 23 -10 45 -14 29 -4 44 -13 51 -29 6 -15 8 35 5
158 l-5 181 49 64 49 65 -32 33 c-18 18 -48 43 -67 54 -19 12 -36 22 -38 23
-1 1 0 10 4 19 5 12 10 14 19 6 16 -14 35 15 35 54 0 29 17 43 33 27 15 -15
27 -14 27 3 0 9 7 12 21 9 19 -5 20 -3 13 31 l-7 38 53 -27 c28 -14 54 -25 56
-23 7 8 7 84 -1 116 -5 23 -4 32 5 32 8 0 10 8 6 25 -6 22 -3 25 19 25 25 0
26 -2 20 -43z m811 34 c5 -5 27 -11 49 -13 22 -2 46 -7 52 -11 6 -4 14 -3 18
3 9 15 27 1 21 -16 -3 -8 -2 -14 3 -14 4 0 8 -6 9 -12 0 -7 4 -23 7 -36 6 -19
4 -21 -11 -15 -15 5 -13 2 5 -13 13 -12 22 -28 20 -39 -3 -15 -10 -10 -33 23
-21 31 -26 45 -18 54 7 9 6 19 -4 32 -14 19 -14 19 -14 -2 0 -30 -18 -28 -32
3 -6 14 -23 28 -37 31 -51 11 -61 15 -61 25 0 12 13 12 26 0z m-1716 -99 c-13
-57 -28 -71 -64 -54 -24 11 -67 -10 -47 -23 15 -9 14 -28 -1 -19 -7 4 -2 -4
12 -17 25 -24 25 -24 3 -27 -36 -5 -123 51 -123 80 0 12 72 41 98 39 12 0 36
-8 52 -16 18 -9 30 -11 30 -5 0 6 -15 18 -34 26 l-34 17 32 26 c17 15 42 34
56 43 23 14 25 14 29 0 2 -9 -2 -40 -9 -70z m1668 38 c-2 -6 -8 -6 -18 0 -13
9 -13 11 0 20 15 10 25 0 18 -20z m106 5 c20 -31 21 -49 0 -41 -8 3 -13 2 -10
-3 11 -16 -28 -23 -40 -7 -6 9 -19 16 -28 16 -9 0 -16 8 -16 19 0 16 6 19 33
16 l32 -4 -25 14 -25 14 31 1 c23 0 36 -7 48 -25z m-2372 -18 c54 -25 52 -35
-16 -81 -46 -31 -85 -33 -117 -6 l-24 19 33 7 c18 4 35 10 37 14 3 5 13 7 23
5 9 -1 11 0 5 2 -7 3 -13 9 -13 14 0 5 -7 9 -15 9 -8 0 -15 9 -15 20 0 27 40
26 102 -3z m-108 -26 c6 -9 -44 -35 -52 -27 -7 8 19 36 34 36 7 0 15 -4 18 -9z
m2543 -35 c15 -13 25 -27 22 -31 -8 -7 -61 15 -71 30 -4 5 -8 6 -8 2 0 -5 -5
-5 -11 -1 -8 4 -7 9 2 15 22 14 36 11 66 -15z m-189 -247 c24 -25 100 -49 156
-49 29 0 37 -3 29 -11 -6 -6 -35 -11 -65 -11 -81 -1 -183 50 -163 82 9 15 22
12 43 -11z m-2648 -91 c0 -7 -9 -24 -20 -38 -11 -14 -20 -31 -20 -39 0 -8 -3
-11 -6 -8 -9 9 25 97 37 97 5 0 9 -6 9 -12z m69 -16 c-7 -10 -24 -23 -40 -29
-18 -7 -33 -24 -44 -48 -14 -34 -14 -41 0 -61 10 -15 12 -30 6 -45 -7 -21 -8
-21 -19 11 -15 40 -15 55 -2 101 13 48 52 89 85 89 22 0 24 -2 14 -18z m2742
-82 c-25 -21 -41 -24 -81 -13 -21 6 -17 9 30 19 76 16 78 16 51 -6z m-807 -36
c9 -20 16 -38 14 -39 -2 -1 -20 -5 -40 -8 -33 -5 -38 -3 -38 14 0 19 29 68 41
69 3 0 13 -16 23 -36z m-494 -181 c0 -5 -9 -14 -20 -20 -27 -17 -38 5 -38 75
l0 54 29 -51 c16 -28 29 -54 29 -58z m1263 36 c4 -5 4 -7 0 -4 -3 3 -13 -1
-22 -9 -14 -12 -18 -11 -34 10 l-18 24 33 -7 c18 -3 36 -10 41 -14z m-56 -24
c9 -25 -4 -29 -17 -6 -7 15 -7 21 0 21 6 0 13 -7 17 -15z m59 -11 c-3 -9 -6
-18 -6 -20 0 -2 -7 -4 -15 -4 -13 0 -14 4 -5 20 13 24 35 27 26 4z m-1143 -76
c-4 -7 -63 0 -72 9 -3 2 11 19 30 39 l34 35 5 -38 c3 -21 4 -41 3 -45z m-178
51 c4 -11 4 -23 0 -27 -7 -7 -25 17 -25 36 0 20 18 14 25 -9z m1255 -20 c0 -6
-4 -7 -10 -4 -5 3 -10 11 -10 16 0 6 5 7 10 4 6 -3 10 -11 10 -16z m-1275 -27
c-8 -9 -25 20 -18 31 3 5 10 2 15 -7 6 -10 7 -20 3 -24z m1325 23 c-7 -8 -17
-15 -22 -15 -6 0 -5 7 2 15 7 8 17 15 22 15 6 0 5 -7 -2 -15z m-811 -41 c12
-19 21 -37 21 -39 0 -6 -85 7 -93 15 -6 6 39 60 49 60 1 0 11 -16 23 -36z
m-539 7 c0 -27 -17 -35 -23 -11 -5 19 0 30 15 30 4 0 8 -9 8 -19z m1498 -22
c-6 -16 -12 -28 -14 -26 -5 5 13 57 20 57 3 0 0 -14 -6 -31z m-2830 -22 c7 -8
7 -17 -3 -30 -11 -15 -14 -15 -25 -2 -13 15 -7 45 8 45 5 0 14 -6 20 -13z
m1083 -24 c-20 -34 -41 -57 -47 -51 -7 8 36 68 48 68 5 0 4 -8 -1 -17z m39 0
c-1 -15 -39 -58 -45 -51 -8 8 24 58 36 58 5 0 9 -3 9 -7z m-580 -57 c0 -2 -12
-11 -27 -20 l-28 -17 24 20 c23 21 31 25 31 17z m2285 -46 c13 -6 15 -9 5 -9
-8 0 -22 4 -30 9 -18 12 -2 12 25 0z m-1625 -14 c0 -2 -8 -10 -17 -17 -16 -13
-17 -12 -4 4 13 16 21 21 21 13z m1724 -18 c9 -12 16 -29 16 -38 -1 -8 -7 -3
-16 12 -8 16 -28 31 -47 37 l-32 9 32 1 c22 1 37 -6 47 -21z m-1839 -18 c-3
-5 -16 -15 -28 -21 -21 -10 -21 -9 2 10 25 23 36 27 26 11z m-757 -17 l103 -5
-35 -25 c-45 -30 -46 -43 -3 -43 17 0 42 -3 55 -6 21 -6 21 -7 5 -20 -17 -13
-17 -13 1 -14 15 0 16 -3 7 -14 -17 -20 12 -46 52 -47 52 -1 122 -23 119 -37
-1 -7 21 -24 50 -37 33 -15 69 -43 96 -74 46 -54 49 -74 33 -190 -7 -47 -14
-60 -48 -90 -23 -20 -63 -47 -89 -61 -27 -14 -51 -26 -53 -28 -3 -1 0 -7 6
-13 5 -5 45 -10 87 -10 92 0 164 28 232 91 52 47 73 50 115 12 25 -23 33 -38
36 -78 7 -74 -21 -125 -92 -165 -53 -30 -75 -57 -36 -44 14 4 27 -4 50 -31 28
-35 78 -141 70 -148 -2 -2 -43 -7 -90 -11 l-86 -7 5 54 c4 50 2 56 -22 71 -28
19 -26 47 5 47 10 0 19 5 19 10 0 6 -9 10 -20 10 -20 0 -28 24 -10 35 12 8 0
37 -14 32 -6 -2 -11 -15 -11 -28 0 -36 -20 -39 -23 -2 -2 23 3 35 20 47 29 21
33 20 57 -5 l20 -21 48 29 c43 27 48 34 51 70 2 27 -2 46 -13 57 -15 15 -14
16 9 16 14 0 26 4 26 8 0 11 -46 32 -68 31 -19 -1 -91 -79 -73 -79 12 0 15
-38 5 -64 -4 -9 -18 -16 -34 -16 -28 0 -70 -38 -70 -64 0 -16 -96 -40 -155
-38 -27 1 -69 7 -92 13 -23 6 -54 8 -69 5 -14 -4 -60 -41 -100 -82 -41 -41
-79 -72 -84 -69 -15 10 -97 -31 -109 -54 -12 -22 -31 -28 -31 -10 0 12 -54 69
-65 69 -4 0 -2 -7 5 -15 9 -11 8 -19 -4 -37 -19 -26 -21 -81 -5 -127 15 -43
29 -39 18 7 -12 54 -11 98 4 110 21 18 34 0 41 -62 6 -53 36 -114 58 -115 10
-1 -2 31 -20 52 -13 14 -13 17 -1 17 25 -1 48 -26 69 -74 31 -73 28 -79 -42
-100 -45 -13 -75 -16 -112 -11 -28 4 -71 9 -96 11 -64 6 -92 20 -117 57 -23
34 -33 117 -14 117 5 0 21 -15 35 -32 18 -23 26 -28 26 -16 0 9 -4 19 -9 22
-14 9 -8 169 7 173 8 3 12 -7 12 -32 0 -48 20 -125 32 -125 6 0 7 9 3 23 -4
12 -10 45 -12 72 -4 39 0 56 14 73 30 37 48 14 45 -57 -2 -34 1 -62 7 -66 7
-4 11 13 11 49 0 36 5 60 16 70 14 15 14 16 -3 16 -11 0 -24 5 -31 12 -9 9
-18 9 -37 0 -14 -7 -37 -12 -50 -12 -18 0 -27 -8 -36 -34 l-12 -35 -68 34
c-113 57 -174 148 -173 260 0 61 4 79 37 140 26 48 37 83 38 115 l1 45 10 -53
c8 -44 15 -56 46 -77 38 -26 90 -32 127 -14 15 7 12 8 -17 5 -28 -4 -47 2 -84
26 -35 22 -44 32 -34 38 8 5 23 4 34 -3 12 -6 27 -10 34 -9 6 2 12 -4 12 -13
0 -20 6 -19 30 5 11 11 26 17 35 14 8 -4 15 -1 15 6 0 6 7 18 16 27 8 9 13 21
10 28 -5 13 14 25 40 25 21 0 17 -38 -7 -71 -11 -16 -16 -29 -11 -29 15 0 30
23 46 66 12 34 12 46 0 80 -17 50 -75 104 -111 104 -60 -1 -125 -45 -170 -116
-10 -16 -12 -16 -12 -3 -1 26 68 123 100 142 58 33 143 13 200 -47 34 -36 40
-32 21 15 -19 49 -84 105 -133 114 -20 4 -53 2 -75 -4 -21 -6 -40 -9 -42 -7
-8 9 47 37 89 46 l44 9 -47 -3 c-27 -2 -48 1 -48 5 0 17 86 96 146 134 80 52
142 76 179 69 17 -3 76 -8 133 -11z m2512 -19 c0 -2 -7 -4 -15 -4 -8 0 -15 4
-15 10 0 5 7 7 15 4 8 -4 15 -8 15 -10z m118 -74 c1 -23 0 -23 -8 -5 -5 11 -8
34 -8 50 0 29 0 29 8 5 4 -14 8 -36 8 -50z m-2221 34 c-3 -3 -12 -4 -19 -1 -8
3 -5 6 6 6 11 1 17 -2 13 -5z m150 0 c-3 -3 -12 -4 -19 -1 -8 3 -5 6 6 6 11 1
17 -2 13 -5z m2163 -50 c11 -27 13 -74 5 -74 -3 0 -14 8 -24 18 -13 12 -17 26
-14 50 6 39 20 41 33 6z m-2410 1 c0 -8 1 -18 3 -22 3 -9 -40 -11 -53 -3 -8 5
-6 12 5 24 21 20 45 21 45 1z m2441 -108 c-7 -7 -9 -1 -6 19 6 48 8 50 12 20
3 -16 0 -33 -6 -39z m-105 11 c4 -6 -2 -8 -15 -3 -36 11 -23 -10 15 -24 20 -7
43 -26 55 -44 20 -34 25 -62 10 -52 -5 3 -12 1 -16 -5 -3 -5 1 -10 10 -10 9 0
15 -6 12 -12 -2 -8 -18 -12 -35 -11 -23 1 -32 -3 -32 -13 0 -8 5 -12 10 -9 6
3 10 0 10 -7 0 -8 -11 -15 -25 -16 -16 -1 -25 3 -25 12 0 8 -3 22 -6 30 -4 11
-2 15 8 11 8 -3 21 2 28 12 12 15 12 16 0 6 -20 -19 -30 -16 -30 8 0 18 4 20
26 15 17 -5 23 -3 19 4 -3 5 -16 10 -28 10 -12 0 -32 3 -43 6 -18 5 -20 10
-13 32 5 15 11 39 14 54 4 20 9 25 25 21 11 -3 23 -10 26 -15z m121 -132 c-10
-73 -22 -55 -18 27 3 74 5 78 13 47 6 -19 8 -52 5 -74z m-884 23 c14 -7 29
-21 33 -33 3 -12 14 -29 22 -39 16 -18 13 -19 -92 -14 -60 3 -112 9 -116 14
-6 7 -50 120 -50 128 0 6 173 -42 203 -56z m272 21 c3 -5 1 -10 -4 -10 -6 0
-11 5 -11 10 0 6 2 10 4 10 3 0 8 -4 11 -10z m-1265 -14 c0 -3 -4 -8 -10 -11
-5 -3 -10 -1 -10 4 0 6 5 11 10 11 6 0 10 -2 10 -4z m1705 -6 c3 -5 2 -10 -4
-10 -5 0 -13 5 -16 10 -3 6 -2 10 4 10 5 0 13 -4 16 -10z m138 -80 c4 -17 2
-18 -14 -9 -11 5 -17 14 -14 20 10 15 22 10 28 -11z m-181 -42 c-13 -13 -24 5
-16 27 7 16 8 16 17 0 6 -11 6 -20 -1 -27z m-843 17 c11 -15 40 -141 47 -207
l6 -58 -48 0 c-27 0 -85 -3 -130 -6 l-81 -7 29 88 c16 48 31 111 32 139 3 49
4 51 37 57 49 9 99 7 108 -6z m1011 -15 c-6 -4 -10 -11 -9 -16 4 -21 -2 -44
-11 -44 -5 0 -10 18 -10 39 0 35 2 39 21 34 13 -4 16 -8 9 -13z m51 -13 c0
-12 15 -58 33 -102 31 -76 32 -82 18 -110 -19 -39 -70 -85 -94 -85 -23 0 -24
20 0 20 27 1 48 22 63 63 12 34 11 44 -10 110 -13 39 -28 82 -34 94 -10 23 -2
47 14 38 5 -4 9 -16 10 -28z m-181 1 c0 6 4 12 9 12 4 0 6 -11 3 -25 -2 -14
-9 -25 -14 -25 -5 0 -7 4 -3 9 3 5 1 12 -5 16 -5 3 -10 12 -10 18 0 7 4 6 10
-3 6 -10 10 -11 10 -2z m87 6 c-3 -3 -12 -4 -19 -1 -8 3 -5 6 6 6 11 1 17 -2
13 -5z m-3089 -33 c22 -14 10 -56 -17 -59 -37 -6 -52 26 -25 52 18 18 24 19
42 7z m3036 -6 c3 -8 1 -15 -4 -15 -6 0 -10 7 -10 15 0 8 2 15 4 15 2 0 6 -7
10 -15z m119 -5 c3 -11 1 -20 -4 -20 -5 0 -9 9 -9 20 0 11 2 20 4 20 2 0 6 -9
9 -20z m-3426 -36 c-3 -3 -12 -4 -19 -1 -8 3 -5 6 6 6 11 1 17 -2 13 -5z
m2824 -21 c13 -16 12 -17 -3 -4 -17 13 -22 21 -14 21 2 0 10 -8 17 -17z m605
-61 c-12 -11 -16 6 -9 39 l8 34 3 -33 c2 -19 1 -36 -2 -40z m-3534 21 c28 -6
86 -59 75 -69 -8 -8 -108 22 -133 40 -23 17 -12 51 14 41 9 -3 29 -9 44 -12z
m-83 -80 c1 -18 -1 -33 -3 -33 -2 0 -37 16 -77 35 -62 30 -68 35 -39 31 25 -2
45 3 70 19 l35 23 7 -22 c3 -11 6 -36 7 -53z m3231 67 c-8 -5 -22 -9 -30 -9
-10 0 -8 3 5 9 27 12 43 12 25 0z m350 -38 c-6 -2 -18 4 -25 14 -24 31 -17 39
11 13 14 -13 20 -25 14 -27z m-1845 -21 c-4 -23 -11 -43 -15 -46 -5 -3 -20 14
-34 37 l-26 43 38 5 c20 3 39 5 40 3 2 -1 1 -20 -3 -42z m1442 43 c-3 -3 -12
-4 -19 -1 -8 3 -5 6 6 6 11 1 17 -2 13 -5z m-3056 -62 c4 -4 5 -22 2 -41 -4
-23 -8 -29 -14 -20 -6 10 -11 11 -16 3 -11 -15 -41 -13 -47 3 -3 7 -12 13 -21
13 -16 0 -19 20 -9 56 5 21 7 21 52 8 26 -8 49 -18 53 -22z m63 -2 c-4 -17 -1
-36 5 -44 7 -9 8 -22 3 -37 l-9 -23 -12 21 c-18 36 -12 113 10 113 5 0 6 -13
3 -30z m3536 -20 c6 -11 8 -20 6 -20 -3 0 -10 9 -16 20 -6 11 -8 20 -6 20 3 0
10 -9 16 -20z m-805 -12 c3 -13 4 -86 3 -163 l-3 -140 -126 -3 -126 -3 -5 153
c-3 84 -5 154 -4 155 1 1 187 19 233 22 16 1 24 -6 28 -21z m-1365 -8 c0 -5
-4 -10 -10 -10 -5 0 -10 5 -10 10 0 6 5 10 10 10 6 0 10 -4 10 -10z m-1 -45
c6 3 11 -1 11 -9 0 -9 -18 -25 -39 -36 -32 -16 -41 -17 -50 -6 -8 9 -5 18 10
34 11 12 17 22 14 22 -3 0 -3 5 0 11 5 7 13 5 25 -6 10 -9 24 -14 29 -10z
m-1360 -49 c-3 -3 -23 -8 -46 -12 -36 -5 -43 -3 -53 16 -13 25 2 52 26 43 8
-3 14 1 14 8 0 8 14 -1 32 -18 18 -18 30 -35 27 -37z m3431 -64 c-8 -30 -18
-44 -44 -56 -46 -22 -50 -20 -26 12 12 16 22 51 26 89 6 53 10 62 28 65 18 3
21 -3 24 -34 2 -20 -2 -55 -8 -76z m-70 -13 c-7 -16 -19 -34 -28 -41 -14 -11
-15 -10 -7 7 4 11 11 43 15 70 4 28 11 59 16 70 14 32 18 -72 4 -106z m180 85
c0 -16 -68 -50 -78 -39 -8 7 48 54 66 55 6 0 12 -7 12 -16z m-2036 -16 c-3 -4
-21 -8 -40 -8 -46 0 -37 15 10 16 19 0 33 -3 30 -8z m-1587 -75 c10 -34 16
-86 15 -125 -1 -37 3 -70 8 -73 6 -4 10 -15 10 -26 0 -25 -37 -39 -105 -39
-79 0 -85 4 -79 53 7 52 -15 115 -56 165 -16 20 -26 39 -22 43 14 13 135 47
204 58 4 1 15 -25 25 -56z m3683 5 c0 -5 -8 -8 -17 -6 -12 2 -19 14 -21 33
l-2 30 20 -24 c11 -13 20 -28 20 -33z m-2409 -20 c26 -32 24 -38 -11 -38 -32
0 -96 27 -86 37 3 3 20 9 38 13 18 4 35 8 36 9 2 1 12 -9 23 -21z m-66 -47
c28 -16 30 -22 33 -79 2 -35 -1 -62 -7 -62 -5 0 -23 24 -40 54 -17 30 -46 67
-66 81 -19 15 -35 31 -35 35 0 12 80 -8 115 -29z m-1129 3 c-3 -8 -2 -12 4 -9
6 3 10 -1 10 -9 0 -9 -5 -16 -12 -16 -20 0 1 -13 25 -15 14 -1 23 -9 25 -23 3
-19 -1 -22 -32 -22 l-36 0 0 55 c0 34 4 55 11 55 6 0 8 -7 5 -16z m44 -24 c0
-5 -5 -10 -11 -10 -5 0 -7 5 -4 10 3 6 8 10 11 10 2 0 4 -4 4 -10z m1633 -26
c34 -14 83 -28 110 -31 26 -3 47 -9 47 -13 0 -3 -11 -17 -25 -30 -23 -22 -28
-22 -80 -12 -83 17 -149 48 -141 68 3 8 6 22 6 30 0 19 11 18 83 -12z m777
-96 c0 -60 -16 -151 -41 -229 l-11 -35 -111 -11 c-62 -6 -117 -8 -123 -5 -7 5
-9 15 -3 29 6 16 32 29 110 55 56 18 95 34 88 36 -8 1 -53 -11 -101 -27 l-88
-30 0 63 c0 35 -3 97 -6 139 l-7 77 147 0 146 0 0 -62z m-760 0 c80 -16 80
-16 80 -38 0 -24 -31 -41 -38 -20 -3 9 -10 6 -23 -11 l-19 -24 0 23 c0 25 -15
30 -24 7 -8 -23 -26 -18 -26 8 -1 20 -2 21 -14 5 -19 -25 -26 -22 -26 10 l0
27 -20 -25 c-24 -30 -26 -11 -4 31 12 25 20 30 37 25 12 -4 47 -12 77 -18z
m-146 -33 c-5 -31 3 -45 19 -32 2 1 11 -4 19 -11 9 -7 32 -14 50 -16 19 -2 41
-6 47 -11 7 -4 18 -2 24 4 6 6 21 11 33 11 25 0 40 15 49 52 10 40 32 43 41 5
10 -46 7 -170 -6 -219 l-12 -41 -101 6 c-108 6 -147 14 -147 28 0 5 11 9 25 9
14 0 25 4 25 9 0 7 -75 -2 -106 -13 -8 -3 -14 25 -18 82 -4 48 -9 106 -12 130
l-6 42 41 0 42 0 -7 -35z m-419 16 c11 -20 25 -168 20 -213 l-7 -46 -68 0
c-38 0 -78 -3 -90 -7 -20 -6 -21 -5 -10 15 6 12 9 24 7 27 -3 2 -2 17 3 33 7
26 -8 123 -24 149 -4 6 9 14 31 20 140 35 130 33 138 22z m-469 -42 c51 -35
94 -102 94 -147 0 -47 -20 -83 -43 -80 -16 2 -24 19 -39 73 -20 72 -42 104
-90 133 -27 16 -36 41 -21 56 12 11 53 -3 99 -35z m579 31 c3 -5 1 -10 -4 -10
-6 0 -11 5 -11 10 0 6 2 10 4 10 3 0 8 -4 11 -10z m3 -60 c3 -19 0 -21 -20
-15 -32 10 -42 21 -35 39 9 23 51 5 55 -24z"/>
<path d="M3440 4836 c0 -2 14 -14 30 -26 17 -12 30 -18 30 -13 0 5 -13 17 -30
26 -16 10 -30 16 -30 13z"/>
<path d="M2858 4723 c7 -3 16 -2 19 1 4 3 -2 6 -13 5 -11 0 -14 -3 -6 -6z"/>
<path d="M2922 4709 c16 -12 30 -34 34 -55 3 -19 11 -34 16 -34 6 0 8 10 4 23
-3 12 -6 27 -6 34 0 17 -41 53 -59 53 -11 -1 -7 -7 11 -21z"/>
<path d="M3284 4716 c-31 -14 -50 -33 -42 -42 2 -2 22 5 44 16 40 21 95 20
136 -1 43 -23 57 -94 33 -164 -6 -17 -4 -17 14 4 49 55 10 166 -67 189 -50 15
-79 15 -118 -2z"/>
<path d="M2777 4676 c-9 -13 -19 -37 -22 -52 -5 -21 1 -16 20 20 27 52 29 73
2 32z"/>
<path d="M3207 4643 c-4 -3 -7 -11 -7 -17 0 -6 5 -5 12 2 6 6 9 14 7 17 -3 3
-9 2 -12 -2z"/>
<path d="M2817 4621 c8 -31 20 -34 45 -12 l22 21 -21 0 c-12 0 -28 3 -36 6
-12 4 -14 0 -10 -15z"/>
<path d="M3270 4613 c0 -14 45 -43 65 -43 8 0 15 9 15 20 0 23 -10 26 -28 8
-9 -9 -16 -7 -32 7 -11 10 -20 13 -20 8z"/>
<path d="M3190 4568 c0 -7 10 -26 21 -43 12 -16 18 -21 14 -10 -4 11 -10 30
-12 43 -6 23 -23 31 -23 10z"/>
<path d="M2850 4520 l-35 -7 38 -2 c20 0 37 4 37 9 0 6 -1 9 -2 9 -2 -1 -19
-5 -38 -9z"/>
<path d="M3259 4476 c17 -21 97 -21 131 0 l25 15 -30 -6 c-45 -9 -56 -9 -99
-1 -36 7 -38 6 -27 -8z"/>
<path d="M2835 4440 c-18 -30 58 -48 101 -25 32 17 33 17 70 -9 21 -14 45 -26
54 -25 13 0 13 1 0 6 -8 3 -30 19 -48 36 -32 31 -33 31 -61 14 -36 -21 -69
-22 -92 -1 -12 11 -19 12 -24 4z"/>
<path d="M3203 4409 c-7 -7 -33 -18 -60 -25 -39 -10 -43 -13 -18 -13 29 -1
115 32 115 44 0 9 -26 5 -37 -6z"/>
<path d="M3436 4411 c-3 -4 5 -7 18 -6 58 7 130 -67 110 -113 -4 -9 -8 -19 -9
-22 -9 -27 -19 -40 -31 -40 -8 0 -14 -5 -14 -11 0 -5 -5 -7 -12 -3 -7 4 -8 3
-4 -4 7 -12 -14 -16 -63 -12 -14 1 -21 -2 -17 -9 9 -14 61 -14 89 0 47 24 77
68 77 112 0 49 -19 81 -60 102 -32 17 -76 20 -84 6z"/>
<path d="M3346 4355 c-36 -55 -26 -121 22 -140 11 -4 9 1 -7 19 -28 29 -30 61
-7 107 20 40 15 49 -8 14z"/>
<path d="M2685 4250 c-3 -5 -1 -10 4 -10 6 0 11 5 11 10 0 6 -2 10 -4 10 -3 0
-8 -4 -11 -10z"/>
<path d="M3910 2811 c-5 -11 -10 -23 -10 -28 0 -16 55 -31 92 -25 34 7 36 8
22 26 -14 20 -14 20 -14 0 -1 -17 -2 -18 -13 -2 -12 15 -14 15 -24 0 -10 -15
-12 -14 -12 8 -1 19 -4 21 -13 12 -19 -19 -30 -14 -18 8 6 11 8 20 6 20 -3 0
-10 -9 -16 -19z"/>
<path d="M4050 2807 c0 -10 -4 -15 -10 -12 -5 3 -10 1 -10 -4 0 -13 26 -15 34
-3 2 4 1 14 -5 22 -7 12 -9 12 -9 -3z"/>
<path d="M3650 2602 c0 -4 9 -8 20 -9 11 -1 18 2 15 8 -7 11 -35 12 -35 1z"/>
<path d="M3920 2565 c-11 -13 -10 -14 2 -10 10 4 20 -7 33 -35 24 -54 32 -43
10 14 -19 50 -26 54 -45 31z"/>
<path d="M3860 2458 c0 -4 6 -8 13 -8 6 0 37 -3 67 -6 30 -4 51 -3 47 2 -11
11 -127 22 -127 12z"/>
<path d="M4123 2418 c-15 -19 -54 -98 -48 -98 2 0 14 18 25 39 11 22 24 42 29
46 6 3 22 -15 37 -40 32 -55 44 -53 15 2 -26 51 -45 68 -58 51z"/>
<path d="M3288 2323 c-9 -10 -28 -40 -42 -68 l-25 -50 22 -6 c12 -3 42 -3 67
1 l45 7 -57 2 c-32 0 -58 4 -58 7 0 13 54 104 62 104 4 0 24 -22 44 -50 20
-27 38 -50 40 -50 8 0 -25 55 -53 88 -27 33 -29 33 -45 15z"/>
<path d="M4086 2300 c5 -5 25 -12 44 -15 l35 -5 -30 14 c-35 18 -64 21 -49 6z"/>
<path d="M3752 2230 c-26 -47 -23 -54 5 -10 l19 30 38 -55 c39 -56 54 -69 41
-37 -8 22 -68 111 -75 112 -3 0 -15 -18 -28 -40z"/>
<path d="M3715 2140 c4 -6 29 -10 57 -10 64 0 60 5 -10 13 -32 4 -50 2 -47 -3z"/>
<path d="M3307 2063 c-13 -12 -7 -21 11 -16 15 3 24 -9 46 -61 16 -36 32 -66
37 -66 8 0 -10 48 -42 113 -18 35 -37 46 -52 30z"/>
<path d="M3265 1987 c-14 -24 -25 -49 -25 -55 0 -11 87 -29 96 -19 3 2 -15 8
-40 11 l-46 7 25 50 c31 61 25 64 -10 6z"/>
<path d="M3692 1968 c-23 -27 -42 -54 -42 -59 0 -5 24 -9 53 -8 l52 1 -43 10
-42 9 19 28 c41 57 46 56 77 -5 16 -31 30 -51 32 -46 3 11 -43 108 -56 115 -4
3 -26 -17 -50 -45z"/>
<path d="M4108 1993 c-24 -29 -60 -83 -54 -83 2 0 19 20 37 45 18 25 35 45 39
45 4 0 21 -26 38 -57 18 -33 32 -50 32 -39 0 26 -48 106 -64 106 -7 0 -20 -8
-28 -17z"/>
<path d="M3486 1944 c-3 -9 -2 -12 4 -9 6 4 24 -22 40 -57 16 -35 29 -55 30
-46 0 20 -51 128 -61 128 -4 0 -10 -7 -13 -16z"/>
<path d="M3450 1884 c-12 -19 -20 -37 -18 -39 2 -3 15 13 27 35 28 50 21 53
-9 4z"/>
<path d="M4090 1900 c8 -5 29 -9 45 -9 29 1 29 1 5 9 -14 4 -34 8 -45 9 -16 1
-17 -1 -5 -9z"/>
<path d="M3435 1815 c17 -8 39 -14 50 -14 13 0 8 5 -15 14 -46 18 -74 17 -35
0z"/>
<path d="M3265 1807 c-28 -32 -57 -79 -52 -83 2 -3 14 10 26 29 40 65 47 65
80 0 35 -68 41 -59 10 16 -22 51 -43 64 -64 38z"/>
<path d="M3652 1717 l-33 -52 31 35 c16 19 30 38 30 42 0 23 22 2 50 -48 17
-31 34 -54 37 -51 7 8 -60 127 -72 127 -5 0 -25 -24 -43 -53z"/>
<path d="M3468 1655 c-27 -36 -21 -44 6 -10 23 28 25 29 31 10 4 -11 16 -40
27 -65 17 -39 19 -41 14 -13 -8 49 -33 103 -48 103 -7 0 -21 -11 -30 -25z"/>
<path d="M3600 1640 c0 -8 109 -34 116 -27 3 2 -22 11 -56 20 -33 8 -60 11
-60 7z"/>
<path d="M3410 1549 c0 -12 38 -31 54 -27 7 2 -2 10 -20 19 -19 9 -34 13 -34
8z"/>
<path d="M3246 1494 c-3 -8 -2 -13 3 -9 5 3 28 -16 50 -41 51 -58 53 -48 4 17
-40 53 -48 57 -57 33z"/>
<path d="M3220 1449 c-7 -11 -10 -23 -7 -25 2 -2 9 7 15 21 14 30 7 33 -8 4z"/>
<path d="M3223 1373 c15 -2 37 -2 50 0 12 2 0 4 -28 4 -27 0 -38 -2 -22 -4z"/>
<path d="M3300 2509 c0 -8 7 -24 15 -35 18 -24 19 -7 0 26 -9 16 -14 19 -15 9z"/>
<path d="M1940 2031 c0 -12 21 -27 50 -36 24 -6 24 -6 -5 19 -32 27 -45 32
-45 17z"/>
<path d="M2280 2014 c-25 -13 -37 -23 -27 -24 23 0 77 28 77 40 0 6 -1 9 -2 9
-2 -1 -23 -12 -48 -25z"/>
<path d="M1961 1928 c2 -2 18 -14 34 -28 l30 -25 -24 28 c-14 15 -29 27 -34
27 -6 0 -8 -1 -6 -2z"/>
<path d="M2480 1923 c0 -5 16 -17 36 -28 19 -10 46 -32 60 -48 13 -16 24 -25
24 -20 0 12 -70 78 -97 92 -13 7 -23 8 -23 4z"/>
<path d="M2253 1908 c-13 -6 -23 -15 -23 -20 0 -5 5 -6 11 -2 7 4 30 13 53 20
38 12 39 13 11 13 -16 0 -40 -5 -52 -11z"/>
<path d="M2326 1885 c-21 -7 -54 -28 -72 -46 -27 -26 -34 -41 -34 -71 l0 -39
34 35 c67 66 153 72 249 17 46 -26 61 -42 82 -86 25 -50 28 -52 44 -37 16 16
16 20 2 61 -20 54 -82 126 -130 150 -50 25 -127 32 -175 16z"/>
<path d="M2338 1755 c-78 -26 -123 -79 -123 -145 0 -94 65 -161 155 -159 l45
1 -48 13 c-78 21 -115 64 -72 83 29 13 31 10 9 -12 -14 -14 -13 -17 11 -28 21
-9 28 -9 34 1 6 10 10 9 14 -3 9 -24 36 -19 49 9 6 13 15 22 20 19 16 -10 38
17 32 41 -5 19 0 24 27 34 17 6 34 11 35 11 10 0 2 -54 -11 -87 -19 -44 -19
-49 -1 -34 8 7 21 32 30 57 13 39 13 50 1 92 -20 66 -52 92 -132 110 -27 6
-52 5 -75 -3z m46 -137 c12 -47 8 -60 -21 -56 -29 3 -41 32 -29 64 9 22 43 17
50 -8z"/>
<path d="M1977 1533 c-3 -5 0 -19 8 -29 15 -20 18 -11 6 20 -4 11 -10 15 -14
9z"/>
<path d="M2448 1473 c7 -3 16 -2 19 1 4 3 -2 6 -13 5 -11 0 -14 -3 -6 -6z"/>
<path d="M1950 1382 c0 -8 34 -12 110 -12 89 0 110 -3 110 -14 0 -26 -110 -34
-162 -11 -28 11 -22 -18 10 -47 49 -46 69 -52 105 -31 33 20 95 98 85 108 -3
4 -63 9 -132 12 -92 4 -126 3 -126 -5z"/>
<path d="M2006 853 c-4 -9 -2 -21 4 -27 7 -7 10 -2 10 17 0 31 -5 34 -14 10z"/>
<path d="M4861 1894 c0 -11 2 -23 5 -27 8 -8 44 15 44 27 0 6 -5 5 -12 -2 -17
-17 -26 -15 -31 6 -4 14 -5 13 -6 -4z"/>
<path d="M4066 5095 c-11 -8 -15 -15 -10 -15 6 0 15 5 22 12 9 9 12 0 13 -42
0 -47 2 -51 10 -30 12 29 8 82 -6 86 -5 2 -19 -3 -29 -11z"/>
<path d="M2474 4227 c4 -31 2 -37 -12 -35 -13 2 -16 -3 -14 -21 1 -13 -5 -29
-15 -36 -10 -8 -14 -19 -9 -30 4 -12 -5 -41 -25 -80 l-31 -62 -47 5 c-44 4
-50 2 -93 -39 -67 -63 -98 -155 -106 -308 -4 -85 -2 -112 7 -107 7 5 10 28 8
62 -4 69 5 142 29 225 20 68 71 131 121 150 33 12 82 -3 124 -38 31 -26 109
-171 130 -243 7 -22 18 -45 24 -50 32 -27 -35 170 -82 239 -31 46 -29 53 15
45 20 -4 46 -8 57 -9 11 0 30 -6 43 -13 14 -8 22 -9 22 -2 0 5 6 10 13 10 22
0 47 34 47 62 0 26 -58 88 -81 88 -7 0 -4 12 6 28 l18 27 -26 -24 c-24 -22
-27 -22 -48 -7 l-23 16 33 6 32 7 -40 41 c-22 23 -49 61 -61 86 l-21 45 5 -38z
m44 -84 c31 -31 23 -57 -13 -43 -20 8 -25 6 -25 -6 0 -9 5 -12 13 -8 9 5 9 4
1 -5 -15 -16 -39 -5 -52 25 -10 21 -9 24 9 24 18 0 20 4 15 25 -5 20 -3 23 11
18 10 -3 29 -17 41 -30z m0 -95 c12 -14 10 -16 -13 -14 -14 2 -29 7 -33 11 -4
5 1 5 11 2 12 -4 17 -1 17 10 0 9 1 14 3 12 1 -2 8 -12 15 -21z m70 -47 c4
-25 -42 -91 -63 -91 -8 0 -18 8 -24 18 -8 14 -13 15 -30 4 -23 -14 -26 -10
-11 19 6 10 16 19 23 19 7 0 18 9 25 21 11 17 16 19 29 7 12 -9 15 -10 9 0
-10 17 1 31 22 28 9 -2 18 -13 20 -25z"/>
<path d="M3630 4064 c-19 -8 -48 -25 -65 -38 -16 -13 -37 -25 -45 -29 -8 -3 4
-6 28 -6 48 -1 54 -11 17 -31 -14 -7 -25 -17 -25 -21 0 -4 11 -10 25 -13 24
-6 36 -26 15 -26 -5 0 -10 -4 -10 -10 0 -5 9 -10 20 -10 25 0 26 -15 3 -29
-17 -10 -17 -12 1 -26 23 -17 46 -20 46 -5 0 6 7 10 15 10 8 0 15 5 15 10 0
15 -16 12 -30 -5 -16 -19 -30 -19 -30 -1 0 8 13 17 30 21 41 9 52 29 13 24
-15 -2 -24 32 -12 47 6 8 14 12 17 9 3 -2 0 -10 -6 -18 -8 -10 -6 -13 9 -13
13 0 18 5 14 15 -3 7 3 23 12 34 17 20 17 20 -1 13 -16 -5 -17 -4 -6 9 25 30
-4 14 -33 -17 -16 -19 -26 -25 -23 -15 3 9 1 17 -5 17 -6 0 -1 12 10 26 11 15
18 30 16 34 -3 5 0 12 6 16 8 4 9 3 5 -4 -4 -7 -2 -12 5 -12 8 0 7 -5 -2 -17
-13 -15 -12 -15 8 -2 16 9 19 16 10 21 -9 6 -8 8 3 8 12 0 12 2 1 9 -10 7 -8
12 10 25 l23 16 -24 0 c-14 -1 -41 -8 -60 -16z m-5 -44 c-3 -5 -11 -10 -16
-10 -6 0 -7 5 -4 10 3 6 11 10 16 10 6 0 7 -4 4 -10z m-30 -70 c-3 -5 -11 -10
-16 -10 -6 0 -7 5 -4 10 3 6 11 10 16 10 6 0 7 -4 4 -10z"/>
<path d="M3059 4005 c-51 -16 -139 -91 -139 -119 0 -31 57 -74 116 -87 99 -22
209 14 280 92 41 45 40 65 -7 96 -37 24 -54 28 -123 30 -50 2 -99 -3 -127 -12z
m176 -40 c19 -19 35 -28 35 -21 0 8 -10 21 -22 30 l-23 17 25 -7 c35 -9 60
-33 60 -59 0 -26 -17 -42 -84 -80 -40 -23 -52 -26 -67 -17 -10 7 -25 12 -32
12 -19 0 -37 43 -37 87 0 49 24 73 72 73 31 0 46 -7 73 -35z"/>
<path d="M3206 3941 c-4 -7 -5 -15 -2 -18 9 -9 19 4 14 18 -4 11 -6 11 -12 0z"/>
<path d="M3169 3890 c13 -11 33 -20 44 -20 15 0 11 5 -18 20 -49 25 -57 25
-26 0z"/>
<path d="M3635 3970 c-3 -5 -1 -10 4 -10 6 0 11 5 11 10 0 6 -2 10 -4 10 -3 0
-8 -4 -11 -10z"/>
<path d="M2207 3806 c-9 -23 -8 -77 1 -56 4 9 11 -4 18 -35 9 -39 12 -44 13
-20 1 47 -24 133 -32 111z"/>
<path d="M2300 3811 c0 -5 7 -11 15 -15 11 -4 15 -24 17 -83 l2 -78 5 69 c6
68 16 75 34 26 4 -12 6 -12 6 2 1 10 -13 33 -30 53 -30 34 -49 44 -49 26z"/>
<path d="M2192 3700 c0 -19 2 -27 5 -17 2 9 2 25 0 35 -3 9 -5 1 -5 -18z"/>
<path d="M2406 3699 c5 -8 12 -36 15 -64 l7 -50 -2 59 c-1 41 -5 61 -15 64
-10 3 -11 0 -5 -9z"/>
<path d="M2863 3679 c-12 -4 -29 -21 -37 -38 -24 -46 -19 -47 17 -6 19 21 39
35 45 31 14 -8 26 -87 18 -114 -5 -14 -13 -18 -31 -14 -45 8 -26 -16 38 -47
34 -17 104 -60 155 -95 50 -36 92 -60 92 -55 0 11 -160 138 -208 164 -20 11
-39 21 -41 23 -3 1 0 7 5 12 6 6 27 3 59 -9 84 -31 95 -34 95 -19 0 7 -29 22
-67 33 -41 12 -69 26 -70 35 -12 94 -27 116 -70 99z"/>
<path d="M2191 3644 c0 -11 3 -14 6 -6 3 7 2 16 -1 19 -3 4 -6 -2 -5 -13z"/>
<path d="M2192 3540 c0 -14 2 -19 5 -12 2 6 2 18 0 25 -3 6 -5 1 -5 -13z"/>
<path d="M2718 3523 c6 -2 18 -2 25 0 6 3 1 5 -13 5 -14 0 -19 -2 -12 -5z"/>
<path d="M2573 3503 c9 -2 23 -2 30 0 6 3 -1 5 -18 5 -16 0 -22 -2 -12 -5z"/>
<path d="M2429 3453 c-13 -15 -12 -15 9 -4 23 12 28 21 13 21 -5 0 -15 -7 -22
-17z"/>
<path d="M2374 3421 c-18 -11 -35 -25 -39 -32 -9 -14 52 20 67 39 14 17 8 15
-28 -7z"/>
<path d="M2729 3383 c-13 -17 -13 -17 6 -3 11 8 22 16 24 17 2 2 0 3 -6 3 -6
0 -17 -8 -24 -17z"/>
<path d="M2289 3353 l-24 -28 28 24 c25 23 32 31 24 31 -2 0 -14 -12 -28 -27z"/>
<path d="M2679 3343 c-13 -16 -12 -17 4 -4 16 13 21 21 13 21 -2 0 -10 -8 -17
-17z"/>
<path d="M2163 3324 l-28 -25 33 16 c17 8 32 20 32 25 0 15 -6 12 -37 -16z"/>
<path d="M2729 3303 c-13 -16 -12 -17 4 -4 16 13 21 21 13 21 -2 0 -10 -8 -17
-17z"/>
<path d="M2945 3290 c-4 -17 -5 -34 -2 -36 2 -3 7 10 11 27 8 42 0 50 -9 9z"/>
<path d="M2480 3290 c-8 -5 -10 -10 -5 -10 6 0 17 5 25 10 8 5 11 10 5 10 -5
0 -17 -5 -25 -10z"/>
<path d="M2086 3242 c-22 -27 -24 -32 -7 -17 20 17 47 55 39 55 -2 0 -16 -17
-32 -38z"/>
<path d="M2917 3193 c-23 -66 -21 -80 3 -18 11 28 19 54 17 58 -1 5 -10 -13
-20 -40z"/>
<path d="M3157 3125 c3 -55 7 -102 9 -104 8 -9 2 165 -6 184 -4 11 -6 -24 -3
-80z"/>
<path d="M2966 3094 c-9 -26 -14 -49 -12 -51 2 -2 11 17 20 43 9 26 14 49 12
51 -2 2 -11 -17 -20 -43z"/>
<path d="M2886 3105 c-9 -26 -7 -32 5 -12 6 10 9 21 6 23 -2 3 -7 -2 -11 -11z"/>
<path d="M3027 3029 c-15 -50 -26 -94 -23 -96 7 -7 59 163 54 177 -2 6 -16
-31 -31 -81z"/>
<path d="M2906 3035 c-9 -26 -7 -32 5 -12 6 10 9 21 6 23 -2 3 -7 -2 -11 -11z"/>
<path d="M2932 3005 c-17 -37 -14 -45 4 -12 9 16 14 31 11 33 -2 2 -9 -7 -15
-21z"/>
<path d="M3059 2934 c-32 -92 -103 -232 -134 -263 -12 -13 -17 -11 -35 12 -24
30 -40 35 -40 12 0 -21 101 -122 130 -131 22 -6 23 -5 12 9 -11 12 -7 26 23
79 19 36 35 70 35 77 0 7 -16 -19 -37 -58 -20 -39 -40 -71 -44 -71 -20 0 -16
22 12 74 17 31 28 56 25 56 -3 0 -17 -22 -31 -50 -14 -27 -29 -50 -34 -50 -17
0 -20 14 -7 29 49 58 179 351 163 368 -3 2 -20 -40 -38 -93z"/>
<path d="M2846 3005 c-9 -26 -7 -32 5 -12 6 10 9 21 6 23 -2 3 -7 -2 -11 -11z"/>
<path d="M4750 2995 c-7 -14 -17 -25 -22 -25 -14 0 -9 -27 8 -41 11 -9 14 -23
10 -48 l-6 -36 16 30 c15 26 15 32 2 56 -13 23 -13 29 -1 53 8 15 13 30 10 32
-2 2 -10 -7 -17 -21z"/>
<path d="M4580 3005 c0 -7 44 -23 92 -34 53 -12 36 2 -26 23 -52 17 -66 19
-66 11z"/>
<path d="M2435 2992 c6 -6 21 -12 35 -15 24 -4 24 -4 -2 -6 -42 -2 -34 -18 12
-26 22 -4 40 -9 40 -11 0 -2 -9 -18 -20 -36 -29 -47 -25 -65 14 -78 25 -8 33
-16 29 -28 -6 -25 34 -72 61 -72 12 0 33 11 46 25 l24 26 -24 6 -25 7 25 6
c14 4 41 5 59 2 26 -4 32 -8 28 -23 -3 -11 -1 -19 3 -19 10 0 32 62 29 82 -4
32 1 38 26 28 14 -5 25 -7 25 -4 0 4 7 1 15 -6 9 -7 18 -10 21 -7 13 12 -84
69 -185 107 -72 29 -128 43 -176 47 -48 4 -67 2 -60 -5z m115 -82 c0 -5 -2
-10 -4 -10 -3 0 -8 5 -11 10 -3 6 -1 10 4 10 6 0 11 -4 11 -10z"/>
<path d="M3228 2913 c13 -71 70 -228 80 -219 2 2 -10 44 -26 93 -17 48 -36
114 -42 146 -6 31 -15 57 -19 57 -4 0 -1 -35 7 -77z"/>
<path d="M2962 2808 c-34 -61 -60 -113 -58 -115 4 -4 110 180 122 210 15 41
-6 9 -64 -95z"/>
<path d="M1889 2833 c-13 -16 -12 -17 4 -4 9 7 17 15 17 17 0 8 -8 3 -21 -13z"/>
<path d="M3361 2810 c6 -16 15 -32 20 -35 4 -3 3 8 -2 25 -6 16 -15 32 -20 35
-4 3 -3 -8 2 -25z"/>
<path d="M2480 2777 c0 -19 63 -87 81 -87 9 0 8 4 -4 13 -9 6 -30 29 -46 51
-18 23 -31 32 -31 23z"/>
<path d="M2125 2770 c-3 -5 -20 -10 -38 -10 -21 0 -28 -3 -21 -10 12 -12 74 6
74 21 0 12 -7 11 -15 -1z"/>
<path d="M2709 2710 c-13 -10 -19 -19 -13 -20 6 0 19 9 29 20 23 26 14 26 -16
0z"/>
<path d="M3106 2610 c-23 -35 -24 -41 -9 -38 30 5 29 -43 -2 -72 -14 -13 -25
-29 -25 -37 0 -7 -8 -13 -18 -13 -19 0 -42 -18 -42 -33 0 -5 7 -4 15 3 14 12
56 20 105 20 47 1 66 27 79 113 7 42 6 47 -10 47 -11 0 -19 5 -19 10 0 6 3 10
6 10 11 0 49 -23 56 -34 4 -6 8 1 8 15 0 23 -5 27 -37 33 -21 3 -47 9 -59 12
-16 4 -26 -4 -48 -36z m67 -47 c-5 -12 -3 -14 7 -8 8 5 11 4 7 -3 -4 -5 -16
-8 -27 -5 -16 4 -18 8 -9 19 16 19 30 18 22 -3z m-17 -64 c-2 -28 -1 -29 11
-13 7 10 13 24 13 33 0 8 3 11 6 8 7 -7 -15 -67 -25 -68 -67 -8 -83 0 -58 32
9 12 43 37 54 39 0 0 0 -14 -1 -31z"/>
<path d="M2213 2583 c29 -8 19 -23 -12 -17 -16 3 -31 2 -35 -4 -5 -8 94 -25
102 -17 8 8 -40 45 -55 44 -17 -1 -17 -2 0 -6z"/>
<path d="M1860 2270 l-25 -8 28 -1 c15 -1 27 4 27 9 0 6 -1 10 -2 9 -2 -1 -14
-5 -28 -9z"/>
<path d="M1774 2248 c-7 -11 18 -10 36 2 11 7 10 9 -8 7 -13 -1 -26 -5 -28 -9z"/>
<path d="M1660 2223 c0 -9 3 -13 6 -10 4 4 25 -8 48 -25 l41 -32 -40 42 c-42
45 -55 51 -55 25z"/>
<path d="M1418 1982 c-26 -20 -47 -43 -48 -50 0 -13 62 -44 113 -56 26 -6 27
-5 27 34 0 42 -23 110 -37 110 -4 -1 -29 -18 -55 -38z m71 -19 c19 -66 16 -76
-21 -68 -36 8 -78 31 -78 44 0 8 70 61 82 61 4 0 12 -17 17 -37z"/>
<path d="M1576 1795 c-9 -26 -7 -32 5 -12 6 10 9 21 6 23 -2 3 -7 -2 -11 -11z"/>
<path d="M1561 1744 c0 -11 3 -14 6 -6 3 7 2 16 -1 19 -3 4 -6 -2 -5 -13z"/>
<path d="M1575 1710 c-7 -12 2 -12 30 0 19 8 19 9 -2 9 -12 1 -25 -3 -28 -9z"/>
<path d="M792 1330 c-12 -5 -25 -16 -28 -25 -4 -8 -12 -15 -19 -15 -13 0 -45
-32 -45 -45 0 -5 6 -1 13 10 19 25 36 11 43 -36 9 -56 25 -49 17 9 -3 26 -7
49 -9 51 -6 7 16 41 26 41 6 0 10 -19 11 -42 1 -80 18 -89 18 -10 1 39 0 72
-1 71 -2 0 -13 -4 -26 -9z"/>
<path d="M860 1263 c0 -95 17 -87 22 10 2 49 0 67 -9 67 -9 0 -13 -22 -13 -77z"/>
<path d="M5260 1311 c0 -5 5 -13 10 -16 6 -3 10 -2 10 4 0 5 -4 13 -10 16 -5
3 -10 2 -10 -4z"/>
</g>
</svg>
