<?xml version="1.0" standalone="no"?>
<!DOCTYPE svg PUBLIC "-//W3C//DTD SVG 20010904//EN"
 "http://www.w3.org/TR/2001/REC-SVG-20010904/DTD/svg10.dtd">
<svg version="1.0" xmlns="http://www.w3.org/2000/svg"
 width="1280.000000pt" height="1280.000000pt" viewBox="0 0 1280.000000 1280.000000"
 preserveAspectRatio="xMidYMid meet">
<metadata>
Created by potrace 1.16, written by Peter Selinger 2001-2019
</metadata>
<g transform="translate(0.000000,1280.000000) scale(0.100000,-0.100000)"
fill="#000000" stroke="none">
<path d="M5080 12045 c-133 -47 -446 -244 -660 -415 -164 -131 -394 -312 -442
-347 -31 -23 -80 -70 -110 -103 -29 -34 -89 -86 -133 -116 -44 -29 -103 -71
-131 -91 -28 -21 -82 -60 -120 -87 -38 -28 -94 -71 -124 -96 -30 -26 -80 -64
-110 -86 -60 -42 -176 -133 -255 -199 -54 -44 -152 -115 -160 -115 -8 0 -297
-210 -375 -273 -9 -6 -45 -32 -80 -56 -36 -24 -95 -75 -133 -112 -37 -38 -71
-69 -75 -69 -14 0 -62 -88 -71 -131 -11 -54 -69 -256 -81 -284 -14 -32 -67
-347 -75 -450 -3 -33 -11 -105 -19 -160 -9 -62 -17 -227 -21 -430 -3 -181 -10
-370 -15 -420 -5 -49 -17 -184 -26 -300 -17 -201 -17 -220 1 -435 22 -267 21
-293 -5 -390 -12 -41 -25 -97 -30 -124 -5 -27 -14 -54 -20 -60 -5 -5 -10 -25
-10 -43 0 -19 -7 -50 -15 -70 -8 -19 -15 -48 -15 -64 0 -15 -5 -40 -11 -56 -6
-15 -16 -55 -24 -88 -45 -200 -36 -180 -153 -302 -59 -61 -163 -170 -232 -243
-128 -136 -405 -411 -472 -470 -21 -17 -38 -38 -38 -45 0 -7 39 -41 87 -75 49
-35 99 -73 113 -85 14 -13 57 -44 95 -71 39 -27 120 -87 180 -134 61 -47 126
-96 145 -107 20 -12 46 -33 59 -47 32 -34 101 -34 101 -1 0 7 7 18 15 25 8 7
24 31 34 54 11 22 37 61 60 86 l40 45 1 -37 c0 -43 20 -50 52 -21 10 9 21 13
25 10 6 -7 -22 -118 -38 -149 -5 -10 -9 -25 -9 -33 0 -9 -10 -29 -21 -44 -19
-25 -20 -33 -10 -64 12 -36 27 -47 64 -47 12 0 37 -9 55 -20 18 -11 43 -20 56
-20 12 0 37 -7 55 -16 18 -9 50 -18 73 -20 22 -2 46 -8 53 -14 7 -5 33 -13 59
-16 72 -10 76 -18 76 -154 0 -68 -4 -121 -10 -125 -5 -3 -10 -19 -10 -36 0
-17 -8 -36 -20 -46 -11 -10 -20 -28 -20 -42 0 -13 -6 -32 -13 -40 -8 -9 -22
-38 -32 -66 -22 -61 -93 -203 -106 -211 -5 -3 -9 -13 -9 -22 0 -9 -9 -28 -20
-42 -11 -14 -20 -33 -20 -43 0 -10 -7 -28 -15 -41 -12 -17 -13 -30 -6 -49 13
-33 39 -47 88 -47 21 0 67 -8 103 -17 36 -8 90 -15 120 -14 50 2 147 -21 205
-48 85 -40 158 -71 167 -71 5 0 42 -11 81 -24 68 -23 137 -37 252 -52 28 -3
73 -17 102 -30 60 -29 89 -22 99 24 3 15 13 45 21 67 8 22 17 70 19 106 2 36
10 78 18 93 8 16 12 35 9 43 -3 8 2 32 12 54 21 45 50 51 101 20 l32 -19 6
-119 c22 -400 22 -453 0 -641 -4 -35 -2 -58 5 -65 9 -9 98 -13 299 -14 158 -1
324 -3 370 -3 52 -1 89 3 98 10 18 16 18 51 -1 76 -18 24 -19 34 -1 34 7 0 22
-12 32 -27 26 -42 45 -52 89 -53 47 0 178 33 218 56 46 26 54 3 16 -42 -65
-79 -316 -318 -367 -351 -72 -46 -247 -217 -280 -273 -14 -25 -32 -51 -39 -58
-7 -7 -16 -25 -19 -40 -3 -15 -9 -36 -14 -47 -4 -11 -15 -41 -24 -67 -22 -59
-77 -122 -191 -215 -123 -100 -203 -181 -284 -288 -38 -49 -97 -119 -131 -155
-34 -36 -81 -90 -103 -120 -22 -30 -55 -71 -73 -90 -18 -19 -56 -67 -85 -106
-30 -39 -90 -118 -135 -175 -82 -105 -167 -222 -227 -314 -50 -74 -132 -152
-232 -220 -143 -97 -244 -213 -302 -347 l-12 -28 44 0 c41 0 45 3 61 36 24 51
196 221 279 276 105 69 119 86 291 341 41 60 84 122 95 136 59 78 110 140 144
176 20 22 51 60 68 85 17 25 45 60 62 79 16 19 54 62 83 95 83 96 268 298 379
414 104 109 165 154 184 135 6 -6 -2 -78 -25 -219 -19 -115 -40 -279 -46 -364
-6 -85 -13 -162 -16 -171 -2 -8 -5 -130 -5 -270 -1 -239 7 -352 28 -408 15
-39 32 118 39 364 5 208 9 269 33 510 18 171 65 432 106 590 13 50 27 115 31
145 4 30 17 75 30 100 13 25 30 70 39 101 13 50 25 66 117 157 102 100 196
182 210 182 14 0 20 -22 9 -33 -6 -6 -11 -26 -11 -44 0 -18 -4 -41 -9 -51 -12
-21 -39 -105 -51 -152 -47 -198 -49 -222 -16 -228 39 -8 259 51 420 112 39 15
76 24 83 22 9 -4 13 -27 13 -73 0 -37 4 -126 10 -198 5 -71 14 -200 20 -285 6
-85 16 -211 22 -279 14 -146 11 -151 -81 -151 -94 -1 -125 -31 -159 -155 -21
-77 -29 -112 -67 -290 -9 -44 -23 -107 -31 -140 -7 -33 -20 -105 -30 -160 -9
-55 -18 -103 -20 -106 -4 -7 -88 14 -129 31 -91 37 -173 55 -193 42 -8 -5 -24
-61 -37 -125 -13 -64 -28 -124 -33 -134 -5 -10 -12 -35 -15 -56 l-6 -37 445 0
c244 0 444 2 444 3 0 2 -33 21 -72 42 -40 21 -112 64 -161 96 -48 32 -105 68
-127 79 l-41 21 7 52 c18 153 35 239 90 457 14 58 30 126 35 152 13 78 20 81
109 47 64 -24 85 -31 165 -54 117 -34 361 -135 450 -187 86 -50 397 -194 475
-221 25 -8 76 -29 113 -46 38 -17 76 -31 86 -31 18 0 132 -73 288 -186 169
-122 196 -139 283 -182 l85 -42 604 2 604 3 12 55 c26 115 57 225 76 261 10
21 19 47 19 59 0 23 94 72 230 120 84 31 119 46 310 136 74 35 141 64 148 64
6 0 12 5 12 10 0 6 10 10 22 10 17 0 19 -3 10 -12 -16 -16 -101 -66 -126 -75
-17 -6 -107 -51 -191 -96 -74 -40 -196 -86 -259 -97 -74 -14 -102 -33 -111
-77 -4 -16 -22 -77 -40 -138 -19 -60 -36 -129 -39 -152 -3 -23 -9 -48 -12 -57
-6 -14 18 -16 227 -16 230 0 235 1 283 25 60 30 109 34 104 8 -2 -12 -16 -20
-43 -24 -22 -3 72 -7 208 -8 160 0 255 3 268 10 14 7 24 7 33 0 9 -8 291 -10
944 -9 l930 3 -50 110 c-28 61 -58 126 -66 145 -8 19 -41 90 -73 157 -32 68
-63 148 -68 179 -8 41 -20 67 -44 93 -22 24 -39 59 -51 101 -10 36 -38 107
-62 158 -24 51 -44 95 -44 98 0 3 -15 36 -34 73 -18 37 -55 132 -81 212 -57
174 -74 219 -157 419 -116 279 -129 314 -163 410 -18 52 -46 130 -63 172 -17
43 -33 97 -37 120 -4 24 -13 57 -20 73 -7 17 -24 57 -38 90 -25 58 -78 234
-92 305 -4 19 -18 69 -31 110 -14 41 -34 104 -45 140 -11 36 -24 74 -29 85
-14 34 -41 118 -51 160 -24 95 -30 82 90 194 l111 104 0 60 c0 93 -32 168
-104 242 -55 57 -67 64 -125 76 l-63 14 7 60 c3 33 13 96 21 140 7 44 19 134
24 199 12 128 21 156 49 156 9 0 60 32 112 71 l94 70 80 -6 c109 -9 161 -28
217 -81 65 -61 93 -58 175 19 34 32 45 33 168 7 33 -7 69 -14 80 -16 24 -4 95
-50 188 -121 51 -39 90 -83 155 -175 77 -108 242 -319 278 -356 7 -7 30 -34
51 -60 21 -26 43 -52 48 -58 14 -15 156 -236 174 -271 8 -14 40 -53 73 -85 40
-40 83 -99 133 -186 40 -70 100 -172 134 -227 34 -54 61 -105 61 -111 0 -34
-70 -14 -126 36 -19 16 -39 30 -44 30 -10 0 -188 177 -273 273 -33 37 -64 67
-68 67 -12 0 -31 -39 -45 -95 -15 -59 -41 -138 -59 -180 -59 -138 -81 -187
-105 -230 -79 -143 -83 -155 -71 -181 12 -28 16 -28 136 3 33 9 80 19 105 23
71 12 137 30 260 72 184 64 212 71 261 70 31 -1 51 3 59 13 21 25 35 17 60
-32 13 -27 35 -66 50 -88 15 -22 37 -58 49 -80 12 -22 40 -69 62 -105 22 -36
120 -225 217 -420 176 -350 275 -530 293 -530 5 0 9 11 9 24 0 22 -20 69 -105
251 -18 39 -45 97 -60 130 -15 33 -38 84 -52 114 -14 30 -41 91 -60 135 -50
117 -178 361 -267 508 -42 69 -76 129 -76 133 0 3 -8 14 -17 25 -10 10 -27 36
-38 57 -11 21 -32 56 -46 78 -227 346 -281 425 -308 453 -18 17 -77 104 -132
193 -98 158 -170 261 -205 289 -16 14 -136 158 -194 234 -14 18 -45 59 -70 91
-65 83 -65 83 -58 91 4 3 62 -4 130 -16 125 -22 139 -26 333 -78 61 -16 175
-46 255 -67 80 -21 219 -62 310 -91 91 -29 219 -70 285 -90 129 -39 380 -122
538 -177 l97 -34 0 46 c0 43 -3 49 -33 63 -17 8 -47 19 -66 23 -18 4 -48 15
-65 25 -17 10 -56 23 -86 30 -30 7 -68 20 -85 28 -16 8 -46 19 -65 23 -144 33
-383 98 -509 138 -35 12 -69 21 -76 21 -7 0 -39 13 -71 29 -60 29 -124 49
-289 87 -16 4 -47 22 -68 39 -38 33 -106 59 -227 88 -183 44 -243 57 -325 72
-152 27 -189 36 -230 60 -22 12 -56 26 -75 30 -19 4 -39 11 -45 15 -5 4 -26
10 -45 13 -44 7 -170 63 -170 76 0 5 9 12 19 16 11 3 41 31 67 63 26 31 69 78
95 104 27 25 49 51 49 56 0 6 -11 24 -25 40 -14 17 -25 40 -25 53 0 22 1 22
33 -9 18 -18 37 -32 43 -32 25 0 96 90 220 275 36 55 75 112 85 127 11 15 19
30 19 33 0 3 23 39 50 81 28 41 50 86 50 99 0 32 -38 74 -149 165 -50 41 -91
79 -91 86 0 16 67 67 130 100 30 15 56 32 58 36 4 9 106 58 122 58 5 0 18 4
28 9 9 5 42 19 72 32 30 13 61 27 68 33 18 13 7 74 -18 101 -10 11 -36 45 -59
75 -22 30 -44 60 -49 65 -5 6 -17 24 -28 40 -10 17 -57 81 -104 143 -197 261
-205 277 -171 362 31 76 55 163 57 211 3 54 41 187 60 210 8 8 14 32 14 52 0
31 -9 48 -52 97 -149 168 -181 211 -222 296 -9 18 -26 45 -39 60 -13 16 -28
40 -32 54 -4 14 -13 32 -20 40 -7 8 -18 25 -24 38 -21 40 10 25 74 -36 118
-113 296 -245 322 -240 9 2 19 10 23 18 4 8 12 25 18 37 7 13 12 28 12 36 0 7
8 28 19 47 10 19 23 53 30 75 17 56 63 155 72 155 5 0 13 17 19 39 5 21 21 55
35 75 36 53 85 143 85 156 0 7 -29 42 -65 79 -36 37 -65 75 -65 83 0 9 14 53
31 99 16 46 36 104 44 129 7 25 21 69 30 99 17 51 17 54 -2 80 -11 14 -33 31
-50 36 -16 6 -47 24 -69 40 -21 17 -55 41 -74 54 -19 13 -37 27 -40 30 -3 4
-26 22 -52 40 -47 31 -69 72 -30 56 9 -4 37 -15 62 -23 25 -9 66 -28 91 -44
25 -15 52 -28 59 -28 7 0 35 -13 62 -30 26 -16 54 -30 61 -30 20 0 47 55 47
95 0 22 9 49 21 67 16 22 20 38 15 67 -4 27 0 48 14 76 11 22 20 49 20 60 0
12 7 30 15 41 20 26 19 78 -2 97 -29 26 -107 47 -190 52 -44 2 -92 9 -109 16
-28 12 -100 24 -209 34 -27 3 -86 11 -130 19 -44 8 -105 17 -135 20 -30 4 -79
12 -108 18 -48 10 -53 14 -62 47 -10 39 1 135 19 170 6 11 11 38 11 60 0 61
-42 93 -229 172 -53 22 -100 45 -106 50 -14 14 36 11 91 -5 66 -19 203 -46
236 -46 17 0 31 8 38 19 11 22 4 482 -9 541 -4 19 -6 130 -3 246 3 145 1 217
-7 231 -13 25 -68 40 -84 24 -6 -6 -23 -11 -39 -11 -15 0 -51 -14 -80 -31 -29
-17 -62 -35 -73 -40 -11 -5 -29 -14 -40 -21 -91 -56 -86 -55 -245 -67 -125
-10 -174 -9 -250 1 -61 8 -207 13 -410 13 -260 0 -331 -3 -409 -18 l-94 -18
-36 24 c-48 32 -148 122 -312 282 -75 72 -162 149 -195 171 -32 21 -75 54 -96
72 -69 63 -187 130 -257 146 -269 60 -790 116 -1126 121 -146 2 -376 17 -705
45 -687 58 -800 61 -900 25z m485 -94 c99 -5 223 -14 275 -20 195 -22 494 -42
765 -51 320 -11 553 -25 640 -39 33 -6 96 -13 140 -16 113 -9 331 -42 385 -59
103 -33 125 -46 365 -228 69 -52 95 -75 215 -192 58 -56 144 -134 192 -174 47
-40 93 -83 102 -97 25 -38 176 -166 278 -235 119 -81 278 -205 346 -269 66
-62 119 -71 89 -14 -27 50 -288 303 -398 386 -130 97 -144 111 -136 130 8 21
47 26 309 38 194 9 267 9 377 -2 152 -15 252 -16 421 -5 123 9 149 19 301 117
27 17 63 30 85 32 l39 2 0 -188 c0 -214 -2 -220 -62 -191 -21 10 -58 21 -83
25 -25 4 -85 21 -133 39 -90 32 -117 33 -117 5 0 -32 166 -89 342 -119 21 -4
42 -15 47 -24 4 -9 12 -93 15 -187 4 -93 9 -179 12 -190 3 -11 -1 -29 -9 -39
-13 -17 -19 -18 -83 -7 -38 7 -87 17 -109 22 -22 6 -53 13 -70 16 -16 3 -35
10 -41 15 -7 5 -51 15 -98 24 -48 8 -98 19 -112 24 -62 24 -116 2 -95 -38 9
-17 43 -39 211 -137 58 -33 182 -94 290 -140 36 -16 67 -30 70 -32 9 -8 -1
-107 -11 -114 -7 -4 -25 -3 -40 1 -34 10 -161 78 -234 125 -75 48 -237 135
-252 135 -21 0 -15 -17 15 -40 73 -57 162 -118 212 -147 99 -57 220 -113 243
-113 19 0 50 -36 42 -49 -8 -14 -31 -14 -58 1 -12 7 -56 24 -97 38 -42 15 -84
32 -95 38 -11 6 -59 28 -107 48 -144 60 -283 144 -357 216 -36 34 -81 42 -81
14 0 -27 280 -237 353 -265 12 -5 51 -22 87 -39 36 -17 119 -49 185 -70 143
-47 172 -60 179 -79 8 -19 -11 -53 -29 -53 -37 0 4 -44 75 -82 25 -13 63 -36
85 -50 22 -14 105 -57 185 -96 201 -97 390 -158 378 -121 -5 14 -25 25 -213
114 -88 42 -191 91 -230 110 -38 19 -89 42 -112 52 -24 9 -43 21 -43 26 0 12
119 4 235 -16 50 -8 133 -20 185 -26 342 -40 392 -48 402 -63 10 -17 10 -36
-1 -95 -6 -26 -15 -79 -22 -118 -6 -38 -16 -78 -21 -89 -12 -23 -37 -19 -150
28 -48 20 -100 36 -114 36 -30 0 -121 24 -169 45 -16 7 -68 27 -115 44 -84 31
-85 31 -104 11 -18 -17 -18 -22 -6 -45 8 -14 37 -37 64 -51 28 -14 53 -29 56
-32 3 -4 21 -16 40 -26 19 -10 46 -32 60 -49 l24 -30 -24 6 c-14 3 -35 9 -47
12 -14 5 -23 3 -23 -4 0 -6 11 -13 25 -17 13 -3 27 -15 30 -25 4 -10 10 -19
15 -19 5 0 35 -24 67 -53 60 -56 192 -147 212 -147 6 0 11 3 11 8 0 13 -74 88
-112 113 -21 13 -38 27 -38 31 0 3 -16 16 -36 27 -39 23 -41 41 -2 20 12 -6
57 -38 98 -69 41 -32 94 -67 117 -79 64 -32 68 -48 34 -123 -16 -35 -33 -82
-37 -103 -6 -37 -41 -112 -81 -176 -26 -42 -11 -71 63 -119 36 -23 68 -49 71
-57 3 -8 -3 -26 -14 -41 -32 -44 -122 -205 -134 -239 -15 -44 -34 -42 -90 10
-26 23 -91 78 -145 122 -55 44 -130 110 -169 146 -38 36 -81 75 -95 85 -24 19
-240 221 -296 278 -16 17 -46 44 -65 60 -70 60 -201 180 -359 331 -144 136
-210 196 -265 239 -27 22 -142 130 -255 241 -174 172 -274 260 -339 299 -16
10 -32 -10 -24 -31 3 -8 17 -20 32 -27 28 -15 180 -162 386 -374 72 -74 173
-173 225 -220 52 -48 156 -145 230 -217 123 -119 177 -168 340 -310 30 -27
114 -103 185 -171 136 -127 241 -217 430 -368 69 -56 101 -81 161 -130 18 -14
37 -26 43 -26 34 0 4 -151 -32 -158 -21 -4 -69 32 -217 168 -63 58 -133 118
-154 135 -63 47 -137 95 -146 95 -4 0 -36 20 -70 46 -68 50 -103 66 -124 58
-41 -16 -22 -60 43 -104 31 -21 62 -53 78 -80 14 -25 38 -58 53 -75 28 -30 96
-131 180 -266 95 -153 212 -306 272 -357 35 -30 35 -44 -1 -151 -16 -47 -34
-116 -41 -151 -19 -108 -43 -180 -60 -179 -14 0 -43 40 -138 194 -24 39 -69
102 -101 140 -84 103 -184 235 -215 283 -27 44 -54 53 -76 27 -6 -8 -9 -23 -5
-34 8 -26 117 -188 199 -295 64 -83 269 -389 317 -472 75 -130 230 -345 384
-534 75 -92 74 -98 -21 -123 -78 -21 -93 -27 -149 -62 -22 -13 -47 -24 -55
-24 -8 -1 -28 22 -43 51 -16 28 -50 84 -77 124 -27 40 -51 82 -55 93 -5 18
-75 119 -125 184 -47 60 -103 13 -67 -57 9 -17 26 -56 38 -86 13 -30 25 -57
29 -60 3 -3 15 -27 27 -55 12 -27 36 -81 52 -118 17 -38 31 -71 31 -74 0 -3
10 -25 21 -49 26 -51 22 -66 -32 -101 -22 -16 -58 -43 -79 -60 -20 -18 -42
-33 -47 -33 -5 0 -22 37 -37 83 -36 108 -72 200 -101 262 -26 57 -77 180 -110
270 -86 231 -201 485 -221 485 -26 0 -44 -13 -44 -31 0 -17 64 -174 80 -194 4
-5 19 -41 33 -80 14 -38 42 -113 62 -165 20 -52 47 -126 61 -163 13 -37 29
-76 34 -85 21 -37 74 -162 105 -247 18 -49 43 -117 56 -151 31 -81 24 -96 -43
-92 -52 3 -53 4 -59 38 -9 45 -70 202 -119 305 -21 44 -56 123 -78 175 -22 52
-48 109 -56 125 -9 17 -16 33 -16 37 0 4 -36 81 -79 170 -44 90 -95 197 -115
239 -37 81 -56 98 -81 73 -20 -20 -13 -46 45 -164 26 -52 59 -120 73 -150 14
-30 62 -134 107 -230 80 -169 120 -259 162 -365 11 -27 26 -61 33 -75 8 -14
26 -52 41 -85 16 -33 34 -66 41 -73 7 -7 13 -17 13 -21 0 -15 -25 -31 -48 -31
-13 0 -38 -6 -55 -14 -94 -40 -116 -48 -132 -44 -17 3 -105 185 -105 216 0 7
10 26 22 43 28 38 16 62 -36 70 -43 7 -33 -3 -87 87 -24 40 -52 85 -61 100
-22 35 -168 331 -168 340 0 14 -61 126 -86 159 -31 41 -74 46 -74 9 0 -13 9
-35 20 -48 20 -27 86 -153 115 -223 39 -94 116 -246 164 -324 28 -46 51 -89
51 -94 0 -5 -14 -7 -31 -3 -17 3 -42 6 -56 6 -14 0 -26 7 -29 18 -34 102 -119
312 -135 334 -10 13 -22 19 -33 15 -21 -8 -21 -74 -1 -101 8 -11 15 -26 15
-35 0 -18 49 -143 61 -155 5 -6 9 -17 9 -25 0 -8 8 -23 17 -34 17 -18 17 -20
-6 -38 -17 -14 -27 -16 -42 -9 -10 6 -19 18 -19 26 0 16 -5 29 -54 136 -14 31
-26 61 -26 67 0 6 -13 38 -29 73 -16 35 -39 95 -51 133 -12 39 -29 88 -37 110
-8 22 -22 60 -30 85 -23 71 -83 233 -94 252 -27 52 6 98 71 98 20 0 46 7 58
16 22 15 25 15 46 -5 23 -22 36 -24 86 -19 22 3 30 -7 71 -87 26 -49 51 -95
55 -100 5 -6 29 -51 55 -100 102 -202 234 -454 272 -520 44 -75 60 -95 76 -95
19 0 12 35 -18 96 -16 32 -75 154 -132 269 -56 116 -114 228 -128 250 -57 93
-142 271 -139 295 3 24 6 25 83 28 149 5 144 24 -57 225 -90 89 -188 191 -220
227 -31 36 -95 106 -143 155 -48 50 -129 137 -179 194 -88 101 -498 515 -569
576 -53 45 -320 298 -415 392 -59 60 -89 83 -107 83 -16 0 -25 -6 -25 -16 0
-8 96 -111 214 -227 118 -117 308 -305 423 -418 225 -223 310 -312 388 -404
27 -33 107 -118 176 -190 70 -71 138 -143 151 -160 60 -78 314 -335 331 -335
15 0 6 -39 -10 -44 -10 -3 -60 -10 -112 -16 -113 -13 -109 -15 -231 111 -174
178 -490 496 -546 551 -33 31 -81 79 -108 108 -28 28 -58 56 -67 61 -19 10
-49 2 -49 -13 0 -11 98 -112 479 -498 133 -135 249 -255 258 -267 21 -31 9
-43 -44 -43 -48 0 -56 6 -148 114 -16 20 -86 91 -154 158 -68 68 -236 234
-372 371 -137 136 -255 247 -263 247 -31 0 -26 -21 16 -67 174 -193 291 -316
394 -414 208 -198 404 -402 404 -420 0 -11 -11 -19 -31 -23 -70 -14 -78 -10
-179 92 -107 108 -269 250 -344 303 -149 104 -172 119 -188 119 -24 0 -34 -45
-17 -69 8 -10 46 -60 85 -112 39 -52 83 -116 99 -144 15 -27 39 -65 52 -83 28
-38 22 -56 -16 -47 -36 9 -48 21 -54 53 -6 31 -103 203 -121 214 -17 12 -36 9
-36 -4 0 -22 89 -190 121 -231 21 -26 28 -42 21 -49 -20 -20 -46 -2 -73 48
-14 28 -44 78 -66 110 -59 87 -123 214 -123 245 0 21 15 40 62 82 l62 55 -17
26 c-10 14 -26 26 -36 26 -10 0 -35 7 -54 15 -20 8 -48 15 -61 15 -14 0 -40 6
-58 14 -18 8 -46 17 -61 21 -18 3 -32 15 -38 33 -20 49 -42 87 -65 111 -13 12
-26 33 -30 45 -4 11 -32 55 -63 96 -31 41 -65 88 -74 103 -10 15 -39 52 -65
81 -26 29 -57 65 -69 79 -25 30 -58 35 -67 12 -4 -12 43 -76 119 -161 44 -50
161 -218 188 -269 8 -17 27 -43 42 -58 41 -40 9 -46 -57 -11 -29 15 -69 31
-88 35 -59 12 -150 55 -182 85 -16 16 -40 52 -53 79 -32 72 -200 314 -425 612
-47 62 -86 91 -102 75 -16 -16 -3 -52 44 -114 43 -57 152 -208 251 -348 65
-92 122 -187 132 -217 4 -17 2 -23 -9 -23 -8 0 -18 4 -21 10 -3 5 -40 26 -81
46 -40 19 -74 39 -74 44 0 5 -26 48 -59 97 -32 48 -77 125 -100 169 -23 45
-48 87 -56 94 -8 7 -15 16 -15 21 0 5 -13 28 -29 51 -32 49 -141 232 -156 263
-5 11 -44 72 -86 135 -112 169 -209 319 -209 325 0 9 -118 154 -188 231 -44
49 -74 74 -88 74 -52 0 -33 -45 60 -145 30 -33 85 -103 121 -155 77 -111 245
-369 245 -375 0 -5 70 -118 151 -245 26 -41 58 -95 71 -120 13 -25 35 -63 49
-85 48 -76 63 -104 58 -110 -3 -3 -41 10 -85 29 -43 19 -115 49 -159 67 -44
18 -86 37 -94 43 -14 11 -66 76 -133 168 -21 28 -64 78 -96 112 -32 34 -77 86
-99 116 -46 62 -105 126 -143 155 -14 11 -52 52 -86 90 -33 39 -107 117 -164
176 -58 58 -189 190 -291 295 -364 370 -499 495 -703 649 -102 77 -132 96
-145 88 -32 -20 -24 -49 21 -79 184 -122 425 -342 758 -690 42 -43 101 -102
130 -131 113 -107 280 -281 334 -347 31 -38 81 -91 110 -118 30 -27 80 -80
112 -119 165 -200 224 -272 281 -345 67 -86 164 -188 197 -208 12 -7 68 -42
126 -78 284 -176 481 -275 830 -417 170 -70 206 -81 347 -106 77 -14 93 -20
93 -36 0 -16 -52 -57 -87 -69 -27 -10 -39 -7 -82 14 -28 15 -56 26 -63 26 -7
0 -26 7 -43 16 -16 9 -55 25 -85 36 -30 11 -59 24 -65 28 -5 4 -28 13 -50 20
-22 7 -44 16 -50 19 -5 4 -44 20 -85 35 -41 16 -91 34 -110 42 -19 7 -46 16
-60 20 -31 8 -201 91 -214 105 -28 26 -71 -6 -47 -35 15 -17 243 -130 296
-146 22 -6 49 -15 60 -20 82 -36 117 -49 144 -55 17 -3 33 -11 36 -16 4 -5 14
-9 23 -9 9 0 31 -7 47 -16 17 -9 82 -36 145 -61 119 -46 147 -63 136 -82 -11
-17 -39 -13 -87 12 -51 28 -217 87 -242 87 -16 0 -44 11 -132 51 -22 10 -71
32 -110 49 -38 17 -77 37 -85 45 -8 7 -30 16 -47 20 -18 3 -33 11 -33 16 0 5
-6 9 -13 9 -7 0 -32 11 -57 25 -25 13 -144 75 -265 136 -121 61 -227 116 -235
123 -8 8 -27 20 -42 27 -15 8 -48 27 -73 43 -49 30 -72 25 -61 -11 9 -28 201
-149 308 -194 29 -13 55 -26 58 -31 3 -4 32 -19 65 -33 52 -23 92 -43 205
-102 66 -34 173 -83 182 -83 6 0 34 -14 62 -31 28 -18 62 -35 76 -40 54 -17
187 -66 220 -82 19 -9 77 -28 129 -41 98 -25 114 -36 100 -73 -9 -25 -41 -30
-81 -14 -13 5 -50 18 -82 27 -33 10 -80 32 -105 49 -25 17 -89 51 -141 74
-221 101 -819 407 -911 467 -143 92 -164 107 -177 125 -7 10 -39 35 -72 55
-33 20 -60 40 -60 44 0 10 -74 104 -120 155 -21 22 -53 63 -71 90 -19 28 -60
84 -91 125 -97 127 -279 375 -358 486 -68 96 -219 292 -272 354 -11 14 -48 60
-81 103 -51 65 -65 77 -86 75 -14 -2 -27 -10 -29 -19 -2 -14 50 -87 151 -209
86 -104 254 -326 321 -424 21 -31 42 -56 46 -56 6 0 30 -44 30 -55 0 -12 -43
-2 -125 31 -49 19 -108 42 -130 51 -45 17 -41 15 -150 70 -44 22 -106 53 -137
67 -32 15 -58 31 -58 35 0 4 -23 46 -51 92 -28 46 -71 120 -94 164 -48 92 -84
156 -131 238 -19 32 -34 60 -34 63 0 2 -12 23 -27 47 -15 23 -38 62 -51 87
-14 25 -31 52 -38 61 -8 8 -14 19 -14 23 0 17 -65 86 -81 86 -30 0 -34 -32 -7
-65 27 -32 103 -152 144 -225 26 -47 56 -101 67 -120 27 -49 102 -189 152
-285 23 -44 68 -125 100 -180 32 -55 75 -129 95 -165 20 -36 71 -125 113 -198
42 -73 77 -135 77 -138 0 -4 12 -23 28 -43 15 -20 36 -54 46 -76 10 -21 30
-55 45 -75 15 -19 41 -60 58 -90 123 -225 183 -293 388 -440 83 -60 180 -135
216 -167 67 -61 137 -108 429 -289 208 -129 220 -136 375 -214 247 -122 435
-228 435 -244 0 -6 -38 -49 -85 -95 -47 -45 -85 -87 -85 -91 0 -5 -9 -14 -21
-20 -18 -10 -29 -6 -77 28 -32 22 -79 51 -107 65 -84 42 -344 255 -561 460
-39 37 -78 63 -103 71 -39 11 -124 87 -415 371 -40 39 -82 77 -95 86 -61 45
-398 389 -489 500 -33 41 -76 91 -95 111 -18 21 -53 66 -77 101 -63 91 -110
120 -110 68 0 -22 114 -181 219 -306 110 -131 430 -446 737 -725 27 -25 98
-90 157 -145 59 -55 125 -109 147 -121 22 -11 84 -61 139 -112 54 -50 122
-110 152 -133 30 -23 56 -44 58 -46 2 -1 1 -6 -2 -10 -4 -3 -67 24 -140 60
-137 69 -352 172 -447 214 -30 13 -71 33 -91 44 -43 23 -59 24 -84 6 -32 -24
-11 -58 82 -137 102 -87 126 -107 287 -255 202 -184 326 -308 326 -324 0 -19
-49 -71 -68 -71 -8 0 -35 16 -60 35 -26 20 -102 75 -169 123 -67 48 -164 120
-216 160 -53 39 -102 72 -111 72 -40 0 -26 -73 17 -89 28 -11 130 -91 124 -97
-6 -7 -65 27 -155 89 -169 117 -337 227 -345 227 -5 0 -43 24 -85 54 -43 29
-91 60 -107 69 -17 8 -100 81 -185 162 -85 81 -184 171 -220 201 -69 58 -94
88 -167 199 -25 39 -58 84 -74 101 -33 34 -81 109 -129 198 -17 33 -45 79 -61
102 -16 23 -29 45 -29 49 0 4 -13 26 -30 50 -16 24 -30 47 -30 52 0 5 -16 33
-36 63 -21 30 -70 120 -111 200 -41 80 -78 150 -82 155 -4 6 -16 33 -26 60
-10 28 -28 73 -40 100 -41 91 -67 149 -100 220 -18 39 -37 86 -43 105 -5 19
-30 82 -54 140 -25 58 -51 125 -59 149 -16 51 -44 75 -59 51 -15 -23 -12 -52
11 -111 12 -30 27 -70 34 -89 33 -92 61 -160 87 -216 15 -34 28 -64 28 -68 0
-3 20 -48 44 -99 100 -210 126 -269 126 -280 0 -9 66 -127 165 -295 6 -9 32
-56 58 -104 26 -48 53 -93 60 -100 11 -10 128 -202 207 -337 8 -15 36 -53 61
-86 25 -33 65 -89 90 -124 24 -35 53 -76 64 -92 11 -16 47 -52 80 -80 168
-144 415 -384 477 -464 27 -35 165 -181 222 -234 34 -32 72 -70 226 -232 146
-152 234 -240 355 -353 182 -171 197 -186 192 -199 -7 -23 -129 -97 -160 -97
-25 0 -82 32 -107 59 -15 18 -188 169 -206 182 -18 12 -397 374 -595 569 -294
289 -522 505 -564 535 -61 43 -92 46 -101 9 -6 -22 -1 -31 27 -53 68 -53 240
-214 450 -422 119 -118 272 -267 340 -331 68 -64 121 -120 117 -123 -11 -11
-222 13 -318 36 -118 28 -210 59 -240 79 -14 10 -52 31 -85 47 -64 32 -160 93
-265 171 -118 86 -263 170 -400 229 -74 32 -143 63 -152 68 -9 6 -46 60 -83
120 -37 61 -82 126 -100 145 -19 19 -48 62 -64 95 -17 33 -53 92 -81 130 -27
39 -67 107 -89 152 -22 45 -69 120 -104 165 -77 102 -120 166 -152 227 -13 25
-45 71 -72 101 -55 61 -100 125 -131 185 -11 22 -46 72 -77 110 -31 39 -61 81
-66 95 -6 13 -25 49 -44 80 -18 30 -56 100 -85 155 -29 55 -67 125 -86 156
-19 31 -34 61 -34 67 0 29 238 204 365 268 109 55 128 72 145 127 11 39 28 65
135 217 101 142 120 187 135 315 23 198 91 447 146 542 13 23 24 52 24 65 0
13 7 32 15 42 8 11 15 30 15 43 0 13 7 34 15 46 19 30 70 226 60 235 -9 9 -45
-35 -45 -56 0 -8 -6 -23 -14 -31 -15 -17 -43 -87 -53 -131 -3 -14 -9 -29 -13
-35 -26 -35 -113 -218 -126 -264 -8 -31 -20 -72 -25 -91 -13 -43 -21 -82 -49
-230 -11 -63 -28 -142 -36 -175 -8 -33 -18 -73 -21 -90 -3 -16 -24 -55 -47
-86 -49 -67 -94 -129 -135 -184 -16 -22 -39 -61 -50 -87 -29 -69 -94 -99 -123
-57 -13 21 -15 20 -38 -25 -25 -47 -92 -102 -110 -91 -6 4 -7 18 -4 33 15 61
45 148 59 169 8 12 15 29 15 36 0 16 85 174 134 252 18 27 41 68 52 90 10 22
22 42 27 43 4 2 7 11 7 19 0 9 -26 -11 -60 -46 -33 -34 -60 -66 -60 -72 0 -5
-15 -31 -32 -57 -50 -73 -57 -85 -68 -112 -6 -14 -14 -32 -20 -40 -20 -32 -48
-97 -58 -135 -6 -22 -22 -74 -36 -115 -14 -41 -28 -88 -31 -104 -3 -16 -19
-40 -34 -55 -75 -71 -139 -119 -149 -112 -13 8 28 167 67 256 25 58 113 234
142 285 5 8 13 25 19 37 5 12 20 39 33 60 14 22 46 80 72 131 25 51 57 104 69
120 33 40 136 206 136 219 0 19 80 76 174 123 105 53 170 107 145 121 -11 6
-34 -1 -75 -21 -33 -16 -93 -45 -134 -64 -94 -45 -111 -60 -154 -132 -19 -33
-44 -68 -55 -78 -12 -11 -21 -22 -21 -26 0 -4 -28 -50 -63 -101 -34 -52 -82
-132 -106 -179 -24 -47 -47 -89 -51 -95 -7 -9 -36 -62 -94 -170 -57 -107 -90
-194 -136 -355 -12 -41 -26 -86 -30 -100 -5 -14 -12 -45 -15 -70 -4 -25 -18
-83 -32 -130 -13 -47 -28 -101 -32 -121 -4 -19 -10 -40 -14 -45 -6 -11 -52
-218 -62 -279 -4 -28 -1 -46 9 -60 19 -27 29 -15 37 48 14 108 39 215 69 292
16 44 30 87 30 95 0 14 30 109 38 120 7 9 114 -118 133 -158 20 -42 20 -53 11
-290 -6 -154 -7 -294 -1 -371 9 -122 6 -157 -21 -266 -18 -72 -31 -95 -62
-111 -35 -18 -100 -106 -132 -178 -14 -31 -41 -71 -62 -90 -32 -29 -35 -37
-29 -65 4 -17 17 -44 29 -59 12 -15 47 -63 77 -107 29 -44 75 -108 101 -141
26 -34 55 -77 65 -95 10 -19 30 -52 45 -74 14 -22 28 -62 32 -89 3 -27 10 -54
15 -60 16 -20 71 -169 81 -220 6 -27 22 -74 36 -105 15 -31 44 -94 66 -141 55
-117 73 -157 94 -215 9 -27 21 -54 24 -60 4 -5 17 -39 29 -75 12 -36 28 -74
35 -85 12 -18 33 -66 66 -150 4 -11 19 -45 33 -75 14 -30 41 -95 62 -145 20
-49 40 -99 45 -110 5 -11 12 -31 16 -45 7 -26 160 -341 217 -445 17 -33 65
-109 104 -169 40 -59 73 -113 73 -119 0 -11 -168 -102 -232 -126 -40 -15 -37
-51 7 -87 19 -15 35 -33 35 -40 0 -7 4 -14 8 -16 5 -1 28 -30 52 -63 24 -33
46 -62 49 -65 4 -3 26 -32 50 -65 25 -33 47 -62 50 -65 3 -3 20 -25 36 -50 17
-25 38 -54 48 -64 9 -11 17 -23 17 -26 0 -4 12 -13 26 -20 22 -12 27 -12 34 0
17 26 11 51 -20 90 -16 21 -30 41 -30 45 0 8 -56 83 -74 100 -14 13 -156 202
-179 237 -9 15 -17 34 -17 42 0 17 73 57 147 82 113 36 115 38 88 91 -14 29
-14 34 9 79 15 29 40 59 63 74 21 14 40 27 43 30 3 3 37 25 75 50 119 76 225
156 225 171 0 15 -33 10 -67 -11 -18 -10 -63 -36 -100 -56 -37 -21 -86 -49
-108 -63 -22 -14 -60 -36 -85 -49 -25 -13 -62 -37 -82 -53 -20 -16 -44 -29
-52 -29 -8 0 -29 26 -46 58 -85 153 -100 180 -100 186 0 3 17 5 38 5 83 -3
410 28 492 47 45 10 74 12 90 6 28 -11 132 17 160 43 9 8 30 15 46 15 16 0 39
7 51 15 12 9 42 14 74 13 43 0 68 7 128 36 80 41 149 59 286 76 50 6 116 16
147 22 50 9 61 8 90 -9 18 -11 69 -34 113 -50 188 -72 230 -78 230 -33 0 21
-7 27 -45 36 -63 16 -145 50 -209 86 l-54 30 -167 -11 c-204 -13 -190 -13
-190 0 0 12 119 129 131 129 5 0 17 10 28 21 23 25 16 47 -27 84 l-27 23 41
43 c22 24 61 79 88 122 46 73 49 84 57 170 11 128 16 149 55 261 19 55 34 102
34 104 0 7 72 -5 104 -17 34 -14 32 -29 -20 -139 -19 -41 -34 -78 -34 -83 0
-5 -4 -17 -9 -27 -52 -96 -64 -149 -39 -165 25 -16 46 8 70 80 18 53 45 118
69 168 5 11 22 56 37 100 19 54 34 81 46 83 10 2 43 -21 84 -60 37 -35 90 -81
117 -103 94 -74 250 -218 263 -242 23 -41 56 -40 148 7 l84 44 42 -22 c59 -29
233 -41 263 -19 30 24 8 37 -76 47 -102 12 -144 23 -144 40 0 8 11 17 25 20
36 8 39 52 5 74 -37 24 -66 75 -58 104 4 19 -5 33 -50 75 -81 77 -227 256
-228 280 0 12 -3 34 -5 49 -8 46 14 41 92 -19 146 -113 163 -124 196 -129 43
-6 49 0 73 70 31 89 41 91 122 19 37 -33 84 -71 103 -84 19 -13 69 -49 110
-79 41 -31 110 -80 153 -110 43 -29 93 -68 111 -86 68 -68 87 -74 235 -74 90
0 148 5 180 15 295 94 376 123 472 170 61 30 117 55 124 55 6 0 17 -11 23 -25
11 -23 15 -25 71 -20 32 2 142 5 243 6 100 1 189 4 196 6 20 8 14 32 -15 50
-24 16 -50 18 -210 16 -101 -1 -183 2 -183 6 0 5 34 25 76 46 68 33 188 122
222 163 18 23 15 60 -6 71 -11 6 -32 6 -58 -1 -32 -9 -57 -7 -134 10 -271 60
-326 77 -333 103 -8 30 7 70 46 125 32 45 46 54 134 90 54 23 120 46 148 53
27 7 64 23 83 37 18 14 49 28 70 30 69 10 81 14 87 34 4 13 -4 34 -23 63 -48
68 -78 157 -55 157 16 0 83 -76 83 -94 0 -11 6 -27 13 -35 56 -67 176 -312
232 -476 15 -44 38 -102 51 -130 13 -27 32 -75 43 -105 10 -30 35 -93 55 -140
20 -46 36 -92 36 -101 0 -19 -68 -67 -112 -80 -16 -4 -51 -4 -76 1 -63 11
-501 -5 -535 -21 -19 -8 -37 -9 -66 -2 -48 13 -138 -4 -234 -41 -34 -13 -89
-26 -123 -28 -107 -7 -347 -142 -461 -259 -74 -77 -103 -129 -103 -186 0 -25
-6 -48 -16 -58 -25 -24 -95 -192 -88 -210 12 -30 41 -16 65 33 72 142 95 134
54 -18 -9 -36 -21 -69 -25 -75 -14 -19 -17 -65 -6 -81 11 -14 14 -14 33 3 12
10 62 99 112 198 56 113 102 192 123 211 60 58 257 174 294 174 12 0 15 -6 10
-22 -54 -180 -50 -401 9 -517 46 -91 175 -221 219 -221 29 0 16 32 -37 94 -90
103 -148 215 -127 241 6 7 25 15 43 18 18 3 104 30 192 61 88 31 169 56 180
56 11 0 43 11 70 25 28 13 58 25 68 25 10 0 65 23 122 52 57 29 108 49 112 44
4 -4 11 -38 15 -74 4 -37 10 -93 14 -124 5 -45 1 -73 -17 -134 -22 -71 -28
-81 -81 -123 -89 -71 -110 -87 -145 -105 -20 -10 -39 -31 -47 -51 -16 -36 -49
-48 -73 -24 -6 6 -41 12 -77 12 -65 2 -68 1 -99 -35 -30 -34 -53 -44 -123 -52
-17 -2 -48 -9 -70 -15 -21 -6 -66 -11 -99 -12 -79 0 -130 -18 -130 -44 0 -14
9 -21 34 -26 19 -4 42 -17 52 -30 16 -22 19 -22 82 -11 35 7 93 12 129 12 42
0 89 8 136 24 96 33 282 115 307 136 11 9 38 27 59 40 98 59 206 180 206 231
0 5 9 29 21 53 17 37 19 50 10 83 -12 45 -26 186 -22 226 5 59 -47 227 -91
288 -6 9 -8 24 -4 34 5 14 13 16 44 10 20 -4 46 -15 58 -26 28 -26 35 -24 71
14 17 17 42 40 55 49 15 10 28 31 32 51 7 39 67 102 89 94 8 -3 27 -43 42 -89
44 -136 50 -140 154 -116 28 6 54 8 57 5 4 -4 9 -55 11 -114 3 -60 9 -135 15
-168 19 -114 22 -682 4 -880 -8 -99 -18 -232 -22 -295 -6 -115 -20 -212 -48
-345 -9 -38 -16 -73 -16 -77 0 -4 -62 -39 -138 -78 -76 -39 -176 -95 -223
-125 -46 -30 -86 -55 -90 -55 -4 0 -49 -30 -100 -66 -52 -37 -110 -76 -129
-86 -19 -11 -55 -31 -80 -45 -25 -14 -92 -50 -150 -80 -58 -31 -131 -74 -164
-97 -32 -23 -68 -48 -80 -56 -11 -8 -37 -26 -56 -41 -42 -32 -190 -107 -275
-139 -86 -32 -92 -35 -395 -185 -151 -74 -281 -142 -290 -150 -18 -17 -40 -20
-40 -6 0 5 6 24 14 42 14 33 44 61 171 164 33 27 65 54 71 59 6 6 39 31 74 56
35 25 90 68 124 96 78 65 194 143 271 182 33 17 100 55 149 86 48 31 91 56 95
56 8 0 65 54 83 78 7 10 36 35 63 57 28 22 75 61 105 86 30 25 76 60 102 77
25 18 52 38 60 45 7 7 21 18 30 23 9 5 41 33 71 62 31 28 60 52 66 52 18 0
188 173 220 224 48 77 40 120 -43 221 -79 97 -123 121 -199 111 -123 -16 -158
-23 -175 -39 -10 -9 -24 -17 -30 -17 -7 0 -60 -28 -119 -63 -60 -35 -128 -72
-153 -82 -25 -11 -63 -31 -85 -45 -22 -15 -65 -41 -95 -59 -64 -37 -145 -93
-180 -125 -14 -13 -46 -37 -72 -54 -27 -18 -67 -45 -90 -61 -24 -15 -83 -50
-133 -76 -49 -26 -117 -67 -150 -90 -64 -45 -135 -88 -175 -106 -14 -6 -32
-15 -40 -20 -8 -4 -42 -22 -75 -40 -33 -18 -76 -42 -95 -54 -19 -12 -62 -34
-95 -49 -126 -58 -193 -93 -270 -142 -44 -28 -105 -64 -135 -79 -30 -16 -62
-34 -70 -41 -12 -10 -136 -64 -147 -64 -8 0 -1 44 12 76 18 44 37 179 41 299
1 50 12 140 24 200 32 170 43 305 30 355 -15 56 -87 133 -139 148 -52 16 -84
15 -164 -7 -85 -23 -109 -46 -156 -141 -33 -67 -40 -75 -66 -75 -23 -1 -34 -9
-56 -45 -40 -66 -45 -90 -20 -90 30 0 35 -18 14 -47 -79 -113 -157 -285 -169
-373 -4 -30 -19 -69 -37 -98 -17 -26 -42 -65 -57 -87 -14 -22 -45 -78 -69
-125 -45 -90 -50 -100 -95 -170 -40 -63 -73 -96 -110 -111 -17 -7 -88 -43
-158 -81 -70 -37 -133 -68 -140 -68 -19 0 -99 78 -218 210 -57 63 -132 144
-167 180 -35 36 -105 116 -154 179 -97 125 -109 135 -158 148 -18 4 -31 13
-29 18 4 15 88 7 115 -10 30 -20 70 -19 81 2 13 25 5 42 -41 88 -22 22 -60 68
-84 103 -25 34 -52 66 -62 71 -23 12 -41 3 -41 -21 0 -22 43 -100 65 -118 24
-20 7 -30 -50 -30 -76 0 -134 33 -151 86 -10 34 -122 260 -143 289 -4 6 -18
35 -31 65 -13 30 -34 70 -47 88 -26 34 -60 42 -70 16 -6 -16 7 -44 123 -259
29 -55 60 -114 68 -131 8 -17 19 -35 25 -38 19 -12 13 -46 -8 -46 -26 0 -81
47 -81 70 0 10 -7 23 -15 30 -8 7 -15 21 -15 31 0 10 -12 40 -27 66 -16 27
-41 74 -58 106 -30 58 -56 83 -75 72 -6 -3 -10 -15 -10 -26 0 -18 60 -140 124
-249 14 -25 26 -48 26 -52 0 -26 -126 18 -150 52 -9 14 -20 38 -24 53 -4 16
-18 47 -33 70 -19 30 -93 216 -93 234 0 1 -9 7 -20 13 -16 8 -22 6 -35 -14
-15 -22 -14 -30 5 -108 12 -45 24 -118 27 -161 l6 -78 -109 8 c-119 9 -203 9
-368 3 -94 -4 -110 -2 -121 13 -16 22 -23 149 -31 559 -6 329 -4 388 16 388 6
0 33 -24 60 -52 42 -45 50 -59 50 -93 0 -69 65 -464 89 -545 6 -19 11 -48 11
-65 0 -43 18 -102 36 -120 13 -13 19 -13 31 -3 15 12 12 67 -7 133 -9 29 -19
92 -40 245 -6 41 -16 104 -22 140 -10 57 -12 92 -9 130 2 21 20 9 50 -32 18
-24 69 -81 114 -128 45 -47 94 -100 109 -118 14 -18 35 -32 47 -32 11 0 55 15
98 34 43 19 96 39 118 45 42 11 75 52 75 94 0 12 -21 54 -46 92 -25 39 -70
115 -99 170 -76 146 -116 218 -126 232 -12 14 -91 158 -129 233 -104 209 -149
298 -177 353 -18 34 -39 78 -48 97 -8 19 -20 42 -25 50 -9 13 -62 130 -90 195
-4 11 -27 60 -49 108 -23 49 -41 92 -41 97 0 5 -23 64 -51 132 -28 68 -64 155
-80 193 -15 39 -42 109 -58 157 -43 128 -52 143 -81 143 -23 0 -25 -4 -24 -40
1 -22 13 -66 28 -97 14 -31 26 -61 26 -67 0 -6 6 -25 14 -43 43 -98 116 -285
116 -297 0 -7 8 -30 19 -50 10 -20 23 -47 29 -61 6 -14 19 -45 30 -70 11 -25
30 -66 41 -92 12 -26 21 -50 21 -54 0 -28 452 -926 486 -965 8 -8 14 -19 14
-23 0 -4 16 -31 35 -61 19 -30 49 -83 66 -117 17 -35 54 -100 81 -146 54 -90
54 -97 -3 -112 -19 -5 -62 -17 -97 -27 l-63 -18 -74 80 c-41 44 -103 114 -137
155 -35 41 -68 80 -74 85 -6 6 -51 55 -99 110 -49 55 -108 118 -132 141 -23
22 -48 55 -54 72 -7 19 -21 34 -38 40 -29 10 -135 135 -226 267 -90 129 -215
318 -215 324 0 3 -14 25 -30 49 -27 41 -53 110 -70 192 -5 19 -13 49 -18 65
-13 37 -68 244 -82 305 -5 25 -19 79 -31 120 -12 41 -28 104 -36 140 -8 36
-25 112 -38 170 -14 58 -27 128 -31 157 -7 56 -32 90 -60 79 -13 -5 -15 -16
-11 -59 13 -131 108 -553 183 -811 8 -26 14 -56 14 -66 0 -9 18 -74 41 -144
45 -139 96 -232 256 -462 l91 -131 0 -89 c0 -49 4 -250 8 -448 5 -197 6 -462
1 -589 -7 -202 -6 -233 8 -246 12 -12 19 -13 33 -5 14 10 18 33 21 160 8 248
6 821 -1 952 -7 114 -7 122 10 122 16 0 112 -98 135 -137 18 -30 28 -140 37
-398 5 -154 14 -332 20 -395 6 -65 8 -170 5 -240 -8 -165 -12 -160 156 -161
90 0 130 -4 146 -15 32 -20 40 -76 20 -138 -28 -87 -47 -176 -47 -219 0 -74
-2 -74 -146 -48 -113 21 -287 79 -297 100 -2 3 -1 69 3 146 8 155 2 188 -33
183 -22 -3 -22 -6 -25 -156 -3 -178 5 -170 -117 -118 -69 30 -104 38 -260 56
-98 12 -183 24 -187 26 -17 11 -6 44 48 137 30 53 63 121 73 150 11 28 26 66
35 82 9 17 16 35 16 41 0 6 11 32 25 57 45 79 60 144 60 258 0 87 3 108 18
123 20 21 20 24 2 56 -18 32 -19 83 -1 162 10 45 15 155 18 378 l3 315 -25 0
c-45 0 -50 -28 -50 -300 0 -137 -5 -277 -11 -310 -6 -33 -14 -88 -18 -122 -4
-34 -10 -66 -14 -70 -4 -4 -29 -1 -55 6 -26 8 -65 17 -87 22 -73 14 -246 66
-257 77 -7 7 -2 35 16 89 44 130 57 175 66 232 5 29 13 65 19 80 25 63 58 323
46 368 -4 16 -13 23 -30 23 -31 0 -41 -16 -136 -208 -39 -79 -94 -173 -121
-210 -71 -93 -113 -154 -121 -174 -14 -38 -41 -39 -95 -2 -29 19 -52 38 -52
42 0 13 36 80 73 135 96 146 148 229 174 277 15 29 34 62 40 74 7 12 13 29 13
39 0 36 -35 12 -80 -54 -25 -36 -63 -92 -86 -125 -35 -51 -114 -186 -161 -276
-8 -15 -19 -30 -24 -34 -11 -6 -67 27 -94 56 -16 18 -16 20 -1 20 16 0 28 12
98 95 82 97 258 398 258 440 0 22 -27 18 -45 -7 -18 -27 -116 -176 -130 -200
-17 -28 -67 -99 -125 -177 -30 -40 -62 -84 -71 -97 -24 -37 -25 -37 -67 -10
-51 32 -58 43 -39 64 23 25 327 483 327 492 0 4 11 19 25 34 38 41 96 136 90
146 -18 29 -306 -329 -430 -534 -11 -18 -31 -52 -45 -74 -14 -23 -33 -42 -42
-42 -15 0 -149 111 -156 129 -1 4 25 34 60 67 88 84 299 297 543 548 l210 217
17 82 c10 45 27 111 38 147 12 36 31 97 43 135 23 74 45 111 59 97 5 -5 15
-46 23 -91 17 -97 28 -116 57 -100 19 10 20 17 14 98 -3 47 -13 140 -21 206
-16 128 -22 199 -56 585 -18 204 -19 260 -10 335 6 50 15 146 21 215 6 69 17
175 25 235 8 61 15 172 15 248 0 76 5 161 10 189 6 28 10 106 10 173 0 67 4
146 10 176 10 54 32 239 52 419 5 52 18 118 28 145 10 28 24 76 30 108 6 31
24 93 40 138 23 65 39 92 86 143 33 35 80 74 105 88 49 27 185 126 285 207 34
28 88 66 120 85 33 19 72 46 87 60 16 15 41 34 55 44 54 34 138 101 172 137
19 20 58 50 85 68 91 57 202 145 409 322 166 143 202 172 258 209 31 20 71 56
90 80 18 24 49 54 68 67 19 13 37 26 40 29 3 3 31 23 63 43 31 21 77 55 102
75 124 102 180 146 292 228 68 49 158 115 200 146 43 32 85 61 93 65 29 13
205 115 232 135 46 32 141 48 258 43 58 -3 186 -9 285 -14z m-239 -2926 c32
-19 63 -35 68 -35 6 0 42 -15 81 -34 38 -18 90 -39 115 -47 25 -7 74 -25 110
-40 57 -25 67 -26 86 -14 26 17 34 9 109 -100 27 -38 65 -90 85 -115 52 -64
103 -141 97 -146 -2 -3 -24 0 -48 5 -41 10 -207 32 -339 46 -30 4 -82 15 -116
26 -61 20 -61 20 -117 114 -32 51 -57 98 -57 104 0 13 12 14 26 3 19 -18 248
-97 324 -113 73 -16 84 -15 88 3 2 13 -8 20 -40 28 -24 6 -66 22 -93 35 -28
13 -64 27 -80 31 -16 4 -63 24 -105 45 -41 20 -99 45 -128 54 -49 16 -55 22
-92 86 -67 114 -66 119 26 64z m-2153 -558 c29 -42 90 -130 136 -195 78 -108
84 -121 87 -172 2 -30 17 -102 33 -160 43 -158 43 -156 48 -285 12 -335 12
-381 3 -395 -5 -8 -11 -12 -13 -10 -2 3 -29 43 -61 90 -31 47 -96 139 -144
205 -71 97 -92 121 -115 123 -32 4 -45 -18 -29 -53 6 -13 48 -70 94 -127 46
-57 129 -165 186 -241 57 -75 118 -152 136 -170 17 -17 37 -43 43 -57 10 -24
43 -64 173 -210 32 -36 97 -117 145 -180 83 -109 347 -382 445 -460 24 -19 69
-58 100 -85 58 -54 170 -141 275 -215 226 -160 306 -213 389 -255 32 -16 69
-44 83 -62 13 -17 30 -30 36 -28 7 3 19 1 27 -4 12 -8 12 -13 -4 -29 -33 -37
-53 -34 -114 20 -53 47 -172 138 -308 235 -63 46 -104 56 -104 25 0 -24 107
-121 194 -176 56 -35 226 -195 226 -213 0 -17 -39 -46 -55 -40 -8 4 -15 15
-15 25 0 17 -100 106 -166 148 -31 20 -161 123 -203 163 -14 13 -58 47 -97 77
-40 29 -75 57 -78 63 -4 6 -25 15 -46 21 -22 6 -40 15 -40 19 0 5 -141 150
-313 323 -172 172 -325 329 -340 348 -14 19 -37 49 -49 65 -71 94 -223 240
-251 240 -39 0 -27 -24 54 -107 45 -45 119 -130 163 -188 45 -57 132 -159 195
-225 62 -66 164 -173 225 -238 61 -65 140 -141 176 -169 79 -63 297 -242 391
-320 37 -32 72 -58 77 -58 5 0 17 -9 27 -21 30 -32 198 -157 228 -168 33 -13
35 -28 5 -36 -13 -3 -49 -18 -80 -32 -51 -24 -60 -25 -89 -13 -18 8 -53 31
-78 51 -25 21 -62 51 -81 67 -19 16 -62 47 -95 69 -33 22 -90 69 -128 103 -54
50 -67 67 -65 88 3 24 -1 27 -37 33 -33 4 -57 22 -145 105 -175 165 -238 235
-310 339 -14 20 -33 46 -42 58 -10 12 -63 83 -119 157 -56 74 -133 172 -170
216 -38 45 -69 85 -69 88 0 4 -6 13 -12 20 -18 18 -60 71 -167 206 -49 63 -99
126 -110 140 -16 20 -22 23 -33 12 -24 -23 22 -96 209 -336 43 -55 83 -104 88
-110 6 -6 24 -29 40 -51 17 -22 32 -42 35 -45 27 -25 112 -131 108 -135 -11
-12 -485 475 -560 577 -30 40 -71 100 -91 133 -19 33 -80 123 -134 200 -111
157 -117 169 -100 187 7 7 33 51 58 96 43 81 80 128 133 165 31 21 53 61 72
131 27 96 34 161 25 212 -16 83 -17 495 -1 524 15 28 7 36 93 -93z m2647 -47
c63 -5 149 -12 190 -16 68 -6 82 -11 155 -58 44 -28 87 -60 95 -71 37 -52 108
-118 142 -135 21 -10 53 -30 71 -45 98 -82 526 -315 852 -465 171 -78 259
-127 284 -156 60 -72 200 -285 201 -306 0 -4 -80 -67 -177 -140 -98 -73 -183
-137 -189 -143 -6 -5 -22 -17 -34 -25 -12 -8 -38 -27 -58 -43 -67 -52 -46 -16
42 71 133 132 136 136 136 158 0 26 -12 34 -166 115 -65 34 -159 86 -209 114
-49 29 -133 74 -185 99 -137 66 -222 114 -329 185 -51 34 -108 71 -127 82 -19
10 -51 28 -71 40 -20 11 -51 31 -68 45 -18 13 -36 24 -41 25 -11 1 -72 47
-161 122 -37 33 -113 91 -168 130 -55 39 -107 78 -116 86 -8 9 -39 36 -68 61
-50 43 -191 226 -191 249 0 6 -4 11 -10 11 -5 0 -10 7 -10 16 0 14 8 16 48 10
26 -3 99 -10 162 -16z m1230 -122 c40 -26 59 -43 49 -45 -18 -4 -99 39 -124
67 -31 34 4 24 75 -22z m-3400 -530 c19 -28 48 -69 63 -92 15 -23 32 -51 37
-63 5 -13 36 -68 70 -122 33 -55 60 -103 60 -106 0 -16 139 -287 169 -330 20
-28 46 -71 59 -96 29 -57 60 -76 246 -150 44 -18 241 -119 311 -159 17 -10 50
-29 75 -43 25 -13 74 -42 110 -64 147 -90 429 -212 491 -213 9 0 27 -8 40 -19
l23 -18 -23 -13 c-45 -24 -241 -186 -241 -199 0 -17 -81 -43 -218 -71 -81 -16
-156 -30 -167 -30 -48 1 -256 167 -479 384 -45 43 -107 99 -139 124 -32 25
-96 94 -143 152 -109 137 -235 285 -254 300 -12 9 -135 152 -157 183 -22 30
-23 39 -22 242 0 221 11 434 23 453 11 18 29 5 66 -50z m4549 -295 c6 -16 29
-55 51 -88 21 -33 51 -82 66 -110 14 -27 40 -67 56 -88 35 -44 32 -61 -18 -82
-70 -29 -71 -28 -168 95 -111 142 -140 195 -110 207 19 7 46 -21 79 -84 33
-62 81 -117 96 -108 9 6 -16 73 -37 96 -8 8 -14 20 -14 25 0 5 -16 32 -36 61
-27 40 -35 59 -30 78 9 36 50 34 65 -2z m-350 -82 c8 -5 16 -23 17 -39 5 -38
31 -86 98 -177 65 -87 105 -156 99 -172 -13 -36 -83 14 -83 59 0 11 -13 32
-28 46 -37 35 -112 154 -112 178 -1 10 -9 37 -20 59 -24 51 -11 71 29 46z
m137 -43 c29 0 37 -6 60 -46 38 -67 133 -191 155 -203 30 -16 23 -44 -14 -57
-57 -20 -74 -16 -87 23 -12 37 -128 214 -172 264 -29 32 -27 46 5 30 10 -6 34
-11 53 -11z m-1592 -221 c61 -30 134 -63 161 -75 28 -11 82 -39 120 -61 38
-23 74 -41 80 -41 6 0 36 -12 66 -26 395 -191 405 -200 224 -198 -61 1 -166 8
-235 14 l-125 13 -51 51 c-27 28 -104 100 -170 161 -195 180 -227 215 -192
215 6 0 61 -24 122 -53z m2595 -73 c34 -21 52 -25 84 -21 67 9 79 -1 106 -92
14 -45 28 -84 32 -87 4 -2 19 -43 34 -92 14 -48 33 -102 41 -120 8 -18 14 -37
14 -43 0 -6 9 -29 19 -52 10 -23 27 -67 36 -97 20 -62 25 -75 54 -144 12 -27
21 -56 21 -65 0 -9 16 -47 35 -85 19 -38 33 -71 31 -74 -9 -9 -181 -42 -196
-37 -10 3 -25 36 -39 88 -25 87 -29 132 -17 158 5 12 -2 22 -28 37 -22 13 -38
32 -42 49 -4 15 -18 51 -31 78 -13 28 -33 77 -44 110 -12 33 -29 78 -38 100
-21 47 -48 118 -91 239 -18 48 -45 115 -61 147 -37 75 -37 88 4 56 17 -15 52
-38 76 -53z m-1119 31 c17 -21 6 -32 -104 -109 -51 -36 -98 -71 -105 -80 -8
-9 -20 -16 -29 -16 -22 0 -102 -86 -102 -110 0 -37 25 -24 165 80 57 43 156
122 182 147 18 16 51 5 59 -20 7 -23 0 -30 -129 -128 -43 -32 -107 -75 -142
-94 -74 -42 -116 -81 -108 -101 3 -8 8 -14 13 -14 14 0 68 30 80 45 7 8 16 15
20 15 10 0 129 79 176 117 19 15 52 43 74 61 28 24 45 32 60 27 44 -14 21 -45
-81 -110 -161 -103 -200 -132 -205 -154 -4 -15 -2 -26 7 -32 8 -4 14 -21 14
-36 0 -41 31 -41 101 1 33 20 62 36 66 36 5 0 40 20 80 45 76 47 107 54 148
30 14 -8 44 -14 68 -15 24 0 53 -5 65 -12 24 -13 115 -34 217 -49 36 -6 69
-14 74 -19 23 -22 -85 -90 -142 -90 -35 0 -79 -17 -103 -41 -8 -8 -38 -26 -65
-38 -27 -13 -89 -43 -139 -67 -78 -37 -164 -67 -370 -130 -42 -13 -161 -31
-304 -48 -54 -6 -101 13 -155 63 -28 26 -96 78 -151 116 -187 128 -364 269
-353 280 4 4 75 6 158 6 83 -1 196 1 251 5 113 8 77 -13 357 204 154 119 170
132 268 205 68 50 67 50 84 30z m-2109 -108 c24 -18 69 -49 98 -68 55 -34 333
-218 340 -224 1 -2 5 -21 7 -42 2 -21 7 -64 12 -96 13 -91 2 -92 -89 -2 -45
44 -94 93 -108 110 -14 16 -51 57 -82 90 -31 33 -73 80 -95 104 -21 24 -63 67
-91 94 -76 72 -71 93 8 34z m2299 -124 c0 -4 -12 -31 -27 -60 -25 -47 -37 -57
-113 -99 -47 -25 -100 -48 -117 -51 -18 -3 -33 -9 -33 -14 0 -5 -9 -13 -20
-19 -15 -8 -20 -8 -20 2 0 7 39 38 87 68 85 54 124 84 191 148 34 31 52 40 52
25z m-1855 -63 c3 -5 2 -10 -4 -10 -5 0 -13 5 -16 10 -3 6 -2 10 4 10 5 0 13
-4 16 -10z m150 -100 c3 -5 1 -10 -4 -10 -6 0 -11 5 -11 10 0 6 2 10 4 10 3 0
8 -4 11 -10z m35 -25 c10 -12 10 -15 -4 -15 -9 0 -16 7 -16 15 0 8 2 15 4 15
2 0 9 -7 16 -15z m77 -45 c21 -11 45 -20 55 -20 18 0 33 -33 23 -51 -9 -14
-25 -7 -85 38 -71 53 -66 73 7 33z m-3172 -8 c11 -10 47 -47 79 -82 68 -74
321 -341 475 -501 57 -59 100 -112 97 -118 -4 -6 -22 -11 -39 -11 -31 0 -197
-24 -267 -38 -41 -9 -110 10 -132 36 -8 9 -23 40 -33 67 -10 28 -28 74 -41
103 -13 29 -24 55 -24 58 0 10 -103 239 -113 251 -5 7 -11 45 -14 84 -2 39 -8
82 -14 96 -11 29 -12 73 -1 73 4 -1 16 -9 27 -18z m2188 -358 c3 -4 0 -23 -8
-43 -20 -54 -44 -166 -56 -260 -5 -46 -17 -98 -26 -115 -24 -47 -97 -147 -132
-180 -30 -29 -30 -29 -58 -11 -15 10 -51 35 -79 56 -28 22 -54 39 -58 39 -9 0
-60 36 -104 73 -18 15 -38 27 -45 27 -16 1 -67 46 -67 59 0 11 6 13 95 31 180
37 186 40 250 106 33 33 99 91 146 127 47 37 92 73 99 82 13 15 32 20 43 9z
m4315 -265 c4 -85 -30 -293 -58 -353 -25 -55 -103 -136 -131 -136 -17 0 -19 8
-19 99 0 55 4 101 8 103 5 2 32 29 61 61 l52 59 -5 81 c-2 45 -8 90 -11 99 -5
13 4 21 37 36 24 11 48 19 53 18 6 -2 11 -32 13 -67z m-122 16 c4 -8 1 -21 -5
-29 -7 -8 -11 -40 -9 -72 2 -70 -21 -117 -56 -112 -20 3 -21 10 -24 105 l-3
101 28 10 c41 15 63 14 69 -3z m-1067 -42 c35 -21 39 -38 12 -53 -29 -15 -50
-12 -78 10 -26 20 -77 27 -87 11 -3 -5 -18 -12 -33 -16 -16 -3 -43 -14 -61
-22 -18 -9 -35 -13 -38 -10 -3 2 17 15 43 27 26 12 61 28 76 37 67 36 121 41
166 16z m2046 -20 c112 -76 205 -155 205 -175 0 -21 -58 -98 -73 -97 -6 1 -52
45 -102 98 -49 53 -102 104 -117 113 -34 21 -34 26 -6 61 27 34 43 34 93 0z
m-731 -97 c16 -21 21 -42 21 -88 0 -79 15 -91 82 -65 93 35 86 38 78 -34 -13
-123 -62 -270 -111 -334 -13 -18 -24 -35 -24 -39 0 -4 -20 -41 -45 -82 -25
-40 -45 -77 -45 -80 0 -4 -20 -39 -44 -78 -49 -78 -102 -133 -156 -162 -19
-10 -56 -38 -82 -62 -55 -53 -73 -49 -64 12 4 22 15 133 25 246 21 239 24 249
129 358 38 39 77 83 86 97 19 29 61 150 71 205 14 77 36 141 47 138 7 -3 21
-17 32 -32z m-1133 -29 c-5 -5 -17 -7 -26 -3 -14 5 -15 9 -5 21 10 12 16 13
27 4 9 -8 10 -16 4 -22z m-4740 -14 c24 -12 64 -41 89 -65 25 -24 58 -53 74
-64 37 -27 30 -49 -21 -63 -52 -15 -97 -14 -137 3 -65 27 -60 51 10 47 54 -2
84 6 84 24 0 19 -30 23 -175 24 -127 1 -133 2 -188 32 -32 17 -56 36 -54 43 2
6 26 14 53 18 27 4 67 11 88 15 65 13 131 8 177 -14z m6410 10 c27 -16 31 -16
58 0 l30 17 83 -81 c46 -44 93 -85 106 -90 30 -12 29 -53 -4 -96 -14 -18 -29
-33 -33 -33 -4 0 -47 38 -94 84 -107 105 -183 166 -208 166 -28 0 -36 -30 -14
-47 60 -43 285 -248 285 -259 0 -19 -49 -74 -66 -74 -8 0 -52 35 -97 79 -178
170 -230 214 -264 225 -22 7 -37 32 -27 47 3 5 26 18 52 29 26 12 61 27 77 35
41 19 81 18 116 -2z m-6793 -115 c106 -57 190 -98 202 -98 6 0 50 -20 98 -44
85 -43 121 -72 156 -129 17 -28 17 -30 -18 -100 -24 -50 -59 -98 -115 -157
-68 -71 -81 -90 -78 -112 4 -34 -15 -37 -35 -5 -8 12 -27 51 -43 87 -15 36
-52 115 -80 175 -29 61 -56 121 -60 135 -4 14 -16 41 -26 60 -11 19 -19 42
-19 51 0 9 -14 42 -31 74 -41 77 -51 105 -38 105 6 0 45 -19 87 -42z m4732 28
c-28 -26 -198 -70 -173 -45 6 6 26 14 44 19 19 5 52 15 74 24 22 8 47 15 55
16 13 0 13 -2 0 -14z m260 -10 c0 -11 -19 -15 -25 -6 -3 5 1 10 9 10 9 0 16
-2 16 -4z m-74 -31 c-11 -8 -31 -15 -45 -15 -25 1 -25 1 -7 15 11 8 31 15 45
15 25 -1 25 -1 7 -15z m1745 -119 c35 -32 87 -79 114 -105 28 -25 70 -63 93
-83 36 -31 41 -41 33 -56 -30 -57 -62 -53 -146 19 -33 28 -93 73 -132 100 -93
63 -107 83 -97 146 3 26 11 56 16 66 9 17 11 17 32 -5 13 -13 52 -49 87 -82z
m-1841 84 c-20 -13 -43 -13 -35 0 3 6 16 10 28 10 18 0 19 -2 7 -10z m-4139
-98 c19 -17 29 -34 25 -40 -12 -20 -84 -14 -116 10 -36 26 -37 36 -7 48 39 16
66 11 98 -18z m109 -109 c24 -30 20 -36 -35 -51 -22 -6 -79 -23 -128 -38 -48
-15 -90 -24 -94 -20 -11 11 29 77 52 87 11 4 36 10 55 14 19 3 46 12 60 19 39
22 67 19 90 -11z m5760 -80 c83 -93 180 -224 180 -243 0 -5 -12 -18 -26 -29
-26 -20 -28 -21 -54 -4 -25 16 -117 92 -144 119 -6 6 -21 16 -34 23 -20 10
-21 18 -18 79 3 68 20 126 34 120 4 -2 33 -31 62 -65z m-5666 3 c18 -7 48 -28
68 -45 20 -17 40 -31 44 -31 5 0 26 -15 47 -33 l39 -32 -35 -38 c-42 -44 -84
-51 -89 -14 -3 25 -43 36 -61 18 -13 -13 -77 -15 -77 -2 0 4 27 20 59 35 53
23 80 50 66 64 -8 8 -113 -28 -126 -44 -6 -8 -20 -14 -30 -14 -11 0 -43 -13
-72 -30 -30 -16 -62 -30 -73 -30 -11 0 -24 -4 -29 -9 -25 -25 -221 -62 -238
-45 -20 20 61 72 128 81 17 3 34 9 40 14 5 5 33 9 62 9 47 0 58 4 91 34 l37
35 -42 7 c-25 4 -43 12 -43 19 0 8 18 16 43 20 23 4 48 12 55 17 11 10 62 25
90 27 7 1 27 -5 46 -13z m-274 -76 c0 -5 -7 -10 -16 -10 -8 0 -12 5 -9 10 3 6
10 10 16 10 5 0 9 -4 9 -10z m-86 -15 c7 -18 -32 -41 -46 -27 -6 6 -2 15 13
26 28 19 26 19 33 1z m-2281 -62 c-6 -42 -46 -207 -51 -213 -2 -3 -9 2 -16 11
-6 9 -20 18 -29 20 -16 4 -14 11 17 69 20 36 43 82 52 103 19 43 33 49 27 10z
m8214 -30 c85 -79 132 -116 166 -135 43 -25 44 -31 17 -58 -27 -27 -49 -25
-85 8 -16 15 -60 49 -97 75 -79 55 -92 75 -78 111 12 34 39 33 77 -1z m-5689
-25 c-5 -16 -48 -24 -48 -9 0 8 17 16 43 20 5 0 7 -5 5 -11z m5593 -109 c6
-12 38 -54 71 -93 78 -93 85 -108 64 -141 -22 -33 -39 -32 -66 8 -13 17 -51
57 -86 87 -69 59 -76 78 -49 130 18 35 49 39 66 9z m-1661 -64 c0 -2 -9 -9
-20 -15 -16 -9 -20 -8 -20 5 0 8 9 15 20 15 11 0 20 -2 20 -5z m250 -392 c0
-4 -27 -34 -61 -66 l-61 -58 7 -81 c4 -45 12 -90 18 -100 16 -25 62 -41 98
-34 38 7 157 85 200 131 37 39 64 37 54 -4 -8 -32 -108 -136 -200 -207 -38
-29 -104 -82 -146 -116 -42 -35 -130 -105 -195 -155 -65 -51 -141 -113 -168
-138 -91 -85 -99 -90 -340 -225 -34 -19 -84 -50 -112 -69 -93 -65 -413 -313
-451 -350 -8 -7 -33 -29 -56 -48 -115 -95 -218 -199 -238 -239 -23 -49 -21
-78 11 -112 28 -30 61 -28 95 8 16 16 54 39 84 51 31 11 67 31 81 44 19 18
319 176 539 285 37 18 92 40 101 40 5 0 42 16 81 35 40 19 77 35 83 35 18 0
90 41 99 56 4 8 13 14 18 14 6 0 36 19 67 43 52 39 194 127 205 127 12 0 358
209 407 245 30 23 82 56 115 74 33 18 67 39 75 47 9 7 36 24 60 37 25 14 88
48 140 76 52 29 111 55 130 58 19 3 44 12 55 19 25 18 55 18 55 1 0 -7 -15
-21 -32 -31 -18 -10 -46 -34 -62 -53 -25 -29 -30 -45 -34 -107 -5 -88 5 -111
60 -136 40 -17 42 -17 97 1 31 11 78 33 105 50 48 30 73 28 61 -3 -3 -8 -29
-35 -58 -59 -29 -24 -68 -60 -87 -79 -76 -78 -190 -155 -330 -225 -72 -37
-224 -130 -275 -169 -22 -17 -71 -60 -110 -96 -47 -44 -98 -79 -155 -107 -78
-38 -155 -88 -318 -208 -34 -25 -97 -68 -140 -94 -82 -51 -241 -152 -282 -180
-14 -10 -33 -20 -44 -24 -10 -4 -50 -28 -90 -54 -39 -26 -102 -67 -141 -92
-107 -69 -115 -78 -115 -129 0 -55 47 -122 86 -122 13 0 56 22 96 49 66 45
180 107 358 196 284 142 338 170 362 186 14 11 31 19 36 19 20 0 194 97 326
182 101 65 247 148 259 148 6 0 29 11 51 23 23 13 68 35 101 48 61 24 108 53
156 97 16 14 36 22 49 20 21 -3 19 -8 -33 -68 -30 -36 -63 -84 -72 -107 -16
-40 -16 -44 3 -86 16 -35 28 -47 56 -57 21 -6 50 -9 68 -4 30 6 32 5 18 -11
-17 -20 -149 -121 -197 -151 -86 -53 -307 -226 -460 -361 -46 -40 -86 -73 -90
-73 -5 0 -24 -15 -43 -33 -19 -18 -60 -52 -90 -77 -30 -24 -62 -50 -70 -58 -8
-7 -53 -40 -99 -73 -46 -33 -109 -80 -140 -104 -31 -25 -85 -66 -121 -92 -71
-53 -108 -101 -140 -183 -11 -30 -32 -77 -46 -105 -32 -66 -54 -141 -54 -188
0 -54 18 -44 55 29 32 62 32 62 102 48 34 -6 113 13 288 72 271 91 413 154
488 218 52 43 120 71 311 127 37 11 85 28 107 39 46 24 92 26 109 5 11 -13 10
-18 -6 -30 -10 -8 -25 -15 -32 -15 -22 0 -102 -40 -123 -61 -52 -52 -84 -168
-59 -214 16 -29 83 -54 129 -47 23 3 32 1 30 -7 -5 -14 -17 -21 -159 -90 -58
-27 -145 -75 -193 -105 -48 -30 -106 -57 -128 -61 -23 -4 -69 -26 -106 -52
-58 -40 -266 -145 -398 -202 -103 -44 -186 -101 -420 -286 -38 -31 -106 -76
-150 -100 -45 -24 -92 -56 -105 -71 -14 -14 -54 -42 -90 -62 -36 -20 -101 -59
-145 -87 -101 -65 -163 -97 -349 -184 l-149 -70 -41 16 c-23 9 -67 37 -99 61
-51 38 -68 46 -125 53 -138 16 -273 74 -387 164 -101 81 -251 157 -471 240
-64 24 -111 45 -264 117 -107 51 -140 65 -225 98 -33 13 -76 33 -95 45 -19 12
-60 35 -90 50 -86 43 -247 152 -254 172 -19 47 -39 272 -61 678 -21 406 -21
658 3 815 9 65 47 155 74 177 7 6 105 65 218 131 305 178 305 178 336 236 15
28 39 69 53 91 41 64 47 75 97 170 25 49 62 114 82 143 53 77 69 111 77 162
11 78 105 287 160 354 22 28 26 29 62 18 86 -26 161 23 202 130 13 35 28 72
33 84 5 11 8 37 6 58 -2 28 2 41 14 49 25 16 82 -16 110 -61 19 -31 20 -44 15
-140 -3 -59 -10 -119 -15 -134 -15 -37 -30 -162 -38 -303 -6 -128 -25 -247
-42 -268 -6 -6 -18 -40 -27 -75 -38 -149 -96 -231 -205 -288 -102 -53 -146
-105 -104 -121 8 -3 25 0 37 6 12 7 35 19 52 28 92 50 263 173 303 217 53 59
115 116 126 116 21 0 132 57 216 112 47 31 139 83 205 117 125 64 180 93 367
201 62 36 121 68 130 72 10 4 43 26 74 49 31 23 84 52 117 66 33 13 85 41 115
61 30 20 69 46 86 56 17 11 64 45 105 75 138 105 286 210 316 227 17 8 62 32
100 53 39 20 105 56 147 79 43 23 83 42 90 42 7 0 38 16 68 35 56 35 70 41 70
28z m148 -27 c34 -17 57 -44 67 -74 9 -30 -17 -59 -105 -116 -118 -77 -134
-80 -165 -33 -35 53 7 142 98 208 45 32 66 35 105 15z m-2644 -260 c13 -52
-21 -153 -67 -198 -32 -32 -84 -38 -94 -11 -13 33 66 213 99 226 32 13 56 7
62 -17z m3474 -341 c33 -28 65 -96 56 -120 -10 -26 -140 -97 -188 -102 -39 -5
-45 -2 -63 23 -18 26 -19 35 -9 79 10 46 16 53 81 97 39 26 75 47 82 48 6 0
25 -11 41 -25z m-5918 -169 c19 -11 41 -28 48 -38 28 -39 179 -185 218 -212
39 -26 74 -27 74 -3 0 6 -43 53 -95 103 -52 51 -95 96 -95 99 0 4 12 5 28 2
199 -41 222 -51 222 -93 0 -31 15 -61 47 -95 28 -31 18 -44 -22 -29 -32 12
-65 5 -65 -15 0 -31 50 -55 117 -55 54 0 67 -4 86 -23 12 -13 64 -61 115 -106
51 -45 90 -87 87 -92 -10 -15 -48 -10 -88 11 -22 12 -47 18 -58 15 -21 -7
-153 10 -209 26 -19 6 -53 19 -75 29 -22 11 -47 21 -55 25 -8 3 -28 14 -45 24
-16 11 -49 30 -73 42 -64 32 -145 96 -249 196 -68 66 -94 98 -99 122 -8 36
-35 53 -109 66 -109 20 -52 31 123 25 106 -5 145 -10 172 -24z m-68 -317 c22
-29 22 -32 33 -314 9 -229 11 -223 -74 -226 -62 -3 -74 9 -64 61 4 19 7 49 6
65 -1 17 -4 120 -6 230 -2 110 -8 212 -12 227 -12 47 3 51 52 16 25 -18 55
-45 65 -59z m124 -111 c3 -12 -2 -24 -16 -36 -18 -15 -20 -21 -11 -45 6 -16
11 -52 11 -82 0 -30 6 -84 13 -122 8 -37 13 -84 13 -103 -1 -30 -5 -35 -28
-38 -23 -3 -28 1 -33 30 -4 24 -1 414 4 447 2 10 41 -33 47 -51z m76 -52 c4
-6 8 -33 8 -61 0 -27 7 -108 16 -179 14 -108 14 -130 3 -137 -19 -12 -25 -11
-42 6 -11 10 -17 50 -22 142 -3 70 -11 155 -15 187 -5 32 -7 63 -4 67 6 10 45
-8 56 -25z m7524 -11 c83 -96 171 -184 227 -225 54 -41 73 -70 43 -70 -7 0
-72 -17 -142 -39 -151 -45 -211 -60 -277 -72 -26 -4 -63 -13 -82 -20 -19 -7
-37 -10 -41 -6 -4 3 18 57 49 119 30 62 65 138 77 168 12 30 30 74 41 98 10
23 19 51 19 61 0 47 39 41 86 -14z m-7416 -7 c41 -24 51 -38 25 -38 -21 0 -30
-47 -17 -84 6 -17 14 -51 17 -76 4 -25 14 -66 22 -91 22 -63 13 -81 -34 -77
l-38 3 -7 130 c-3 72 -11 148 -17 170 -14 52 -14 85 0 85 5 0 28 -10 49 -22z
m5315 -29 c4 -18 4 -73 0 -124 l-7 -92 -71 -40 c-119 -65 -130 -64 -77 9 17
22 30 46 30 52 0 24 94 226 106 226 7 0 16 -14 19 -31z m-5182 -29 c20 -11 48
-20 61 -20 13 0 37 -7 52 -15 16 -8 37 -15 46 -15 10 0 42 -9 73 -21 43 -16
56 -26 62 -47 3 -14 16 -41 29 -60 48 -71 43 -91 -28 -99 -51 -6 -48 -8 -156
137 -42 58 -84 106 -92 108 -9 1 -24 -4 -35 -12 -19 -14 -19 -15 2 -124 12
-60 23 -114 24 -118 6 -35 -13 -44 -44 -20 -11 9 -21 36 -26 77 -10 74 -37
206 -46 232 -10 24 29 23 78 -3z m4999 -47 c-22 -42 -86 -182 -104 -228 -20
-53 -53 -95 -73 -95 -7 0 -32 -15 -56 -32 -62 -46 -76 -55 -139 -86 -31 -15
-71 -39 -90 -52 -19 -14 -89 -52 -155 -86 -66 -34 -235 -119 -376 -191 -141
-71 -277 -144 -302 -163 -49 -35 -77 -35 -77 1 0 30 53 76 168 144 56 33 153
93 214 133 62 40 131 82 153 93 38 20 136 89 162 115 7 7 41 30 75 50 35 21
87 55 117 76 30 21 87 54 128 73 49 23 97 58 150 108 128 120 231 191 205 140z
m-4534 -61 c13 -10 29 -29 35 -42 17 -34 35 -36 39 -4 4 39 20 40 56 2 38 -38
39 -45 10 -75 -25 -27 -41 -29 -63 -7 -14 15 -23 15 -72 4 -57 -12 -72 -7 -73
26 0 7 -7 25 -15 40 -8 16 -15 39 -15 52 0 19 5 22 38 22 20 0 47 -8 60 -18z
m5063 -137 c27 -70 24 -82 -21 -113 -22 -15 -55 -39 -73 -54 -36 -31 -65 -35
-107 -13 -24 13 -30 22 -30 49 0 28 12 47 62 102 76 85 76 85 117 82 30 -3 35
-8 52 -53z m-4796 -45 c10 -11 38 -31 61 -45 51 -30 58 -60 19 -75 -14 -5 -57
-35 -95 -65 l-70 -56 0 -77 c0 -92 -9 -111 -42 -95 -46 21 -198 136 -198 149
0 21 268 284 289 284 10 0 26 -9 36 -20z m-363 -338 c3 -10 127 -94 194 -132
24 -14 49 -31 56 -38 15 -15 21 -207 7 -233 -5 -9 -53 -30 -111 -49 -57 -17
-114 -36 -128 -41 -40 -14 -182 -49 -201 -49 -9 0 -19 6 -22 13 -10 26 33 200
89 362 7 22 18 58 24 81 15 61 78 120 92 86z m4603 -309 c-16 -21 -43 -54 -60
-74 -18 -19 -52 -67 -77 -105 -50 -75 -152 -184 -174 -184 -24 0 3 50 51 97
25 24 45 48 45 53 0 16 48 80 107 144 103 109 170 152 108 69z m-321 -265 c-7
-36 -10 -38 -106 -104 -38 -25 -76 -44 -85 -42 -15 3 -15 5 -3 15 8 7 55 47
104 88 49 41 91 75 94 75 2 0 0 -15 -4 -32z m-79 -185 c-16 -13 -48 -36 -70
-50 -22 -14 -57 -41 -78 -58 -21 -18 -72 -45 -115 -59 -70 -24 -120 -44 -207
-82 -44 -19 -51 -6 -13 26 36 31 46 37 128 73 61 27 260 126 329 163 54 29 68
22 26 -13z m945 -13 c0 -39 -44 -170 -57 -170 -18 0 -17 10 13 106 24 79 44
108 44 64z m-136 -167 c12 -29 -21 -116 -56 -149 -56 -53 -137 -69 -178 -36
l-22 18 21 53 c31 82 85 114 217 130 7 0 15 -6 18 -16z m-39 -319 c-57 -93
-112 -168 -165 -225 -56 -59 -130 -122 -136 -116 -3 3 14 27 38 54 48 52 108
136 108 151 0 16 80 109 106 122 13 7 26 21 29 30 8 24 48 65 52 53 2 -6 -12
-37 -32 -69z m-1551 -952 c2 -4 1 -13 -3 -20 -5 -9 -24 -11 -64 -6 -54 6 -65
12 -50 27 9 10 111 9 117 -1z m746 -372 c0 -12 -8 -12 -35 0 -18 8 -17 9 8 9
15 1 27 -3 27 -9z"/>
<path d="M5509 11490 c-31 -4 -61 -10 -67 -13 -5 -4 -72 -11 -148 -16 -256
-18 -380 -38 -455 -76 -163 -81 -231 -141 -183 -159 15 -6 41 7 172 80 78 44
212 65 497 80 55 3 122 11 149 19 53 16 167 18 254 6 29 -4 79 -4 110 1 74 12
572 10 626 -2 22 -5 82 -19 131 -30 171 -38 210 -47 295 -73 47 -14 128 -35
180 -47 52 -12 127 -31 165 -42 39 -11 94 -26 124 -34 29 -9 78 -26 108 -40
31 -13 59 -24 63 -24 23 0 310 -145 550 -278 25 -14 92 -50 150 -80 58 -30
134 -74 170 -97 79 -51 110 -68 110 -59 0 4 9 -1 20 -11 16 -15 20 -15 20 -3
0 37 -188 169 -450 315 -25 14 -50 30 -57 35 -15 12 -223 121 -362 190 -166
83 -291 123 -656 214 -33 8 -73 20 -90 25 -54 19 -129 40 -175 50 -25 6 -108
24 -185 41 -137 30 -146 31 -410 31 -148 0 -315 -1 -370 -3 -55 -2 -129 -1
-165 2 -36 3 -90 3 -121 -2z"/>
<path d="M4935 11023 c-56 -8 -120 -37 -207 -94 -48 -32 -101 -65 -118 -74
-36 -18 -42 -60 -10 -70 24 -8 56 9 144 75 37 28 82 54 100 57 17 3 36 10 42
14 21 16 143 28 201 19 32 -5 110 -27 173 -50 63 -22 142 -50 175 -61 33 -11
155 -66 270 -123 116 -57 224 -107 240 -110 60 -15 202 -81 365 -170 36 -20
153 -80 260 -135 202 -102 241 -123 309 -165 22 -15 43 -26 45 -26 3 0 56 -33
119 -72 63 -40 169 -107 236 -148 106 -65 407 -280 421 -300 3 -4 39 -31 80
-60 41 -29 93 -67 115 -85 22 -17 45 -34 51 -36 6 -2 24 -14 40 -27 46 -36
147 -99 172 -106 30 -10 30 17 0 43 -49 42 -183 147 -222 175 -23 15 -57 42
-76 60 -19 18 -62 52 -95 77 -33 24 -70 53 -82 63 -28 23 -109 83 -183 133
-30 21 -64 46 -75 56 -11 10 -48 35 -83 55 -91 52 -94 54 -132 82 -44 32 -151
99 -315 195 -71 42 -137 81 -145 86 -8 5 -26 14 -40 20 -23 9 -189 93 -392
197 -42 21 -83 44 -90 49 -7 6 -42 23 -78 37 -36 15 -74 31 -85 36 -11 5 -45
19 -75 31 -109 42 -177 73 -310 139 -74 37 -171 80 -215 95 -44 15 -89 31
-100 36 -11 5 -40 16 -65 23 -25 8 -79 26 -120 40 -72 25 -153 31 -245 19z"/>
<path d="M9573 10953 c-26 -10 -12 -33 39 -68 29 -19 58 -35 65 -35 6 0 34
-11 61 -25 67 -34 360 -130 445 -146 59 -11 70 -11 77 1 5 8 6 18 1 23 -8 8
-176 70 -236 87 -43 12 -224 77 -265 96 -19 8 -46 20 -60 26 -14 5 -42 18 -62
29 -38 20 -44 21 -65 12z"/>
<path d="M9340 10875 c7 -8 21 -15 32 -15 10 0 21 -7 24 -15 6 -15 85 -55 109
-55 7 0 18 -7 25 -15 7 -8 21 -15 31 -15 9 0 24 -6 31 -13 15 -15 263 -137
278 -137 9 0 67 -23 102 -41 24 -12 206 -59 229 -59 11 0 28 -5 38 -12 19 -12
51 -5 51 11 0 5 -13 12 -29 16 -16 3 -76 24 -133 46 -56 22 -141 53 -188 68
-85 28 -135 50 -285 122 -45 22 -87 39 -94 39 -7 0 -31 11 -54 24 -23 13 -60
29 -82 36 -22 7 -44 16 -49 21 -6 5 -19 9 -29 9 -16 0 -17 -3 -7 -15z"/>
<path d="M4497 10720 c-50 -31 -72 -37 -82 -20 -15 24 -58 9 -127 -43 -44 -33
-51 -71 -16 -83 17 -5 28 1 53 28 16 20 40 38 51 40 20 5 21 3 11 -29 -8 -27
-8 -37 4 -48 13 -14 21 -9 63 40 26 31 66 67 87 81 24 15 39 32 39 44 0 29
-28 25 -83 -10z"/>
<path d="M9110 10347 c0 -17 77 -73 87 -63 9 9 -51 66 -69 66 -10 0 -18 -2
-18 -3z"/>
<path d="M5694 10265 c-11 -27 3 -40 72 -69 38 -16 92 -40 119 -52 28 -13 85
-35 128 -49 68 -23 192 -86 207 -106 3 -3 10 -8 15 -10 13 -5 170 -120 245
-179 112 -89 444 -407 621 -595 46 -50 138 -158 204 -240 65 -83 132 -163 148
-180 29 -30 185 -235 203 -266 5 -9 23 -33 39 -53 187 -229 189 -233 302 -353
68 -72 104 -103 120 -103 13 0 23 5 23 11 0 5 -24 40 -54 77 -30 37 -78 96
-106 132 -29 36 -74 88 -99 115 -53 58 -249 313 -271 353 -25 45 -68 100 -152
194 -13 14 -66 81 -118 149 -52 68 -128 159 -169 204 -158 170 -315 332 -365
373 -28 24 -100 90 -161 147 -99 92 -222 183 -430 317 -43 27 -116 61 -181 84
-60 20 -134 48 -164 61 -108 48 -121 53 -146 53 -13 0 -27 -7 -30 -15z"/>
<path d="M9234 10246 c16 -14 33 -26 38 -26 5 0 26 -16 46 -35 20 -20 71 -63
112 -96 112 -91 166 -137 249 -213 85 -77 295 -241 386 -301 110 -74 358 -263
472 -362 24 -20 66 -52 95 -71 29 -19 76 -54 104 -78 28 -24 63 -49 78 -55 14
-7 26 -15 26 -19 0 -4 24 -23 53 -43 53 -37 97 -48 97 -25 0 11 -89 98 -101
98 -4 0 -25 15 -47 33 -21 17 -74 59 -117 92 -43 33 -113 89 -154 125 -118
101 -178 150 -186 150 -6 0 -90 64 -105 80 -11 12 -90 72 -136 103 -222 151
-287 198 -344 248 -74 64 -166 137 -225 177 -22 15 -66 47 -97 72 -84 66 -110
84 -143 100 -16 8 -41 24 -55 36 -14 12 -36 25 -50 29 -25 7 -25 6 4 -19z"/>
<path d="M3138 10123 c-9 -3 -20 -14 -24 -25 -3 -12 -19 -43 -35 -70 -16 -27
-29 -53 -29 -58 0 -5 -16 -34 -35 -65 -20 -30 -38 -63 -42 -73 -3 -9 -18 -33
-32 -52 -15 -19 -37 -55 -51 -80 -13 -25 -36 -61 -51 -80 -15 -19 -37 -54 -50
-76 -55 -96 -95 -163 -136 -226 -24 -37 -43 -69 -43 -72 0 -3 -25 -41 -55 -83
-31 -43 -63 -94 -71 -113 -9 -19 -29 -53 -45 -77 -16 -23 -29 -45 -29 -49 0
-4 -13 -29 -30 -55 -19 -31 -33 -72 -39 -111 -10 -74 -7 -1165 4 -1190 4 -10
13 -18 21 -18 35 0 47 104 35 305 -4 77 -4 235 0 350 4 128 3 271 -3 366 -6
86 -8 167 -5 180 4 13 23 51 43 84 20 33 44 78 53 100 14 36 66 122 82 135 11
10 79 128 79 138 0 5 7 15 15 22 21 17 121 172 139 214 8 20 32 61 53 92 137
200 323 524 323 562 0 22 -15 30 -42 25z"/>
<path d="M10166 9831 c-8 -12 13 -27 49 -35 l30 -8 -30 26 c-32 28 -41 31 -49
17z"/>
<path d="M3460 9732 c-20 -21 -44 -55 -55 -77 -10 -22 -27 -49 -36 -60 -9 -11
-23 -38 -30 -60 -8 -22 -22 -53 -31 -70 -20 -34 -23 -55 -7 -55 17 0 38 25 45
56 4 16 12 36 19 44 7 8 20 33 29 55 10 22 25 49 35 60 10 11 32 44 49 73 49
81 41 95 -18 34z"/>
<path d="M5204 9454 c3 -9 6 -17 6 -19 0 -11 230 -155 246 -155 10 0 2 22 -14
38 -41 41 -160 132 -186 141 -40 16 -59 14 -52 -5z"/>
<path d="M10545 9370 c3 -5 8 -10 11 -10 2 0 4 5 4 10 0 6 -5 10 -11 10 -5 0
-7 -4 -4 -10z"/>
<path d="M9890 9315 c0 -13 87 -123 149 -190 90 -96 261 -263 373 -365 51 -47
131 -121 178 -166 159 -150 293 -257 318 -252 43 8 25 29 -213 243 -158 143
-356 329 -582 550 -159 155 -223 207 -223 180z"/>
<path d="M6765 9300 c-8 -12 -1 -23 70 -107 75 -90 114 -139 175 -218 51 -67
69 -89 157 -197 26 -32 141 -198 223 -322 149 -227 257 -379 316 -444 36 -40
44 -44 57 -33 19 15 13 35 -26 82 -56 68 -230 314 -281 397 -15 26 -31 49 -35
52 -4 3 -29 41 -56 85 -53 87 -129 198 -157 230 -20 23 -131 163 -198 250
-151 195 -223 261 -245 225z"/>
<path d="M8927 9248 c-7 -22 11 -58 57 -112 43 -51 116 -152 116 -160 0 -3 30
-47 68 -100 37 -52 107 -152 155 -223 48 -70 126 -182 173 -248 46 -66 100
-142 119 -170 19 -27 57 -81 85 -120 27 -38 64 -95 82 -125 17 -30 43 -71 58
-90 15 -19 35 -51 46 -70 31 -57 165 -240 175 -240 5 0 9 -6 9 -13 0 -16 58
-73 66 -65 3 4 -17 45 -45 93 -28 47 -51 88 -51 91 0 3 -13 25 -30 49 -16 24
-30 47 -30 50 0 6 -77 129 -159 255 -20 30 -40 63 -46 72 -39 64 -243 356
-335 479 -31 41 -137 194 -165 237 -5 8 -15 23 -22 31 -81 106 -153 207 -153
215 0 5 -21 33 -47 62 -27 29 -58 66 -71 83 -24 32 -47 40 -55 19z"/>
<path d="M4527 9203 c-15 -14 -5 -46 28 -99 19 -30 35 -57 35 -60 0 -3 23 -42
50 -88 28 -46 50 -86 50 -91 0 -4 9 -19 19 -34 11 -15 34 -54 52 -86 18 -33
44 -78 58 -100 15 -22 39 -66 55 -97 15 -31 34 -62 42 -69 8 -6 14 -15 14 -20
0 -5 23 -42 50 -83 28 -41 50 -77 50 -80 0 -5 120 -189 145 -221 9 -11 42 -60
74 -110 33 -49 71 -101 85 -114 14 -14 26 -28 26 -33 0 -11 107 -150 167 -217
50 -56 73 -61 73 -17 0 14 -19 43 -49 74 -48 50 -107 122 -126 154 -5 9 -43
61 -83 115 -65 88 -155 222 -298 445 -111 174 -149 236 -181 296 -19 35 -65
118 -103 183 -39 66 -70 122 -70 124 0 6 -106 185 -125 213 -16 23 -27 27 -38
15z"/>
<path d="M8250 9190 c0 -15 53 -74 168 -189 93 -91 213 -222 268 -291 54 -69
101 -127 104 -130 3 -3 23 -27 45 -55 21 -27 42 -52 45 -55 3 -3 25 -30 50
-60 25 -30 50 -59 57 -63 7 -4 13 -13 14 -20 0 -7 16 -32 34 -57 62 -82 154
-219 175 -261 12 -22 37 -62 56 -89 19 -26 34 -52 34 -59 0 -6 4 -11 8 -11 5
0 16 -17 26 -37 19 -41 43 -74 99 -137 20 -24 37 -48 37 -53 0 -13 34 -43 48
-43 7 0 12 6 12 14 0 20 -46 110 -94 183 -123 186 -144 218 -171 263 -83 134
-133 210 -175 265 -25 33 -63 84 -84 114 -34 49 -136 171 -216 261 -17 19 -63
76 -101 127 -84 111 -379 397 -415 401 -19 3 -24 -1 -24 -18z"/>
<path d="M6103 8859 c-19 -19 -16 -33 15 -81 15 -24 32 -50 37 -59 77 -125
267 -378 321 -427 60 -55 71 -61 80 -37 7 18 -9 39 -233 303 -13 15 -23 32
-23 39 0 6 -17 33 -38 60 -21 26 -51 71 -66 100 -16 28 -40 66 -55 83 -21 25
-28 29 -38 19z"/>
<path d="M9646 8833 c-15 -15 -1 -41 76 -141 45 -59 88 -114 95 -122 81 -93
377 -532 543 -805 25 -40 53 -82 63 -93 9 -10 17 -26 17 -35 0 -9 4 -18 9 -22
10 -6 61 -108 61 -122 0 -14 38 -34 45 -23 9 14 -25 108 -58 165 -16 28 -38
68 -49 90 -36 77 -83 161 -108 195 -28 39 -33 47 -74 122 -16 29 -41 69 -55
88 -15 19 -54 75 -86 125 -33 49 -63 94 -68 100 -4 5 -35 48 -69 95 -111 153
-288 364 -318 380 -10 5 -20 6 -24 3z"/>
<path d="M3926 8783 c-15 -16 -1 -58 60 -178 37 -72 74 -143 82 -160 8 -16 29
-48 46 -69 17 -22 39 -55 49 -75 35 -64 448 -684 467 -701 3 -3 21 -27 40 -53
20 -28 40 -46 49 -44 29 5 15 38 -79 182 -22 33 -44 69 -49 81 -5 11 -20 33
-33 50 -14 16 -38 52 -53 79 -16 28 -78 124 -137 213 -59 90 -108 167 -108
170 0 4 -10 18 -21 32 -20 25 -73 105 -140 209 -18 30 -55 99 -80 155 -43 92
-74 128 -93 109z"/>
<path d="M3603 8683 c-15 -5 -17 -54 -4 -68 5 -6 41 -72 80 -148 39 -75 83
-156 98 -180 15 -23 34 -56 43 -72 20 -39 57 -98 143 -227 109 -165 119 -179
182 -263 90 -119 205 -281 205 -290 0 -4 20 -33 44 -65 24 -32 49 -67 55 -79
14 -25 59 -29 67 -6 4 8 0 24 -7 34 -8 10 -59 85 -113 166 -55 82 -123 180
-152 219 -89 119 -112 150 -129 171 -28 36 -195 290 -195 297 0 5 -20 35 -44
68 -25 33 -48 70 -52 82 -4 12 -32 67 -62 123 -30 55 -70 130 -88 166 -32 65
-47 80 -71 72z"/>
<path d="M4751 8416 c-16 -20 -2 -52 75 -165 125 -184 198 -282 294 -391 36
-41 82 -95 102 -120 52 -64 253 -267 317 -320 29 -25 70 -59 90 -75 99 -84
172 -136 181 -130 11 7 -107 149 -145 175 -18 12 -146 132 -229 215 -159 158
-484 553 -602 732 -61 92 -67 98 -83 79z"/>
<path d="M9252 8328 c-16 -16 -15 -45 1 -55 36 -23 236 -286 342 -452 6 -9 32
-48 58 -88 26 -39 47 -74 47 -77 0 -3 16 -30 35 -60 19 -30 35 -58 35 -61 0
-8 70 -107 96 -136 13 -14 24 -30 24 -37 0 -7 6 -12 14 -12 11 0 8 14 -11 63
-13 34 -28 70 -34 80 -5 10 -29 55 -51 100 -23 45 -49 93 -59 107 -9 14 -31
51 -48 83 -17 32 -36 64 -42 70 -5 7 -25 35 -43 62 -77 119 -151 223 -182 258
-19 20 -34 40 -34 45 0 14 -107 122 -122 122 -7 0 -19 -5 -26 -12z"/>
<path d="M2546 8238 c-15 -23 -23 -131 -43 -596 -7 -169 10 -453 31 -517 7
-22 19 -40 27 -40 12 0 13 25 9 145 -8 236 -3 622 11 818 11 164 11 184 -3
199 -15 14 -17 13 -32 -9z"/>
<path d="M10346 8003 c-8 -21 46 -127 132 -258 68 -105 126 -195 181 -282 31
-50 55 -70 65 -54 8 13 -23 103 -48 141 -13 19 -34 55 -47 79 -19 35 -190 300
-241 374 -16 22 -34 22 -42 0z"/>
<path d="M3924 7768 c5 -28 42 -81 115 -170 11 -12 59 -70 106 -128 47 -58
105 -127 128 -154 23 -27 51 -61 62 -76 11 -14 32 -39 48 -55 15 -17 27 -34
27 -39 0 -4 38 -45 85 -90 79 -76 91 -84 197 -125 128 -50 288 -108 333 -122
17 -5 39 -13 50 -18 41 -19 126 -41 135 -36 25 15 4 36 -72 73 -46 21 -94 42
-108 46 -14 4 -34 11 -45 16 -167 74 -387 160 -406 160 -16 0 -55 43 -91 101
-9 14 -47 62 -85 106 -37 44 -84 100 -103 124 -19 24 -57 70 -85 103 -27 33
-68 82 -89 110 -21 28 -53 67 -70 88 -17 20 -43 55 -58 77 -21 31 -34 41 -54
41 -24 0 -26 -2 -20 -32z"/>
<path d="M2316 7428 c-12 -108 -9 -131 50 -332 8 -26 14 -55 14 -63 0 -27 47
-169 86 -260 8 -17 14 -37 14 -45 0 -8 4 -18 9 -24 6 -5 30 -58 54 -119 48
-116 99 -240 122 -290 7 -16 30 -65 49 -109 20 -43 36 -83 36 -89 0 -6 6 -18
14 -26 13 -14 106 -187 144 -267 8 -17 22 -36 31 -41 15 -9 16 -6 13 26 -2 20
-10 43 -16 51 -7 8 -18 31 -25 50 -18 48 -24 62 -70 162 -23 48 -41 90 -41 93
0 3 -12 32 -26 63 -15 31 -30 66 -35 77 -4 11 -26 63 -48 115 -23 52 -41 100
-41 106 0 6 -10 31 -23 55 -13 24 -37 80 -54 124 -18 44 -46 107 -62 139 -17
33 -31 66 -31 74 0 8 -12 47 -26 86 -58 159 -111 392 -101 443 6 32 -1 53 -18
53 -7 0 -15 -20 -19 -52z"/>
<path d="M6574 7395 c-11 -26 2 -40 98 -106 86 -59 246 -159 255 -159 2 0 22
-11 44 -26 165 -104 295 -158 306 -128 6 18 -124 101 -447 287 -58 34 -132 80
-165 104 -63 46 -82 52 -91 28z"/>
<path d="M10564 7353 c11 -43 56 -72 56 -35 0 25 -28 62 -47 62 -12 0 -14 -6
-9 -27z"/>
<path d="M10095 7341 c-9 -30 41 -211 94 -336 5 -11 18 -42 29 -70 39 -96 75
-181 109 -255 51 -112 211 -428 233 -460 6 -8 15 -22 20 -30 18 -28 23 1 7 35
-9 20 -17 49 -17 65 0 17 -3 30 -8 30 -4 0 -17 24 -30 53 -13 28 -32 70 -43
93 -10 23 -19 49 -19 58 0 9 -3 16 -7 16 -11 0 -153 299 -153 320 0 4 -13 37
-29 73 -16 36 -46 112 -66 169 -21 57 -46 122 -56 145 -11 23 -19 58 -19 77 0
29 -4 36 -19 36 -11 0 -22 -8 -26 -19z"/>
<path d="M2175 7203 c4 -26 10 -55 15 -63 4 -8 20 -60 35 -115 15 -55 33 -114
41 -132 8 -17 14 -38 14 -46 0 -9 4 -18 9 -22 5 -3 12 -19 16 -36 6 -27 39
-106 120 -284 15 -33 34 -76 42 -95 8 -19 20 -48 28 -65 7 -16 23 -55 36 -85
46 -113 114 -263 144 -320 24 -46 60 -65 71 -37 3 8 -17 62 -45 121 -28 58
-51 112 -51 120 0 8 -4 17 -9 20 -5 3 -12 17 -15 30 -3 13 -22 58 -41 99 -19
41 -35 80 -35 86 0 6 -18 49 -40 96 -22 47 -40 88 -40 91 0 2 -20 46 -44 97
-24 51 -54 119 -67 152 -12 33 -27 64 -31 70 -4 5 -8 15 -8 23 0 8 -7 28 -15
45 -8 18 -27 68 -41 112 -58 173 -61 180 -79 183 -16 4 -17 -1 -10 -45z"/>
<path d="M10407 7083 c-17 -16 -3 -52 50 -132 147 -224 234 -359 278 -431 16
-25 55 -82 89 -127 45 -61 67 -83 84 -83 25 0 28 17 8 45 -7 11 -25 40 -39 65
-14 25 -44 74 -66 110 -63 98 -113 181 -151 248 -88 155 -210 312 -243 312 -2
0 -7 -3 -10 -7z"/>
<path d="M2200 6774 c0 -26 14 -88 30 -129 4 -11 17 -54 30 -95 12 -41 28 -91
35 -110 7 -19 23 -69 35 -110 12 -41 28 -89 36 -107 8 -17 14 -40 14 -51 0
-18 80 -255 127 -377 11 -28 37 -78 58 -110 22 -33 53 -86 69 -117 77 -142 89
-164 100 -178 6 -8 22 -35 36 -60 28 -53 141 -227 164 -252 9 -10 21 -18 26
-18 17 0 11 22 -15 55 -13 18 -32 52 -41 76 -31 79 -129 252 -165 294 -10 11
-42 67 -72 125 -30 58 -67 127 -82 153 -15 27 -31 63 -36 80 -4 18 -37 118
-72 222 -102 300 -137 411 -137 433 0 12 -4 23 -9 26 -4 3 -11 22 -14 43 -4
21 -21 82 -38 136 -29 86 -35 97 -56 97 -18 0 -23 -5 -23 -26z"/>
<path d="M2892 6498 c-18 -18 -15 -45 14 -123 14 -38 32 -88 39 -110 12 -38
26 -75 46 -120 5 -11 15 -40 23 -65 15 -49 61 -173 75 -205 5 -11 23 -57 40
-103 47 -124 149 -329 178 -358 17 -17 23 -32 20 -46 -5 -17 -2 -19 19 -15 23
4 32 -11 162 -272 163 -326 194 -382 240 -439 24 -30 42 -42 56 -40 34 5 30
35 -12 101 -47 73 -201 366 -250 477 -11 25 -37 74 -57 110 -21 36 -51 90 -67
120 -34 65 -61 90 -94 90 -14 0 -27 7 -31 18 -3 9 -14 36 -24 59 -11 23 -19
45 -19 48 0 4 -20 57 -44 118 -24 62 -47 127 -51 145 -4 18 -14 46 -22 63 -8
17 -28 65 -43 107 -15 43 -53 144 -84 226 -31 82 -56 157 -56 166 0 9 -10 26
-23 38 -18 17 -26 19 -35 10z"/>
<path d="M8853 6324 c-9 -23 10 -36 61 -41 38 -5 46 -3 46 10 0 19 -49 47 -80
47 -11 0 -23 -7 -27 -16z"/>
<path d="M6719 6219 c-42 -3 -82 -10 -88 -13 -16 -10 -14 -56 3 -62 8 -3 65 2
127 10 62 9 130 16 150 16 42 0 68 22 50 44 -12 15 -108 17 -242 5z"/>
<path d="M7450 6033 c-131 -64 -390 -458 -300 -458 7 0 37 41 66 92 28 50 72
118 97 151 52 67 162 182 175 182 5 0 14 11 20 25 10 21 9 25 -6 25 -9 0 -33
-8 -52 -17z"/>
<path d="M5784 5835 c-11 -29 5 -40 156 -108 30 -14 72 -30 92 -36 44 -14 51
-22 75 -86 20 -51 128 -220 165 -257 15 -15 22 -17 28 -8 11 17 -6 62 -54 146
-56 95 -84 154 -91 186 -7 35 -53 65 -199 129 -114 51 -162 60 -172 34z"/>
<path d="M2717 5703 c-14 -13 -6 -43 22 -85 15 -24 39 -63 53 -88 14 -25 44
-74 66 -110 23 -36 49 -78 58 -95 9 -16 43 -69 75 -118 33 -49 59 -91 59 -93
0 -3 21 -37 46 -77 26 -40 52 -81 60 -93 7 -12 19 -27 26 -35 8 -8 25 -30 38
-49 23 -34 91 -117 188 -229 57 -67 130 -115 149 -100 22 19 14 47 -23 81 -70
63 -369 444 -411 523 -14 27 -36 62 -129 204 -51 77 -80 125 -161 260 -57 96
-93 128 -116 104z"/>
<path d="M9021 5587 c-30 -33 -35 -112 -7 -112 25 0 73 91 59 113 -15 25 -27
24 -52 -1z"/>
<path d="M8596 5560 c-49 -17 -94 -34 -100 -39 -6 -5 -27 -12 -46 -16 -19 -4
-39 -11 -45 -15 -5 -5 -36 -13 -67 -19 -79 -14 -118 -36 -118 -65 0 -17 9 -27
29 -36 34 -13 66 -46 75 -75 10 -32 127 -95 176 -95 15 0 50 10 78 21 75 31
98 75 122 234 5 33 12 73 16 89 5 19 2 31 -7 37 -18 11 -11 13 -113 -21z m12
-217 c-22 -53 -57 -74 -113 -71 -36 2 -50 7 -50 18 0 12 11 14 51 12 49 -4 53
-2 79 32 33 43 49 47 33 9z"/>
<path d="M2132 5321 c-9 -5 -15 -46 -18 -132 -3 -68 -10 -137 -15 -154 -18
-55 -39 -284 -29 -310 19 -50 41 -25 59 65 8 45 29 345 35 499 1 35 -10 47
-32 32z"/>
<path d="M5230 5094 c-184 -16 -267 -33 -358 -73 -37 -16 -80 -33 -97 -37 -16
-3 -37 -12 -45 -19 -8 -7 -44 -27 -80 -45 -100 -50 -198 -109 -220 -132 -10
-11 -30 -28 -43 -37 -80 -54 -127 -95 -127 -112 0 -21 29 -26 61 -9 31 17 22
-2 -26 -55 -25 -28 -45 -55 -45 -61 0 -31 -100 -74 -171 -74 -87 0 -133 -32
-97 -68 16 -16 60 -15 194 4 86 13 120 14 144 5 24 -8 38 -8 55 2 22 11 136
131 216 225 25 29 55 50 96 67 56 22 122 59 203 111 41 27 103 54 124 54 10 0
3 -21 -23 -73 -43 -85 -77 -204 -87 -297 -7 -70 4 -114 51 -215 14 -28 25 -60
25 -71 1 -30 20 -58 98 -138 66 -69 138 -116 178 -116 8 0 14 -7 14 -15 0 -19
-39 -20 -65 -1 -13 8 -65 16 -140 20 -127 7 -186 19 -291 61 -72 29 -76 28
-142 -32 -44 -41 -49 -73 -12 -73 28 0 33 -16 15 -49 -29 -57 -26 -61 80 -94
95 -30 272 -43 267 -19 -3 19 45 39 60 24 7 -7 20 -12 29 -12 18 0 83 59 100
91 12 23 42 25 59 4 7 -8 19 -15 26 -15 23 0 16 -17 -17 -43 -47 -37 -22 -62
36 -35 25 11 37 58 15 58 -5 0 -10 4 -10 10 0 5 3 9 8 8 4 -1 33 4 64 11 40 8
61 19 72 36 13 19 21 22 53 18 74 -9 263 77 263 121 0 8 -2 8 -8 0 -10 -15
-72 3 -72 21 0 22 -36 18 -96 -10 -76 -36 -170 -58 -216 -51 -62 10 -172 70
-215 116 -62 69 -89 114 -119 205 -25 74 -26 87 -14 99 12 11 264 96 375 126
80 22 295 94 331 111 22 10 45 19 51 19 16 0 46 -38 74 -93 34 -69 59 -75 59
-14 0 24 -7 59 -16 78 -31 62 -102 155 -149 193 -25 21 -44 41 -41 44 9 8 88
-19 115 -40 13 -10 27 -18 31 -18 5 0 31 -15 59 -34 53 -36 91 -39 91 -6 0 20
-73 90 -93 90 -15 0 -47 31 -47 44 0 12 48 -2 103 -30 86 -43 120 -21 51 33
-20 15 -57 47 -83 70 -27 25 -62 46 -86 52 -22 5 -65 19 -95 31 -149 59 -281
74 -500 54z m394 -310 c25 -10 19 -34 -9 -34 -13 0 -58 -11 -99 -25 -80 -27
-106 -31 -106 -15 0 5 17 12 37 16 20 4 62 20 93 35 61 31 62 31 84 23z m-274
-104 c-20 -13 -53 -13 -45 0 3 6 18 10 33 10 21 0 24 -2 12 -10z m-90 -18 c0
-13 -12 -22 -22 -16 -10 6 -1 24 13 24 5 0 9 -4 9 -8z m-183 -827 c3 -9 3 -18
0 -21 -9 -9 -48 16 -42 27 9 14 35 11 42 -6z m-182 -65 c3 -5 -1 -10 -9 -10
-8 0 -18 5 -21 10 -3 6 1 10 9 10 8 0 18 -4 21 -10z"/>
<path d="M5555 4473 c-122 -37 -263 -72 -293 -73 -39 0 -83 -38 -77 -66 2 -11
6 -31 9 -45 3 -14 16 -30 29 -36 16 -8 28 -26 37 -57 21 -77 75 -105 205 -105
62 -1 86 3 108 18 30 19 77 72 94 106 13 24 21 245 10 263 -11 16 -60 14 -122
-5z"/>
<path d="M3246 4453 c-10 -32 28 -287 54 -368 6 -16 15 -49 20 -72 8 -32 16
-43 30 -43 27 0 34 37 15 82 -8 21 -15 50 -15 66 0 47 -57 322 -70 337 -16 20
-27 19 -34 -2z"/>
<path d="M2481 4413 c-6 -21 -11 -123 -11 -228 0 -104 -5 -263 -11 -353 -10
-151 -10 -164 6 -183 24 -26 44 -24 55 5 5 13 10 167 11 342 1 176 5 342 9
369 9 56 -1 85 -30 85 -14 0 -22 -11 -29 -37z"/>
<path d="M5857 4423 c-7 -14 5 -203 14 -203 11 0 29 67 29 108 0 31 -23 102
-34 102 -3 0 -7 -3 -9 -7z"/>
<path d="M6934 4317 c-3 -10 -1 -44 6 -75 7 -31 15 -85 17 -119 5 -71 26 -100
48 -69 10 12 11 25 5 42 -5 12 -15 62 -21 109 -13 92 -40 148 -55 112z"/>
<path d="M7029 4288 c-2 -27 3 -65 17 -128 8 -36 17 -75 20 -87 2 -13 9 -23
15 -23 15 0 0 214 -17 242 -8 13 -34 9 -35 -4z"/>
<path d="M6725 4261 c-9 -30 26 -288 42 -309 11 -15 14 -15 23 -2 5 8 10 34
10 58 0 44 9 52 30 27 9 -11 16 -13 24 -5 17 17 34 11 40 -15 4 -14 11 -25 17
-25 18 0 21 28 9 77 -6 26 -17 80 -24 118 -8 49 -16 70 -26 70 -9 0 -13 -7
-11 -15 7 -26 2 -123 -8 -133 -16 -16 -24 14 -22 83 2 67 2 68 -26 73 -15 3
-38 8 -50 12 -16 5 -23 2 -28 -14z m60 -110 c3 -5 1 -12 -5 -16 -5 -3 -10 1
-10 9 0 18 6 21 15 7z"/>
<path d="M7097 4263 c-13 -12 -7 -64 7 -69 8 -3 18 -19 21 -35 7 -29 28 -39
40 -19 11 18 -6 91 -26 111 -20 20 -31 23 -42 12z"/>
<path d="M8090 6613 c-62 -24 -172 -54 -270 -72 -74 -15 -120 -41 -120 -69 0
-23 2 -24 40 -18 22 3 94 24 159 46 76 26 137 40 169 40 79 0 150 51 121 86
-15 18 -22 17 -99 -13z"/>
<path d="M8255 6562 c-11 -2 -24 -8 -29 -13 -6 -5 -17 -9 -26 -9 -8 0 -32 -9
-53 -20 -20 -11 -46 -20 -56 -20 -11 0 -22 -4 -25 -9 -3 -5 -23 -12 -43 -15
-68 -12 -178 -58 -201 -83 -31 -34 -26 -67 11 -71 16 -2 34 1 40 6 7 5 39 17
72 26 33 10 78 26 100 37 22 10 49 19 59 19 11 0 27 6 35 14 17 14 110 46 134
46 18 0 47 32 47 51 -1 20 -41 46 -65 41z m5 -37 c0 -8 -7 -15 -15 -15 -16 0
-20 12 -8 23 11 12 23 8 23 -8z"/>
<path d="M3907 5769 c-30 -17 -8 -29 54 -29 50 0 59 3 59 18 0 13 -10 17 -48
19 -26 1 -55 -3 -65 -8z"/>
<path d="M4433 5308 c-30 -15 -29 -28 2 -28 18 0 25 5 25 20 0 11 -1 20 -2 19
-2 0 -13 -5 -25 -11z"/>
<path d="M5755 2946 c-11 -7 -33 -16 -50 -19 -56 -11 -140 -37 -185 -58 -25
-12 -61 -27 -80 -35 -19 -7 -80 -33 -135 -58 -55 -25 -107 -46 -116 -46 -42 0
-53 -72 -12 -78 12 -2 66 19 120 47 54 27 121 59 148 71 28 12 63 28 79 36 16
8 33 14 39 14 5 0 23 7 40 14 18 8 72 26 121 39 50 13 94 31 100 39 24 39 -26
64 -69 34z"/>
<path d="M6384 2726 c-11 -8 -35 -50 -53 -93 -18 -43 -44 -103 -59 -133 -28
-58 -27 -57 -98 -44 -44 9 -74 -22 -74 -77 0 -39 -2 -41 -47 -60 -103 -43
-173 -88 -173 -110 0 -23 32 -19 72 9 24 16 59 34 79 41 41 13 119 76 119 96
0 27 27 38 64 25 20 -6 45 -8 56 -5 21 7 26 16 70 125 36 91 61 137 84 159 21
20 28 21 91 12 79 -12 112 -2 95 28 -11 22 -30 27 -130 36 -59 5 -80 3 -96 -9z"/>
<path d="M6540 2349 c-95 -64 -125 -93 -117 -113 11 -27 31 -18 118 50 46 36
90 68 97 71 19 8 15 43 -5 43 -10 0 -52 -23 -93 -51z"/>
<path d="M6761 2002 c-20 -22 -62 -67 -94 -101 -32 -33 -55 -66 -52 -71 14
-23 44 -6 118 66 75 74 79 76 115 70 20 -3 62 -10 92 -15 30 -5 68 -14 84 -20
34 -14 61 4 51 32 -9 22 -190 77 -257 77 -11 0 -37 -17 -57 -38z"/>
<path d="M6873 1660 c-71 -45 -82 -70 -29 -70 18 0 39 7 46 15 7 8 16 15 21
15 19 0 78 46 76 60 -4 29 -51 21 -114 -20z"/>
<path d="M7220 1316 c-29 -41 -96 -96 -145 -121 -24 -13 -32 -43 -12 -51 25
-9 108 38 161 92 47 47 56 52 106 57 31 3 76 1 100 -3 56 -10 79 3 54 31 -24
26 -77 39 -161 39 l-72 0 -31 -44z"/>
<path d="M7383 1002 c-49 -32 -59 -50 -39 -70 13 -13 18 -13 43 3 46 29 73 57
73 77 0 26 -28 22 -77 -10z"/>
<path d="M10002 4225 c-10 -23 -26 -128 -36 -240 -2 -27 -14 -90 -26 -140 -28
-118 -48 -237 -43 -251 2 -6 -10 -25 -26 -42 -38 -37 -39 -56 -5 -78 24 -17
28 -16 88 14 34 17 87 36 117 41 82 15 224 49 314 76 44 13 114 31 155 41 96
22 110 29 110 59 0 17 -15 36 -56 67 -52 40 -132 104 -244 196 -123 102 -279
254 -280 275 0 4 -13 7 -28 7 -21 0 -32 -7 -40 -25z m87 -110 c26 -38 190
-187 337 -305 104 -84 113 -96 82 -105 -13 -3 -52 -14 -88 -25 -36 -10 -94
-26 -130 -35 -36 -10 -85 -23 -110 -30 -74 -21 -183 -45 -207 -45 -30 0 -33 8
-22 60 5 25 16 87 24 139 9 51 19 99 23 105 3 6 10 56 14 111 9 131 16 165 37
165 9 0 27 -16 40 -35z"/>
<path d="M12592 3908 c-10 -13 -22 -58 -46 -173 -6 -33 -15 -65 -19 -71 -6
-11 -29 -94 -87 -319 -46 -182 -63 -263 -57 -278 9 -24 83 -28 240 -12 84 9
158 18 165 20 6 2 12 17 12 33 l0 29 -72 -4 c-40 -3 -115 -11 -167 -18 -52 -8
-98 -12 -103 -9 -12 8 -10 36 7 67 8 15 17 45 20 65 13 76 46 219 66 287 38
128 59 210 59 232 0 12 5 25 12 29 11 7 21 -4 71 -68 10 -12 35 -44 55 -70 20
-26 40 -47 45 -48 4 0 7 26 7 58 0 41 -5 64 -17 78 -10 10 -37 44 -60 74 -79
105 -107 126 -131 98z"/>
<path d="M10294 3092 c-38 -24 -194 -553 -194 -658 0 -18 -10 -52 -22 -75
l-22 -42 23 -18 c25 -20 47 -24 55 -11 3 4 29 20 58 34 74 37 284 88 544 132
98 17 144 38 144 68 0 14 -90 110 -280 299 -153 154 -283 279 -287 279 -4 0
-13 -4 -19 -8z m82 -152 c21 -27 119 -128 217 -224 97 -96 177 -179 177 -184
0 -5 -15 -12 -32 -15 -18 -3 -76 -13 -128 -21 -110 -19 -324 -69 -393 -92 -28
-10 -52 -13 -57 -8 -10 10 11 146 34 221 62 199 86 283 86 297 0 26 29 76 44
76 7 0 30 -22 52 -50z"/>
<path d="M11167 2213 c-7 -11 -44 -114 -78 -218 -55 -165 -78 -267 -85 -385
-9 -152 -7 -153 114 -115 48 15 102 33 120 41 18 8 46 14 62 14 16 0 44 7 62
14 18 8 98 40 178 71 80 31 161 62 180 70 19 7 47 16 62 19 39 9 54 41 34 71
-9 13 -27 30 -41 37 -45 24 -219 146 -260 182 -22 20 -65 53 -95 74 -30 20
-85 58 -121 85 -63 44 -119 61 -132 40z m108 -133 c21 -16 42 -30 48 -30 10 0
54 -32 198 -145 42 -33 95 -73 118 -89 23 -15 40 -33 38 -40 -2 -6 -44 -28
-93 -49 -49 -21 -114 -49 -144 -62 -30 -13 -102 -37 -160 -54 -58 -17 -123
-37 -145 -45 -51 -18 -75 -7 -75 37 0 61 23 202 37 222 7 11 13 27 13 37 0 15
40 126 80 226 13 30 40 28 85 -8z"/>
<path d="M4046 1627 c-19 -14 -66 -143 -66 -181 0 -12 -4 -26 -9 -31 -22 -24
-110 -411 -111 -488 0 -16 7 -30 16 -34 26 -10 200 36 239 63 20 13 45 24 56
24 10 0 79 29 152 64 72 35 147 67 165 70 57 13 67 69 17 96 -14 7 -74 65
-134 129 -216 230 -286 301 -297 301 -5 0 -18 -6 -28 -13z m95 -152 c177 -182
279 -291 279 -300 0 -6 -65 -43 -144 -83 -103 -51 -154 -72 -181 -72 -21 0
-62 -7 -91 -16 -65 -21 -84 -15 -84 29 0 35 31 148 56 205 8 18 14 41 14 52 0
11 6 34 14 52 15 33 38 109 50 161 4 15 13 27 20 27 8 0 38 -25 67 -55z"/>
<path d="M12251 1447 c-11 -15 -55 -135 -72 -200 -5 -21 -14 -45 -19 -55 -12
-22 -47 -122 -65 -187 -8 -27 -21 -70 -30 -95 -9 -25 -29 -97 -45 -160 -38
-154 -56 -198 -102 -245 -45 -48 -51 -85 -14 -85 14 0 28 5 31 10 13 21 73 44
145 56 173 28 216 37 242 50 15 8 41 14 58 14 45 0 146 31 344 104 38 14 71
26 72 26 2 0 4 16 4 35 0 19 -1 35 -3 35 -2 0 -32 -11 -68 -25 -112 -45 -291
-102 -374 -120 -44 -9 -107 -23 -140 -31 -33 -7 -84 -17 -112 -20 l-53 -7 0
50 c0 28 7 70 15 93 8 23 15 56 15 72 0 16 6 41 14 56 8 15 28 70 44 122 17
52 38 118 47 145 9 28 22 73 30 100 18 66 48 142 63 157 15 15 90 -50 266
-230 72 -74 159 -156 194 -183 l62 -49 0 60 c0 33 -4 60 -9 60 -5 0 -96 86
-202 192 -263 259 -306 292 -338 255z"/>
<path d="M11053 1063 c-5 -12 4 -24 27 -42 19 -14 97 -89 175 -166 180 -181
442 -428 525 -496 35 -29 103 -89 151 -134 93 -86 172 -155 231 -199 31 -23
44 -27 94 -24 l58 3 -75 52 c-41 28 -88 64 -105 80 -18 15 -58 51 -90 78 -32
28 -76 68 -98 91 -23 22 -72 67 -111 99 -38 33 -128 116 -200 186 -71 70 -152
146 -180 169 -27 23 -99 90 -160 149 -170 165 -225 200 -242 154z"/>
<path d="M11070 705 c-17 -21 -42 -142 -111 -543 -27 -160 -27 -162 16 -162
l35 0 0 63 c0 34 7 87 15 117 8 30 24 111 35 180 23 142 39 211 52 225 9 10
234 -213 327 -325 30 -36 74 -82 98 -103 23 -21 43 -44 43 -51 0 -8 -25 -18
-62 -26 -35 -7 -94 -23 -133 -35 -38 -13 -86 -27 -105 -33 -29 -8 -14 -10 83
-11 86 -1 143 5 210 20 114 25 121 29 125 65 2 25 -8 38 -69 94 -40 36 -90 88
-112 115 -44 57 -322 343 -380 393 -44 36 -50 38 -67 17z"/>
<path d="M2832 482 c-23 -21 -44 -74 -98 -247 -41 -133 -52 -168 -59 -203 -7
-32 -6 -33 22 -30 23 2 30 10 40 43 107 352 108 355 125 355 7 0 23 -15 35
-33 38 -55 276 -291 316 -312 21 -11 37 -27 37 -37 0 -14 8 -18 42 -18 l41 0
-20 22 c-11 13 -23 35 -27 49 -3 16 -27 42 -58 66 -72 54 -146 129 -250 249
-48 56 -96 104 -107 107 -12 3 -29 -2 -39 -11z"/>
</g>
</svg>
