<?xml version="1.0" standalone="no"?>
<!DOCTYPE svg PUBLIC "-//W3C//DTD SVG 20010904//EN"
 "http://www.w3.org/TR/2001/REC-SVG-20010904/DTD/svg10.dtd">
<svg version="1.0" xmlns="http://www.w3.org/2000/svg"
 width="1507.000000pt" height="1600.000000pt" viewBox="0 0 1507.000000 1600.000000"
 preserveAspectRatio="xMidYMid meet">
<metadata>
Created by potrace 1.16, written by Peter Selinger 2001-2019
</metadata>
<g transform="translate(0.000000,1600.000000) scale(0.100000,-0.100000)"
fill="#000000" stroke="none">
<path d="M4630 15981 c0 -11 7 -55 15 -98 36 -179 13 -487 -50 -677 -57 -173
-207 -397 -422 -631 -192 -209 -385 -368 -562 -462 -115 -61 -489 -316 -661
-450 -91 -70 -224 -186 -297 -258 -115 -113 -136 -140 -166 -205 -50 -106 -68
-194 -74 -355 -11 -276 60 -585 199 -874 100 -206 186 -321 337 -452 44 -39
56 -79 22 -79 -52 0 -194 139 -329 322 -105 141 -139 162 -196 117 -51 -40
-144 -245 -254 -559 -68 -194 -167 -474 -247 -700 -42 -118 -83 -235 -92 -260
-78 -227 -223 -335 -533 -399 -147 -31 -301 -48 -589 -67 -295 -20 -443 -13
-555 26 -62 21 -126 27 -126 11 0 -16 50 -47 176 -110 295 -148 509 -232 624
-245 42 -5 144 -37 315 -101 103 -37 317 -92 415 -105 47 -6 111 -16 142 -22
l56 -10 -3 -607 c-5 -806 -17 -975 -75 -1048 -73 -94 -363 -261 -592 -341 -79
-28 -276 -72 -322 -72 -12 0 -30 -6 -40 -13 -16 -11 -2 -16 101 -36 258 -51
324 -62 473 -76 85 -8 175 -17 200 -20 25 -2 151 -7 280 -11 247 -6 368 2 508
32 73 16 84 17 93 4 28 -43 -61 -459 -136 -635 -23 -54 -108 -238 -141 -305
-17 -36 -30 -67 -27 -70 2 -3 26 18 51 45 26 28 104 111 174 185 175 188 243
270 263 324 18 46 17 48 -5 119 -57 181 -22 665 61 842 25 52 32 59 59 50 36
-11 30 -69 -44 -490 -9 -49 -19 -135 -23 -191 -8 -134 5 -188 92 -379 56 -121
53 -177 -15 -320 -73 -155 -167 -255 -320 -343 -46 -26 -86 -54 -88 -61 -5
-16 -10 -16 163 24 120 28 216 50 313 71 103 23 210 78 265 136 58 62 59 61
111 -67 20 -49 40 -96 43 -104 7 -16 -44 -12 -119 9 -62 18 -73 9 -57 -51 20
-76 -15 -251 -87 -432 -44 -111 -79 -176 -154 -282 -31 -44 -60 -86 -64 -93
-40 -66 248 213 356 344 41 51 106 142 144 203 37 61 71 107 74 103 4 -4 26
-52 49 -107 23 -55 46 -109 51 -120 50 -112 63 -169 46 -209 -25 -59 -160
-177 -218 -191 -31 -8 -45 -36 -58 -121 -18 -109 2 -215 50 -264 37 -38 44
-95 30 -233 -10 -97 -8 -146 7 -200 3 -10 24 -27 48 -37 43 -19 72 -50 138
-155 l32 -50 3 30 c3 17 -1 75 -8 130 -21 160 -19 210 8 231 51 44 69 424 26
567 -3 9 -14 17 -24 17 -24 0 -30 19 -30 91 0 61 13 79 24 34 10 -40 34 -42
66 -6 29 31 29 31 67 16 57 -24 159 -106 338 -271 371 -343 866 -646 1305
-799 140 -48 192 -83 224 -148 15 -28 26 -59 26 -68 0 -10 12 -61 26 -115 30
-114 29 -171 -8 -255 -37 -85 -31 -248 21 -559 117 -704 124 -756 121 -862 -3
-107 -4 -103 27 -117 32 -15 206 -30 358 -32 61 0 121 -4 135 -9 l25 -7 -28
-11 c-41 -17 -191 -30 -282 -24 -200 12 -256 8 -315 -21 -30 -15 -91 -59 -135
-97 -146 -128 -288 -195 -455 -214 -30 -4 -81 -12 -112 -18 l-58 -11 0 -458 0
-459 1414 0 1415 0 24 53 c14 28 37 79 52 112 120 264 167 361 241 504 77 149
120 222 270 466 27 44 63 109 81 145 17 36 85 148 152 248 66 101 121 190 121
197 0 25 -19 26 -61 4 -53 -27 -148 -59 -174 -58 -17 0 -16 3 10 24 17 14 46
32 65 41 116 55 270 191 505 447 168 182 155 119 -25 -128 -191 -261 -370
-542 -622 -975 -199 -343 -248 -432 -383 -705 -98 -198 -152 -339 -135 -350
23 -14 370 -25 841 -25 l536 0 114 186 c433 706 870 1278 1313 1719 145 145
226 217 291 261 116 77 160 92 218 74 152 -48 413 -217 572 -370 118 -114 139
-123 314 -127 80 -2 146 -5 147 -6 2 -2 -51 -11 -116 -21 -66 -10 -120 -22
-120 -27 0 -4 53 -49 118 -100 126 -100 232 -197 264 -243 12 -16 22 -46 23
-71 3 -77 97 -177 267 -284 68 -43 92 -76 67 -92 -23 -14 -54 -10 -136 16
-161 51 -269 26 -479 -110 -90 -59 -257 -190 -384 -304 -109 -98 -494 -462
-498 -471 -5 -12 496 -25 918 -25 256 1 409 15 431 41 21 25 -21 133 -169 431
-96 193 -151 358 -97 287 33 -43 118 -198 185 -339 39 -82 101 -212 138 -288
l66 -139 241 4 c344 5 359 14 353 203 -3 90 -1 106 16 124 11 12 30 21 42 21
27 0 27 0 49 -140 26 -163 27 -167 88 -179 117 -24 216 -30 505 -31 l302 0 0
595 0 595 -128 0 c-87 0 -181 8 -288 24 -283 44 -270 32 -266 247 4 194 -3
216 -81 248 -51 21 -259 53 -437 65 -47 4 -137 11 -200 16 -63 5 -200 14 -305
20 -104 5 -235 12 -290 15 -55 3 -173 9 -261 14 l-162 8 -128 109 c-301 257
-391 325 -486 369 -59 28 -87 30 -133 14 -41 -15 -125 9 -191 54 -40 28 -52
44 -68 88 -33 93 -183 321 -284 430 -79 86 -94 89 -374 96 -131 3 -238 8 -238
10 0 2 -6 36 -14 76 -8 40 -27 137 -41 217 -35 192 -60 315 -90 428 -14 52
-23 98 -19 103 7 12 59 11 125 -1 124 -24 366 -40 610 -40 l256 0 7 -97 c13
-188 26 -580 26 -792 0 -140 3 -212 10 -205 6 6 14 224 20 539 6 292 14 533
18 537 4 4 59 3 122 -2 63 -5 183 -11 265 -15 83 -3 215 -10 295 -16 80 -5
253 -16 385 -24 132 -8 308 -19 390 -24 83 -6 179 -12 215 -14 77 -4 88 -9 85
-39 -1 -13 -6 -77 -9 -143 -4 -66 -9 -136 -11 -155 -2 -19 -7 -197 -11 -395
-8 -438 0 -565 37 -528 18 18 28 148 34 437 7 341 24 763 31 793 6 22 11 23
83 23 102 0 372 -25 489 -46 107 -19 152 -49 152 -101 0 -37 31 -67 89 -88 95
-33 597 -82 680 -66 80 16 86 28 89 212 4 177 -6 245 -43 301 -39 58 -75 73
-180 72 -49 -1 -117 -8 -151 -17 -33 -9 -119 -21 -190 -27 -359 -31 -374 -33
-398 -72 -8 -13 -6 -22 8 -37 22 -25 20 -25 -76 -11 -156 23 -984 79 -1383 95
-142 5 -424 20 -1255 65 -201 11 -437 22 -525 25 -208 7 -235 11 -269 38 -27
22 -29 30 -37 120 -21 255 -68 397 -131 397 -22 0 -23 -20 -3 -97 20 -75 19
-127 -1 -144 -27 -22 -60 26 -67 100 -8 69 -28 115 -57 131 -32 17 -42 -16
-30 -97 30 -194 27 -207 -43 -178 -72 30 -87 13 -52 -56 44 -88 58 -172 51
-308 -8 -160 -10 -162 -40 -51 -8 30 -27 98 -42 150 -38 133 -38 237 2 385 31
117 30 102 21 489 -2 76 1 90 16 100 27 16 58 -25 97 -126 57 -148 70 -133 70
83 0 193 -1 194 -97 194 -78 0 -100 12 -160 90 -19 25 -40 44 -46 42 -7 -2
-15 -37 -19 -82 -4 -45 -13 -85 -21 -93 -21 -21 -82 -31 -182 -32 -100 0 -190
-20 -216 -47 -28 -29 -48 -213 -60 -538 -5 -165 -11 -300 -12 -301 -1 -1 -58
-27 -127 -59 -152 -70 -245 -114 -370 -172 -52 -25 -147 -69 -210 -98 -64 -29
-160 -74 -214 -99 -54 -25 -99 -46 -101 -46 -2 0 -43 -19 -92 -41 -394 -184
-756 -322 -1088 -414 -746 -207 -816 -221 -823 -167 -5 33 14 77 64 147 76
108 136 154 229 175 189 42 999 461 1285 664 381 270 760 583 760 628 0 40
-54 10 -166 -92 -265 -242 -937 -687 -1301 -862 -79 -37 -145 -68 -149 -68 -3
0 -24 -8 -47 -19 -100 -44 -323 -120 -477 -163 -118 -32 -277 -32 -370 0 -261
90 -677 306 -1005 522 -250 165 -468 350 -672 571 -113 122 -127 139 -193 229
-163 221 -265 428 -358 725 -67 215 -98 331 -153 560 -22 94 -49 206 -60 250
-11 44 -36 141 -54 215 -62 249 -136 526 -170 640 -21 68 -142 565 -159 650
-9 41 -24 118 -35 170 -31 149 -51 304 -58 440 -7 142 -1 164 62 219 77 67
284 151 681 274 47 15 237 63 398 101 194 45 192 105 -4 166 -105 33 -264 33
-332 2 -49 -23 -88 -63 -88 -92 0 -9 -8 -24 -17 -33 -21 -18 -102 -51 -153
-62 -58 -12 -207 -88 -360 -183 -80 -50 -154 -92 -165 -94 -18 -3 -20 3 -23
49 -3 55 28 320 54 458 41 223 47 254 95 470 20 93 84 349 109 440 129 463
380 811 770 1072 65 43 121 74 351 196 58 30 109 48 109 39 0 -4 -34 -47 -76
-96 -42 -48 -74 -89 -72 -91 2 -2 62 18 133 45 72 27 166 59 210 71 162 44
303 80 415 105 63 14 142 31 175 39 81 19 325 65 560 105 385 66 799 91 753
44 -3 -3 -48 -9 -100 -14 -102 -10 -136 -19 -161 -45 -45 -44 7 -64 190 -70
81 -3 172 -8 201 -11 52 -5 54 -6 47 -32 -20 -81 -246 -541 -338 -690 -106
-170 -127 -207 -127 -224 0 -10 16 -35 35 -55 26 -27 35 -46 35 -70 0 -78 -56
-147 -157 -195 -85 -39 -86 -63 -5 -55 149 13 274 148 276 297 1 56 -2 65 -20
75 -43 21 -54 37 -54 75 0 45 35 80 79 80 49 0 58 -17 64 -117 4 -85 16 -123
38 -123 4 0 11 9 14 20 10 31 39 42 71 28 23 -11 28 -10 40 7 26 35 -2 78 -59
90 -33 8 -44 28 -58 102 -18 99 9 228 41 196 7 -6 16 -33 21 -59 11 -55 31
-81 72 -92 l30 -8 -41 -33 c-44 -34 -54 -61 -24 -61 29 0 69 -51 89 -114 26
-80 45 -92 102 -63 24 12 62 38 85 59 l41 36 -23 25 c-31 33 -52 107 -52 184
0 84 -18 93 -67 35 -19 -23 -41 -42 -48 -42 -20 0 -85 59 -85 76 0 9 11 14 31
14 53 0 35 38 -43 90 -37 25 -68 51 -68 59 0 22 71 7 159 -34 82 -39 113 -42
119 -12 6 30 -53 74 -140 103 -96 32 -135 63 -118 95 15 26 34 22 153 -33 49
-22 91 -37 94 -34 3 3 -24 34 -60 68 -103 99 -108 168 -18 258 126 126 251 31
251 -190 0 -78 9 -100 42 -100 37 0 50 81 34 218 -9 83 -3 89 54 47 41 -30 71
-32 88 -5 15 25 78 27 166 5 82 -20 203 -33 244 -27 30 4 40 -1 80 -41 48 -47
158 -107 312 -170 178 -73 384 -211 510 -342 l45 -47 -66 36 c-36 20 -78 36
-92 36 -63 0 -19 -68 163 -255 110 -113 170 -198 170 -240 0 -30 -28 -70 -62
-87 -18 -10 -60 -29 -92 -43 -164 -70 -167 -133 -8 -121 l77 6 -49 -24 c-26
-13 -52 -28 -57 -33 -16 -16 15 -33 91 -53 67 -17 71 -17 92 -1 21 17 21 20 9
109 -16 112 -8 133 36 95 46 -41 195 -287 161 -267 -7 4 -31 23 -54 41 -45 37
-79 44 -70 16 19 -62 38 -149 56 -260 26 -158 53 -253 80 -278 11 -11 29 -29
40 -40 16 -15 20 -30 18 -65 l-3 -45 -45 0 c-40 0 -45 -3 -48 -23 -4 -25 23
-62 44 -62 72 0 115 -99 190 -445 35 -162 48 -184 78 -127 19 36 52 278 61
437 9 174 43 345 67 345 7 0 9 -60 5 -192 -7 -246 -48 -545 -85 -614 -18 -34
-41 -168 -52 -305 -43 -527 -82 -698 -220 -964 -170 -326 -366 -577 -663 -850
-93 -86 -112 -122 -56 -111 38 7 138 72 304 196 189 142 265 188 265 162 0
-15 -113 -179 -210 -304 -52 -67 -141 -170 -197 -228 -89 -93 -114 -113 -200
-157 -54 -28 -129 -63 -168 -77 -38 -15 -79 -31 -90 -36 -11 -5 -64 -27 -119
-48 -54 -22 -94 -42 -88 -46 10 -6 279 7 407 20 228 23 491 121 678 255 178
127 299 268 432 504 73 129 110 185 126 185 35 0 -31 -224 -126 -430 -63 -136
-99 -230 -109 -282 -6 -33 -4 -38 12 -38 32 0 66 54 237 370 32 61 78 132 101
158 54 62 101 157 157 318 74 215 99 252 112 172 12 -77 37 -152 64 -198 41
-67 71 -166 71 -232 0 -99 -44 -163 -291 -423 -133 -140 -262 -293 -303 -359
-12 -18 -14 -32 -8 -38 18 -18 50 11 123 112 78 110 125 155 179 171 19 6 103
14 185 19 219 12 267 35 445 211 117 115 189 204 218 269 22 48 26 73 30 195
5 156 -10 263 -55 395 -49 142 -100 221 -160 246 -79 34 -48 93 51 95 91 1
151 13 151 28 0 8 -25 28 -55 44 -43 22 -62 27 -90 22 -49 -9 -136 -65 -258
-163 -121 -99 -240 -182 -258 -182 -18 0 -28 60 -19 126 16 127 89 321 149
391 37 44 116 79 209 94 68 11 92 11 175 -3 113 -19 228 -72 272 -126 108
-131 206 -467 245 -836 19 -186 19 -270 0 -396 -23 -151 -54 -218 -186 -395
-85 -115 -190 -217 -304 -297 -49 -35 -142 -102 -205 -149 -240 -178 -388
-263 -530 -307 -184 -56 -293 -32 -362 80 -17 27 -35 47 -42 45 -6 -2 -12 -22
-14 -44 -4 -54 28 -91 121 -143 93 -51 193 -76 241 -60 45 14 57 8 152 -80
115 -107 359 -244 554 -311 91 -31 102 -33 245 -33 117 -1 163 3 210 17 161
49 154 60 -46 68 -341 14 -396 78 -450 519 l-21 174 44 41 c24 22 139 125 256
228 171 152 217 187 233 182 11 -4 65 -27 120 -51 213 -94 346 -124 555 -124
116 0 144 3 144 14 0 14 -4 16 -100 42 -159 44 -293 167 -361 335 -78 190 -77
352 1 719 47 221 80 417 100 594 6 55 12 102 15 104 2 2 10 -1 17 -8 7 -6 83
-63 168 -126 164 -123 253 -202 301 -271 17 -24 34 -43 39 -43 22 0 31 49 35
173 3 102 -1 155 -16 237 -26 139 -51 204 -179 465 -59 121 -111 230 -114 241
-6 21 -3 22 81 26 65 3 113 13 183 37 208 72 529 249 689 380 56 47 181 192
174 204 -3 4 -12 2 -21 -6 -92 -77 -467 -92 -596 -23 -106 56 -227 191 -266
295 -21 55 -53 242 -65 381 -7 88 -37 263 -60 352 -29 110 -54 177 -136 354
-43 95 -79 179 -79 188 0 9 20 25 48 37 253 116 603 304 733 395 78 54 179
146 179 162 0 7 -4 10 -10 7 -26 -16 -188 -35 -300 -35 -143 0 -397 23 -515
46 -129 26 -197 69 -425 268 -157 137 -509 490 -548 550 -41 63 -33 78 61 121
146 66 487 358 709 606 68 76 221 289 214 296 -2 3 -39 -18 -80 -47 -42 -28
-98 -60 -124 -71 -173 -75 -509 -147 -633 -136 -67 6 -168 51 -299 133 -346
218 -788 409 -1000 433 -105 12 -117 16 -135 52 -21 39 -19 69 10 154 13 41
29 102 35 137 5 35 12 74 16 88 25 110 -3 1016 -35 1170 -6 25 -13 64 -17 88
-8 58 -25 50 -48 -24 -56 -181 -171 -350 -358 -529 -204 -196 -366 -295 -558
-343 -121 -30 -149 -33 -295 -33 -223 1 -431 30 -825 116 -637 139 -822 161
-1005 116 -196 -48 -465 -140 -708 -240 -54 -23 -105 -41 -112 -41 -23 0 -34
32 -36 106 -5 213 -68 526 -157 775 -36 100 -92 223 -140 302 -47 78 -62 92
-62 58z m4292 -1147 c3 -3 -1 -31 -9 -62 -43 -167 -185 -382 -379 -576 -75
-74 -130 -114 -141 -102 -10 9 36 72 128 177 153 175 272 343 314 444 22 54
64 125 74 125 4 0 10 -3 13 -6z m-2918 -641 c-21 -19 -115 -86 -209 -148 -202
-135 -327 -237 -459 -376 -134 -141 -226 -271 -312 -439 -103 -205 -195 -548
-209 -785 -8 -128 -13 -155 -31 -155 -83 0 -38 455 77 789 89 255 254 478 551
742 161 143 411 326 518 379 99 49 135 45 74 -7z m-1885 -65 c-6 -12 -60 -93
-119 -178 -271 -392 -400 -679 -484 -1080 -18 -82 -20 -40 -6 100 11 106 60
294 106 402 89 215 255 490 392 651 20 24 54 65 76 91 39 49 57 56 35 14z
m4049 -713 c-3 -3 -59 -12 -124 -20 -232 -29 -341 -45 -499 -76 -455 -88 -839
-223 -1062 -372 -189 -126 -445 -364 -480 -446 -27 -63 -29 -66 -60 -69 -44
-5 -59 18 -37 60 46 90 272 324 419 435 333 249 862 440 1342 482 101 9 509
14 501 6z m-4435 -1150 c26 -38 58 -85 72 -104 49 -66 15 -72 -49 -8 -82 82
-182 280 -192 380 l-6 52 64 -125 c35 -69 85 -156 111 -195z m4657 -85 c198
-21 394 -84 635 -207 132 -67 225 -133 287 -205 113 -129 243 -344 289 -477
21 -60 25 -116 9 -106 -6 4 -44 75 -85 158 -138 283 -286 436 -565 585 -285
152 -434 179 -1040 189 -184 3 -339 9 -343 13 -5 4 25 10 65 14 40 4 109 11
153 17 202 26 452 34 595 19z m-1981 -828 c14 -45 8 -152 -9 -152 -17 0 -52
130 -45 166 9 49 36 42 54 -14z m-3819 -500 c0 -19 -203 -222 -339 -340 -208
-178 -342 -275 -359 -258 -13 13 28 63 123 150 121 112 321 280 430 362 124
93 145 105 145 86z m6979 -240 c114 -144 250 -512 307 -827 57 -319 -48 -942
-186 -1104 -27 -32 -32 -24 -15 24 13 39 54 220 81 360 52 267 66 529 40 717
-28 200 -83 382 -178 588 -55 119 -98 236 -98 268 0 22 18 13 49 -26z m-7804
-941 c-15 -15 -211 -78 -295 -95 -145 -29 -265 -39 -319 -26 -52 12 -77 31
-66 50 4 6 48 10 108 10 74 0 142 8 247 30 160 32 187 36 275 38 37 1 55 -2
50 -7z m7650 -96 c13 -30 33 -89 44 -132 67 -265 115 -796 77 -848 -12 -17
-15 -11 -30 56 -25 111 -44 253 -56 401 -11 146 -24 255 -47 393 -20 116 -27
185 -18 185 3 0 17 -25 30 -55z m-7034 -189 c-40 -42 -167 -79 -332 -96 -56
-5 -104 -8 -106 -6 -10 10 384 122 436 125 l24 1 -22 -24z m8298 -180 c61 -45
169 -93 259 -116 56 -14 53 -30 -5 -30 -144 1 -333 92 -333 161 0 28 27 23 79
-15z m-8419 -683 c-73 -173 -254 -478 -340 -573 -28 -32 -30 -33 -25 -10 9 35
116 246 177 349 85 144 194 301 208 301 5 0 -4 -30 -20 -67z m7603 -501 c147
-69 160 -96 86 -173 -55 -58 -93 -52 -172 27 -27 26 -57 64 -68 85 -19 38 -25
99 -12 113 13 13 59 -2 166 -52z m-212 -99 c86 -111 160 -182 195 -189 24 -4
51 4 116 35 47 23 90 41 96 41 22 0 32 -41 38 -157 10 -196 -32 -385 -102
-459 -40 -43 -66 -43 -101 1 -15 19 -31 35 -35 35 -4 0 -5 -29 -1 -64 7 -73
-9 -110 -73 -165 -96 -85 -249 -108 -291 -45 -25 39 -4 89 73 175 37 41 73 88
80 106 33 77 5 254 -61 390 -42 86 -44 127 -13 265 12 54 23 98 24 98 1 0 26
-30 55 -67z m-7257 -507 c-87 -101 -225 -196 -341 -235 -82 -28 -107 -28 -73
0 72 58 451 302 458 294 2 -2 -17 -29 -44 -59z m421 -104 c-6 -69 -5 -80 14
-104 42 -52 53 -105 52 -243 0 -133 -14 -212 -45 -261 -49 -74 -117 43 -118
204 0 152 67 482 98 482 3 0 3 -35 -1 -78z m119 -1051 c9 -14 -16 -37 -114
-103 -127 -85 -125 -84 -115 -67 20 33 114 124 154 150 46 30 66 35 75 20z
m6094 -720 c32 -20 -50 -111 -99 -111 -9 0 -21 6 -27 13 -18 21 8 58 57 84 49
26 51 26 69 14z m-143 -187 c17 -34 20 -59 20 -179 0 -122 -3 -146 -22 -187
-23 -50 -58 -77 -75 -60 -16 16 -22 225 -10 324 12 91 35 152 55 146 7 -2 21
-22 32 -44z m-5635 -383 c0 -44 -4 -83 -10 -86 -6 -4 -10 25 -10 79 0 51 4 86
10 86 6 0 10 -33 10 -79z m5718 -80 c2 -13 -4 -51 -13 -84 -20 -70 -12 -85 33
-69 92 32 208 -124 296 -393 19 -60 42 -138 50 -173 18 -78 11 -83 -83 -59
-121 32 -149 70 -153 215 -1 58 -6 91 -13 89 -11 -4 -49 -124 -72 -231 -18
-85 -22 -81 115 -127 53 -17 114 -43 134 -56 46 -28 85 -88 94 -142 8 -49 29
-54 38 -10 7 39 14 214 22 594 6 317 18 428 46 433 12 2 22 -6 29 -25 21 -52
16 -420 -12 -883 -5 -91 -16 -286 -24 -434 -8 -148 -17 -271 -20 -275 -4 -3
-117 -9 -253 -13 -298 -10 -440 -21 -478 -40 -27 -12 -29 -17 -29 -73 l0 -60
95 1 c160 2 475 69 608 130 75 34 185 106 253 164 189 164 268 197 444 186
129 -9 231 -28 283 -55 39 -20 92 -72 134 -131 87 -121 208 -282 245 -326 28
-33 43 -61 43 -78 0 -55 -78 -145 -430 -500 l-357 -359 -79 18 c-43 9 -119 26
-169 37 -49 10 -119 26 -155 33 -36 8 -110 23 -165 35 -55 12 -129 27 -165 35
-380 80 -450 103 -450 147 0 10 7 33 16 51 41 80 219 325 374 512 45 55 78
101 73 102 -5 2 -41 -4 -79 -12 -169 -39 -207 -46 -344 -70 -80 -14 -180 -28
-223 -31 l-78 -7 5 49 c3 27 8 101 12 164 3 63 7 133 9 155 2 22 6 110 10 195
3 85 10 232 15 325 25 452 32 607 26 612 -3 3 -156 -69 -339 -161 -184 -91
-338 -166 -342 -166 -4 0 -36 -13 -71 -30 -35 -16 -151 -64 -256 -106 -742
-294 -1101 -417 -1440 -495 -288 -66 -328 -81 -363 -139 -18 -32 -20 -52 -20
-205 0 -235 17 -332 151 -880 8 -33 19 -82 24 -110 5 -27 12 -60 16 -72 5 -18
0 -23 -33 -32 -74 -21 -164 -9 -206 27 -15 13 -16 18 -4 29 11 12 19 12 41 1
25 -11 30 -10 41 6 15 20 14 37 -20 211 -13 66 -31 163 -40 215 -28 155 -43
211 -80 285 -19 39 -41 97 -49 130 -14 56 -47 305 -61 460 -3 39 -8 77 -11 86
-5 18 11 26 126 59 41 12 127 37 190 57 131 40 175 53 280 83 133 39 514 161
547 176 17 8 35 14 40 14 33 0 610 227 791 311 34 16 64 29 66 29 10 0 196 89
504 242 467 231 493 237 539 132 14 -33 18 -100 25 -469 9 -454 14 -563 29
-548 4 4 13 51 19 103 18 163 48 236 115 281 64 43 91 135 49 169 -20 17 -45
4 -84 -44 -19 -24 -38 -42 -41 -40 -29 16 -27 421 2 611 9 62 36 134 61 163
63 74 139 100 146 51z m3482 -2488 c44 -30 52 -53 20 -53 -24 0 -100 37 -100
49 0 26 45 28 80 4z m788 -68 c30 -9 51 -22 49 -28 -6 -19 -177 -20 -312 -2
-318 41 -327 58 -25 52 186 -3 246 -8 288 -22z m-5284 -50 c-1 -26 -101 -71
-264 -118 -69 -20 -329 -84 -395 -97 -356 -71 -531 -95 -847 -116 -71 -5 -98
-4 -98 5 0 6 2 11 4 11 2 0 57 11 122 24 66 13 164 31 219 40 474 77 561 92
620 106 22 5 90 21 150 35 61 15 178 46 260 70 83 24 159 46 170 48 30 7 60 3
59 -8z m4899 -390 c238 -26 412 -69 356 -90 -33 -11 -192 -22 -288 -19 -195 6
-298 31 -346 84 -16 18 -17 23 -5 30 22 14 122 12 283 -5z m183 -393 l59 -27
-65 -3 c-74 -4 -144 18 -161 50 -25 46 44 38 167 -20z m-200 -147 c75 -74 132
-135 127 -135 -33 0 -200 132 -244 193 -26 35 -38 77 -24 77 3 0 66 -61 141
-135z m-7319 90 c152 -36 227 -119 253 -278 12 -78 1 -171 -27 -218 -22 -37
-94 -86 -193 -130 -105 -46 -205 -52 -277 -16 -102 52 -195 158 -223 253 -16
54 5 122 67 216 65 98 131 146 240 172 75 18 86 19 160 1z m6973 -105 c19 0
30 -38 20 -66 l-11 -27 -24 23 c-40 37 -45 90 -8 76 8 -3 19 -6 23 -6z m-6423
-241 c14 -13 32 -38 39 -56 37 -87 3 -119 -113 -109 -83 7 -119 23 -128 59 -8
31 19 91 52 117 37 29 112 24 150 -11z"/>
<path d="M9917 7520 c-51 -32 -66 -55 -49 -72 16 -16 78 9 107 43 52 62 20 78
-58 29z"/>
<path d="M8934 4613 c-22 -54 -57 -248 -50 -278 4 -14 13 -25 21 -25 22 0 64
148 72 251 5 78 4 89 -10 89 -10 0 -24 -16 -33 -37z"/>
<path d="M8335 4484 c-89 -47 -113 -84 -55 -84 43 0 87 25 105 60 30 57 21 61
-50 24z"/>
<path d="M8010 4333 c-231 -85 -600 -266 -600 -294 0 -24 88 8 312 111 223
104 338 165 338 181 0 10 -26 11 -50 2z"/>
<path d="M7213 4000 c-69 -35 -88 -53 -79 -76 7 -18 27 -14 101 21 57 28 98
62 90 76 -11 17 -51 9 -112 -21z"/>
<path d="M9327 3623 c-11 -10 -8 -191 3 -198 16 -10 30 40 30 103 0 83 -12
117 -33 95z"/>
<path d="M5978 3593 c-25 -6 -22 -30 5 -37 65 -17 130 2 106 31 -11 12 -74 16
-111 6z"/>
<path d="M5742 3533 c-43 -21 -57 -46 -36 -64 13 -10 27 -10 82 5 77 20 108
42 91 63 -16 18 -97 16 -137 -4z"/>
<path d="M5460 1365 c-14 -7 -38 -34 -54 -59 -32 -51 -46 -58 -46 -22 0 14
-10 37 -23 52 -19 22 -29 26 -50 20 -29 -7 -34 -25 -17 -57 13 -24 1 -49 -46
-96 -25 -25 -34 -42 -34 -67 0 -42 20 -52 62 -30 27 14 31 14 47 0 27 -24 34
-19 27 19 -6 29 -3 39 18 60 50 50 118 23 156 -63 27 -61 64 -91 112 -92 41 0
68 27 68 68 0 35 -63 150 -116 210 -58 66 -72 74 -104 57z"/>
<path d="M5203 973 c-25 -10 -12 -30 36 -56 68 -37 121 -33 121 10 0 31 -39
53 -92 52 -29 0 -59 -3 -65 -6z"/>
<path d="M6444 12096 c-42 -19 -74 -62 -74 -101 0 -39 19 -58 57 -53 27 3 28
5 26 51 -3 41 0 47 17 47 24 0 66 -54 75 -97 4 -19 13 -33 21 -33 10 0 14 15
14 59 0 76 -12 106 -49 126 -36 18 -47 18 -87 1z"/>
<path d="M7084 11863 c8 -140 14 -200 27 -271 l11 -53 85 -39 c47 -22 87 -40
90 -40 3 0 19 -7 36 -15 93 -43 197 -67 197 -45 0 13 -86 68 -177 113 -96 47
-127 72 -169 133 -27 39 -35 59 -32 85 3 34 3 34 53 32 35 -1 81 -15 153 -47
113 -50 208 -101 218 -118 4 -6 3 -8 -3 -5 -13 8 -239 57 -264 57 -43 0 -13
-23 111 -84 194 -95 264 -107 287 -46 15 39 41 49 60 24 20 -26 9 -90 -23
-131 -20 -26 -32 -33 -60 -33 l-34 0 16 -25 c16 -25 16 -27 -19 -78 -59 -85
-60 -151 -2 -113 23 15 49 46 167 205 35 47 84 107 111 134 65 66 72 83 53
112 -57 87 -691 349 -771 319 -23 -9 -18 -20 25 -52 44 -32 43 -42 -5 -42 -53
0 -115 64 -115 120 0 12 -7 20 -16 20 -14 0 -16 -13 -10 -117z m800 -247 c14
-38 -5 -54 -38 -32 -26 16 -32 39 -20 71 6 14 9 14 28 2 11 -8 25 -26 30 -41z"/>
<path d="M6931 11941 c-13 -9 -12 -25 4 -78 7 -21 5 -22 -29 -12 -20 6 -53 9
-74 7 -29 -2 -37 -7 -37 -23 0 -39 103 -85 158 -71 55 13 64 144 13 178 -14
10 -18 10 -35 -1z"/>
<path d="M6802 11718 c-18 -18 -14 -63 7 -82 27 -24 75 -18 79 10 3 23 -42 84
-62 84 -7 0 -17 -5 -24 -12z"/>
<path d="M6547 11623 c-4 -3 -7 -55 -7 -115 0 -85 3 -108 14 -108 18 0 26 31
26 106 0 96 -12 139 -33 117z"/>
<path d="M6667 11618 c-9 -5 -17 -17 -17 -28 0 -23 47 -80 66 -80 16 0 34 31
34 58 0 35 -53 67 -83 50z"/>
<path d="M6690 11414 c-25 -21 -30 -33 -28 -58 3 -28 7 -31 41 -34 20 -2 74 4
120 12 106 20 146 20 197 0 65 -26 74 -61 40 -159 -27 -77 -27 -146 0 -170 19
-17 22 -17 36 -3 20 20 33 83 34 161 0 69 9 67 47 -9 36 -73 47 -69 37 14 -11
92 -10 140 4 154 9 9 38 3 129 -26 64 -22 137 -41 162 -44 l46 -5 -20 23 c-33
38 -250 133 -353 155 -28 6 -34 4 -39 -13 -3 -12 -16 -22 -34 -26 -37 -7 -185
11 -278 35 -96 24 -103 24 -141 -7z"/>
<path d="M7290 11230 c0 -7 27 -38 60 -68 33 -30 60 -59 60 -64 0 -4 -16 -8
-35 -8 -39 0 -75 -28 -75 -58 0 -37 32 -123 47 -129 20 -8 111 89 145 155 21
39 22 44 8 69 -34 60 -210 146 -210 103z"/>
<path d="M6100 11070 c0 -20 104 -90 155 -106 66 -19 124 -7 154 33 44 54 14
105 -37 64 -65 -51 -78 -54 -140 -33 -31 11 -74 27 -94 36 -21 9 -38 12 -38 6z"/>
<path d="M6868 10993 c-89 -92 -190 -372 -190 -523 0 -99 -12 -120 -75 -120
l-47 0 42 36 c41 35 55 75 32 89 -27 17 -173 -106 -202 -169 -8 -20 -8 -29 3
-42 12 -14 26 -16 104 -9 164 14 170 13 173 -14 6 -40 -28 -130 -54 -148 -32
-20 -87 -14 -264 32 -303 79 -490 109 -685 109 -121 1 -150 4 -150 15 0 7 46
42 103 76 57 34 111 69 120 78 15 16 14 17 -13 17 -17 0 -46 -4 -66 -9 -49
-11 -64 -2 -48 32 26 56 -18 77 -63 30 -57 -61 -134 -241 -138 -323 -4 -76 0
-92 33 -125 42 -42 73 -50 287 -75 280 -33 290 -34 290 -23 0 6 -12 13 -27 16
-45 8 -184 45 -190 51 -3 2 15 9 38 15 24 6 69 18 99 28 30 9 88 18 128 21
l74 5 -3 -29 c-2 -16 0 -34 4 -41 13 -20 99 -32 276 -38 171 -6 317 -26 438
-61 68 -19 249 -80 278 -93 11 -6 83 -35 160 -67 77 -31 191 -81 254 -111 62
-29 114 -53 116 -53 2 0 83 -39 181 -86 99 -47 216 -104 262 -125 45 -21 82
-41 82 -44 0 -2 -24 -42 -54 -87 -63 -97 -85 -153 -69 -169 29 -29 100 44 158
161 30 62 71 110 93 110 19 0 82 -39 82 -51 0 -5 -14 -9 -30 -9 -17 0 -33 -6
-36 -14 -14 -37 83 -117 159 -131 44 -8 87 14 87 45 0 23 -47 50 -88 50 -16 0
-35 7 -42 15 -11 13 -9 20 10 40 13 14 33 25 46 25 12 0 25 8 29 18 14 37 -39
446 -71 545 -21 63 -54 61 -54 -3 0 -29 -30 -40 -76 -30 -21 5 -58 10 -81 10
-37 0 -43 -3 -49 -25 -8 -33 21 -81 75 -122 53 -41 76 -42 96 -3 22 42 32 37
28 -12 -4 -55 -42 -135 -96 -206 -84 -108 -45 -113 -368 50 -263 133 -385 192
-499 240 -25 11 -54 23 -65 29 -11 5 -51 20 -90 35 -38 14 -97 40 -129 57 -88
47 -99 77 -104 285 -5 186 0 194 62 117 59 -72 69 -63 63 54 -5 112 -18 141
-75 182 -35 24 -140 69 -279 119 -35 12 -63 26 -63 31 0 17 108 9 205 -17 56
-14 109 -23 123 -19 24 6 25 8 18 73 -22 229 -28 245 -71 188 -15 -20 -33 -36
-40 -36 -8 0 -23 28 -34 63 -40 118 -71 134 -133 70z m134 -208 c30 -10 67
-28 83 -41 l30 -24 -41 0 c-60 0 -264 67 -264 87 0 11 138 -5 192 -22z m-167
-325 c24 -8 61 -10 102 -6 l64 7 -16 -25 c-11 -16 -14 -33 -9 -52 6 -24 5 -26
-12 -19 -10 4 -34 10 -53 13 -46 6 -61 -16 -61 -88 0 -90 20 -102 120 -75 21
5 19 1 -15 -27 -95 -79 -110 -96 -98 -109 7 -7 47 -14 90 -16 83 -4 97 -10 87
-36 -23 -61 -290 -38 -302 26 -2 10 7 42 20 70 21 48 23 64 23 229 -1 147 1
172 11 149 8 -20 24 -33 49 -41z m1640 -1052 c30 -14 31 -51 1 -56 -20 -4
-116 36 -116 49 0 20 76 25 115 7z"/>
<path d="M6139 10909 c-16 -10 -16 -47 -1 -219 14 -147 26 -200 48 -200 7 0
21 15 31 33 14 25 17 59 18 162 0 112 -3 136 -21 176 -22 46 -49 64 -75 48z"/>
<path d="M5986 10858 c-25 -35 -21 -95 15 -260 12 -53 33 -63 43 -22 4 15 7
71 7 125 0 134 -30 207 -65 157z"/>
<path d="M7210 10845 c-9 -10 -11 -32 -7 -68 13 -110 44 -172 111 -217 44 -30
65 -63 66 -101 0 -47 28 -67 125 -89 50 -11 100 -23 113 -26 29 -8 30 16 1 42
-41 37 -121 195 -106 210 2 2 64 -16 138 -41 244 -84 266 -90 285 -75 17 15
14 56 -12 158 -20 76 -48 105 -95 99 -38 -5 -119 -51 -119 -67 0 -5 17 -12 38
-15 91 -14 107 -20 107 -40 0 -17 -8 -20 -48 -23 -62 -4 -132 29 -146 70 -13
36 -28 35 -120 -2 -85 -35 -143 -38 -188 -10 -46 28 -61 57 -60 117 1 76 -47
121 -83 78z"/>
<path d="M5837 10813 c-4 -3 -7 -21 -7 -38 0 -49 56 -88 85 -59 19 19 12 49
-18 82 -20 22 -47 29 -60 15z"/>
<path d="M5630 10690 c0 -75 3 -101 12 -98 18 6 29 62 26 131 -2 49 -6 62 -20
65 -16 3 -18 -7 -18 -98z"/>
<path d="M8000 10742 c-59 -20 -30 -127 48 -176 45 -28 82 -71 82 -95 0 -62
221 -159 296 -131 l29 12 -23 19 c-13 10 -54 28 -90 39 -37 12 -77 28 -90 36
-33 22 -62 74 -62 112 0 18 -6 45 -14 60 -31 60 -140 136 -176 124z"/>
<path d="M8244 10615 c-7 -40 3 -105 16 -105 24 0 40 83 24 124 -11 28 -33 17
-40 -19z"/>
<path d="M5922 10485 c-39 -17 -49 -38 -34 -71 9 -18 19 -24 44 -24 58 0 186
82 157 101 -22 14 -130 10 -167 -6z"/>
<path d="M7615 10492 c-11 -11 -4 -22 25 -37 33 -17 60 -61 60 -98 0 -35 36
-77 66 -77 29 0 41 23 26 54 -13 28 2 56 29 56 39 0 15 33 -45 63 -55 27 -150
50 -161 39z"/>
<path d="M7932 10378 c-17 -17 -15 -113 2 -127 20 -17 36 15 36 72 0 49 -18
75 -38 55z"/>
<path d="M8030 10324 c0 -77 50 -118 140 -115 27 0 61 -4 75 -9 28 -11 58 -68
70 -132 9 -46 20 -49 29 -7 20 102 -4 177 -69 220 -50 33 -177 79 -216 79 -27
0 -29 -3 -29 -36z"/>
<path d="M7301 10316 c-21 -25 -5 -64 35 -88 33 -19 35 -24 29 -57 -3 -20 -8
-44 -11 -53 -6 -21 29 -58 56 -58 33 0 88 27 99 49 16 28 -9 74 -54 104 -55
35 -52 48 8 30 98 -28 122 -58 136 -172 11 -88 24 -113 58 -109 41 5 49 28 33
92 -12 50 -12 59 2 72 14 15 19 14 51 -1 59 -28 143 -145 105 -145 -8 0 -19 5
-25 11 -15 15 -54 7 -67 -13 -9 -14 -6 -23 16 -44 36 -36 103 -38 131 -3 36
45 8 156 -55 218 -103 101 -501 223 -547 167z"/>
<path d="M8400 10147 c0 -97 30 -162 75 -162 28 0 30 3 33 39 4 46 -20 117
-55 164 -40 53 -53 43 -53 -41z"/>
<path d="M7186 10158 c-23 -33 -21 -110 3 -132 29 -26 58 -12 72 34 24 79 -35
156 -75 98z"/>
<path d="M8119 10127 c-40 -27 -50 -72 -24 -111 55 -83 315 -166 315 -101 0
21 -50 55 -80 55 -41 0 -76 34 -95 90 -14 43 -53 90 -75 90 -4 0 -22 -10 -41
-23z"/>
<path d="M7962 9943 c-27 -114 -35 -181 -24 -218 7 -24 14 -30 37 -30 43 0 70
43 70 113 0 69 -35 222 -51 222 -6 0 -20 -39 -32 -87z"/>
<path d="M8090 9890 c0 -38 49 -120 70 -120 44 0 34 47 -23 108 -36 37 -47 40
-47 12z"/>
<path d="M8599 9833 c-16 -44 14 -232 41 -248 31 -19 44 172 17 238 -19 44
-43 48 -58 10z"/>
<path d="M8097 9682 c-32 -35 -10 -102 34 -102 28 0 59 31 59 59 0 53 -60 80
-93 43z"/>
<path d="M8662 9528 c-21 -27 -22 -60 -6 -140 19 -94 29 -118 49 -118 31 0 31
199 -1 247 -16 26 -27 29 -42 11z"/>
<path d="M8670 9200 c0 -11 5 -40 12 -65 18 -65 7 -77 -83 -92 -72 -12 -112
-32 -133 -66 -20 -32 6 -41 76 -27 73 14 143 47 193 91 50 44 48 80 -7 136
-47 48 -58 52 -58 23z"/>
<path d="M8340 9111 c-30 -59 -70 -189 -70 -227 0 -65 59 -66 92 -1 21 42 38
181 30 239 -6 40 -28 35 -52 -11z"/>
<path d="M6750 8996 c-89 -25 -118 -58 -64 -72 31 -8 186 23 211 42 45 32 -62
55 -147 30z"/>
<path d="M4020 8936 c0 -31 329 -366 360 -366 19 0 9 20 -38 77 -59 70 -299
303 -312 303 -6 0 -10 -6 -10 -14z"/>
<path d="M7005 8930 c-3 -5 -4 -14 -1 -19 8 -12 116 -21 175 -14 41 5 51 9 51
24 0 17 -9 19 -109 19 -63 0 -112 -4 -116 -10z"/>
<path d="M6439 8797 c-138 -104 -156 -136 -43 -78 93 48 145 88 138 106 -10
25 -36 17 -95 -28z"/>
<path d="M7587 8833 c-15 -15 -3 -24 81 -64 123 -59 244 -101 257 -88 7 7 3
15 -10 26 -49 37 -269 133 -307 133 -8 0 -18 -3 -21 -7z"/>
<path d="M6715 8671 c-63 -17 -110 -43 -155 -85 -37 -34 -64 -49 -121 -66 -72
-21 -170 -81 -213 -129 -27 -30 -10 -26 89 19 48 23 89 39 91 38 2 -2 -15 -25
-38 -51 -42 -49 -102 -87 -138 -87 -43 0 -120 -59 -120 -92 0 -22 29 -23 85
-3 47 17 45 17 45 8 0 -5 -19 -28 -41 -53 -126 -138 -130 -219 -8 -135 42 29
60 35 103 35 58 0 76 10 221 125 103 83 157 115 246 151 236 93 504 70 809
-69 41 -19 154 -81 250 -137 269 -159 370 -204 370 -167 0 28 -45 80 -208 242
-104 105 -173 181 -177 198 -6 21 -22 34 -79 61 -172 82 -336 135 -561 182
-88 18 -400 29 -450 15z"/>
<path d="M3573 8620 c-32 -13 -28 -27 11 -40 63 -21 141 17 81 40 -32 12 -62
12 -92 0z"/>
<path d="M4420 8489 c0 -44 134 -239 165 -239 21 0 19 13 -14 78 -34 67 -102
156 -131 172 -17 9 -20 8 -20 -11z"/>
<path d="M3008 8455 c-27 -15 -48 -43 -48 -64 0 -18 52 -12 100 12 58 28 63
61 10 64 -19 2 -47 -4 -62 -12z"/>
<path d="M3355 8323 c-127 -28 -191 -73 -180 -124 8 -36 -6 -62 -67 -125 -38
-39 -50 -59 -51 -85 -2 -44 25 -49 76 -15 20 14 37 23 37 20 0 -3 -24 -38 -54
-78 -58 -78 -96 -146 -96 -170 0 -17 24 -27 48 -19 21 7 88 61 163 129 206
189 453 248 772 186 173 -34 238 -73 421 -255 138 -136 151 -138 151 -22 l0
80 -38 6 c-24 4 -51 19 -73 40 -41 39 -78 105 -65 114 13 8 57 -11 96 -41 53
-40 49 -12 -10 58 -62 76 -172 165 -248 203 -122 59 -435 106 -702 104 -88 -1
-169 -3 -180 -6z"/>
<path d="M7110 8299 c-159 -17 -307 -111 -403 -256 -152 -231 -108 -485 128
-749 102 -114 243 -174 406 -174 116 0 190 29 265 104 68 69 120 140 130 179
10 41 -12 34 -83 -24 -87 -71 -98 -65 -89 47 11 129 26 150 98 135 54 -11 68
-4 68 35 0 91 -79 287 -137 340 -36 33 -36 34 -18 54 24 27 78 27 106 -1 39
-39 61 -109 68 -214 3 -57 10 -100 16 -99 6 0 18 18 29 39 50 100 22 236 -78
375 -61 83 -114 129 -195 167 -60 28 -90 36 -165 41 -50 4 -116 4 -146 1z
m119 -494 c35 -40 61 -96 61 -131 0 -60 -76 -164 -119 -164 -61 0 -105 173
-65 253 23 44 54 77 75 77 9 0 31 -16 48 -35z m-319 -104 l25 -7 -30 -7 c-51
-13 -96 -41 -102 -64 -9 -38 4 -66 61 -132 93 -108 112 -219 21 -125 -36 37
-95 130 -120 191 -33 79 -11 129 63 143 47 10 51 10 82 1z m191 -313 c13 -51
67 -108 102 -108 33 0 80 40 82 70 3 37 19 34 59 -10 43 -48 39 -65 -24 -105
-85 -53 -200 -53 -251 2 -19 20 -24 35 -23 76 0 44 25 117 39 117 2 0 9 -19
16 -42z"/>
<path d="M3855 7980 c-63 -16 -90 -33 -160 -103 -85 -86 -138 -175 -165 -282
-24 -94 -25 -161 -4 -252 23 -103 70 -188 144 -263 79 -79 161 -124 266 -146
174 -36 418 23 448 109 22 61 -37 59 -173 -5 -97 -46 -163 -49 -243 -10 -145
69 -130 84 72 76 139 -6 146 -5 173 16 36 28 51 66 93 233 47 182 42 212 -28
182 -26 -10 -23 20 5 70 29 52 66 59 94 18 30 -43 49 -90 77 -186 29 -100 50
-144 42 -87 -3 19 -8 62 -11 95 -23 204 -129 372 -295 463 -98 54 -262 89
-335 72z m254 -406 c38 -48 45 -88 26 -149 -34 -107 -128 -163 -169 -100 -27
41 -40 124 -27 173 14 51 73 94 138 101 6 0 21 -11 32 -25z"/>
<path d="M7625 7171 c-11 -5 -40 -26 -65 -48 -62 -54 -110 -80 -180 -98 -82
-21 -238 -42 -410 -54 -162 -12 -290 -29 -310 -41 -21 -13 -2 -29 58 -47 88
-28 391 -24 527 5 212 47 344 101 416 173 34 34 40 45 37 77 -3 31 -7 37 -28
39 -14 1 -34 -2 -45 -6z"/>
<path d="M3555 6780 c-11 -18 37 -72 79 -91 90 -39 348 -49 511 -18 93 17 158
60 139 91 -9 15 -153 3 -229 -18 -38 -10 -101 -17 -170 -18 -99 -1 -120 2
-208 32 -109 36 -113 36 -122 22z"/>
<path d="M4707 6673 c-10 -52 33 -97 78 -79 38 14 -4 106 -50 106 -17 0 -24
-7 -28 -27z"/>
<path d="M9192 6454 c-37 -26 -52 -67 -52 -146 0 -79 10 -126 35 -164 20 -31
48 -19 64 27 9 26 8 36 -4 49 -14 15 -11 22 25 73 51 71 54 114 9 151 -36 30
-46 32 -77 10z"/>
<path d="M4610 6372 c0 -39 168 -124 198 -100 18 16 -10 44 -80 79 -54 27
-118 39 -118 21z"/>
<path d="M6485 5728 c-120 -38 -519 -145 -610 -164 -206 -43 -417 -70 -738
-93 -147 -11 -217 -28 -217 -53 0 -40 137 -63 330 -54 399 17 1168 212 1271
322 20 21 21 26 8 38 -10 10 -22 11 -44 4z"/>
<path d="M11810 5374 c-47 -8 -116 -21 -155 -29 -456 -97 -580 -127 -604 -151
-35 -33 29 -36 534 -31 518 6 730 20 778 52 30 19 162 35 300 35 120 0 283 17
317 33 37 18 31 39 -16 53 -71 21 -111 24 -389 29 -148 3 -308 8 -355 10 -251
13 -328 13 -410 -1z"/>
<path d="M13270 5281 c0 -19 465 -30 643 -15 170 15 58 24 -283 24 -198 0
-360 -4 -360 -9z"/>
<path d="M10313 5093 c-36 -7 -27 -31 16 -44 31 -9 47 -9 70 1 38 15 39 27 5
40 -26 10 -50 11 -91 3z"/>
<path d="M9775 4799 c-10 -16 23 -37 95 -59 53 -17 87 -20 175 -18 69 2 110 7
112 14 5 14 -83 37 -220 59 -116 18 -153 19 -162 4z"/>
<path d="M10254 4759 c-13 -22 17 -33 78 -31 66 3 94 16 68 32 -21 13 -137 12
-146 -1z"/>
<path d="M13680 4763 c-67 -5 -94 -13 -83 -24 12 -12 411 -13 444 -1 23 9 23
9 3 16 -24 7 -293 14 -364 9z"/>
<path d="M3552 4048 c-8 -8 -12 -45 -12 -100 0 -71 3 -88 15 -88 20 0 38 75
31 134 -6 56 -16 72 -34 54z"/>
<path d="M3239 3849 c-15 -28 19 -289 39 -296 7 -3 32 11 57 31 24 20 60 43
80 52 33 14 40 13 73 -3 27 -13 41 -29 52 -59 27 -74 47 -50 49 58 1 78 -15
111 -50 104 -33 -6 -49 9 -49 50 0 45 -16 85 -33 79 -7 -3 -35 -35 -62 -70
-27 -36 -52 -65 -56 -65 -3 0 -10 24 -13 52 -11 80 -60 117 -87 67z"/>
<path d="M5292 3646 c-29 -19 -99 -48 -155 -66 -158 -50 -172 -55 -169 -65 5
-19 427 -4 464 16 48 26 -14 150 -74 149 -7 0 -37 -16 -66 -34z"/>
<path d="M4846 3334 c-22 -22 -21 -34 23 -227 41 -177 95 -447 106 -527 3 -25
13 -79 22 -120 9 -41 17 -111 17 -155 0 -114 -18 -146 -203 -350 -275 -304
-763 -1063 -796 -1237 -6 -31 -4 -36 17 -41 144 -35 518 -35 617 -1 81 28 89
44 101 209 9 117 7 434 -4 653 -2 23 2 46 8 51 6 4 90 34 186 66 254 83 468
197 585 311 52 50 56 68 18 86 -60 28 -79 121 -93 463 -8 211 -16 253 -50 290
-27 29 -56 108 -96 263 -45 174 -63 213 -106 240 -64 40 -320 59 -352 26z
m289 -1224 c30 -48 62 -69 170 -111 44 -18 84 -36 90 -41 5 -4 -55 -8 -133 -8
-167 0 -169 1 -197 103 -14 54 -15 69 -5 82 22 26 48 17 75 -25z"/>
<path d="M5365 3297 c-4 -8 -5 -45 -3 -83 2 -53 6 -69 18 -69 19 0 30 65 21
119 -6 41 -27 59 -36 33z"/>
<path d="M3530 3063 c-98 -32 -279 -172 -267 -206 2 -7 18 -13 35 -15 62 -6
275 123 288 174 10 39 -16 61 -56 47z"/>
<path d="M11686 3055 c-31 -32 -31 -142 1 -152 16 -6 63 78 63 113 0 49 -33
69 -64 39z"/>
<path d="M4775 2564 c-162 -87 -515 -367 -492 -390 3 -4 32 8 64 26 129 73
518 351 518 371 0 24 -38 21 -90 -7z"/>
<path d="M5523 2404 c-6 -16 -8 -61 -4 -106 2 -30 29 -20 41 16 12 38 5 79
-16 97 -11 9 -15 7 -21 -7z"/>
<path d="M4746 2120 c-52 -48 -91 -120 -81 -150 8 -26 17 -25 54 5 29 25 91
134 91 161 0 28 -22 23 -64 -16z"/>
<path d="M4130 2104 c-90 -64 -204 -118 -345 -165 -229 -76 -350 -152 -531
-333 -136 -137 -227 -255 -335 -436 -86 -145 -239 -445 -239 -469 0 -11 8 -22
18 -25 63 -18 207 -27 426 -24 l249 3 49 95 c27 52 107 208 177 345 269 523
410 768 537 930 46 59 84 111 84 116 0 19 -27 7 -90 -37z"/>
<path d="M11633 1363 c-83 -62 -241 -209 -433 -402 -236 -237 -321 -347 -233
-300 99 52 733 684 733 730 0 17 -18 9 -67 -28z"/>
</g>
</svg>
